<svg version="1.1" xmlns="http://www.w3.org/2000/svg" viewBox="0 0 1290 797" width="1290" height="797">
  <!-- svg-source:excalidraw -->
  
  <defs>
    <style>
      @font-face {
        font-family: "Virgil";
        src: url("https://excalidraw.com/Virgil.woff2");
      }
      @font-face {
        font-family: "Cascadia";
        src: url("https://excalidraw.com/Cascadia.woff2");
      }
    </style>
  </defs>
  <rect x="0" y="0" width="1290" height="797" fill="#ffffff"></rect><g stroke-linecap="round" transform="translate(229 10) rotate(0 343 388.5)"><path d="M-0.49 -0.03 C226.12 -0.33, 450.73 -0.94, 686.59 0.47 M-0.25 -0.18 C200.34 -1.16, 400.71 -1.33, 686.01 -0.31 M686.42 -0.51 C684.86 268.75, 686.17 536.35, 686.46 777.14 M686.21 0.23 C687.97 175.42, 687.85 351.76, 685.7 777.24 M685.22 777.23 C527.18 774.91, 368.66 773.88, 0.71 777.64 M685.8 776.63 C537.35 777.04, 387.94 777.48, -0.2 776.98 M0.15 776.56 C-0.13 555.29, 0.33 333.3, -0.77 -0.1 M0.21 777.13 C0.06 554.84, 0.07 332.28, 0.3 -0.29" stroke="#000000" stroke-width="1" fill="none"></path></g><g stroke-linecap="round"><g transform="translate(231.1919664731995 30.85118129917933) rotate(0 341.9818865284602 0.8742565517044767)"><path d="M0.36 0.94 C114.48 1.19, 570.58 1.9, 684.87 1.72 M-0.9 0.39 C113.02 0.29, 569.3 -0.04, 683.76 0" stroke="#000000" stroke-width="1" fill="none"></path></g></g><g stroke-linecap="round" transform="translate(294 137) rotate(0 107.10622927593397 14.732083580704668)"><path d="M0 0 C76.57 0, 153.13 0, 214.21 0 M0 0 C51.68 0, 103.37 0, 214.21 0 M214.21 0 C214.21 6.81, 214.21 13.62, 214.21 29.46 M214.21 0 C214.21 7.42, 214.21 14.85, 214.21 29.46 M214.21 29.46 C154.57 29.46, 94.93 29.46, 0 29.46 M214.21 29.46 C158.34 29.46, 102.47 29.46, 0 29.46 M0 29.46 C0 22.61, 0 15.75, 0 0 M0 29.46 C0 19.03, 0 8.59, 0 0" stroke="#000000" stroke-width="1" fill="none"></path></g><g stroke-opacity="0.3" fill-opacity="0.3" transform="translate(312.31556337060624 143.06131011905927) rotate(0 45.60282412788979 9.354425462131246)"><text x="0" y="14.708850924262482" font-family="Cascadia, Segoe UI Emoji" font-size="15.590709103552069px" fill="#000000" text-anchor="start" style="white-space: pre;" direction="ltr">write here</text></g><g stroke-linecap="round" transform="translate(648.0355477234807 138.72558474294578) rotate(0 58.49737765341126 13.137207628527236)"><path d="M0 0 C44.24 0, 88.47 0, 116.99 0 M0 0 C46.2 0, 92.39 0, 116.99 0 M116.99 0 C116.99 5.8, 116.99 11.59, 116.99 26.27 M116.99 0 C116.99 6.2, 116.99 12.41, 116.99 26.27 M116.99 26.27 C83.94 26.27, 50.88 26.27, 0 26.27 M116.99 26.27 C70.52 26.27, 24.05 26.27, 0 26.27 M0 26.27 C0 16.14, 0 6, 0 0 M0 26.27 C0 16.96, 0 7.64, 0 0" stroke="#000000" stroke-width="1" fill="none"></path></g><g transform="translate(679.5948741918587 143.17942155166088) rotate(0 28.11052095943478 9.637892900377636)"><text x="28.110520959434766" y="15.27578580075528" font-family="Cascadia, Segoe UI Emoji" font-size="16.063154833962738px" fill="#000000" text-anchor="middle" style="white-space: pre;" direction="ltr">remove</text></g><g transform="translate(435 60) rotate(0 141.20930232558135 24)"><text x="141.20930232558138" y="39" font-family="Cascadia, Segoe UI Emoji" font-size="40.1860465116279px" fill="#0b7285" text-anchor="middle" style="white-space: pre;" direction="ltr">Grocery list</text></g><g stroke-linecap="round"><g transform="translate(415 116) rotate(0 148.11946597173807 0.2430380965590473)"><path d="M-2.16 1.78 C47.17 2.51, 248.93 2.67, 298.4 2.3 M1.87 0.28 C50.82 0.36, 249.09 -2.27, 297.46 -2" stroke="#0b7285" stroke-width="1" fill="none"></path></g></g><g stroke-linecap="round" transform="translate(543.0580581031763 139.16363284317083) rotate(0 46.583149018491895 12.850523867170182)"><path d="M0 0 C32.27 0, 64.53 0, 93.17 0 M0 0 C34.95 0, 69.9 0, 93.17 0 M93.17 0 C93.17 5.57, 93.17 11.14, 93.17 25.7 M93.17 0 C93.17 8.2, 93.17 16.4, 93.17 25.7 M93.17 25.7 C60.25 25.7, 27.33 25.7, 0 25.7 M93.17 25.7 C59.84 25.7, 26.52 25.7, 0 25.7 M0 25.7 C0 18.71, 0 11.71, 0 0 M0 25.7 C0 15.98, 0 6.27, 0 0" stroke="#000000" stroke-width="1" fill="none"></path></g><g transform="translate(577.1922621253468 143.9825792933591) rotate(0 14.05526047971739 9.637892900377636)"><text x="14.05526047971739" y="15.275785800755287" font-family="Cascadia, Segoe UI Emoji" font-size="16.06315483396274px" fill="#000000" text-anchor="middle" style="white-space: pre;" direction="ltr">add</text></g><g stroke-linecap="round" transform="translate(279 362) rotate(0 7.5 7.5)"><path d="M0 0 C3.99 0, 7.98 0, 15 0 M0 0 C5.1 0, 10.21 0, 15 0 M15 0 C15 4.1, 15 8.21, 15 15 M15 0 C15 3.62, 15 7.24, 15 15 M15 15 C10.32 15, 5.65 15, 0 15 M15 15 C9.77 15, 4.54 15, 0 15 M0 15 C0 9.05, 0 3.11, 0 0 M0 15 C0 10.49, 0 5.97, 0 0" stroke="#000000" stroke-width="1" fill="none"></path></g><g stroke-linecap="round" transform="translate(279.5 410.5) rotate(0 7.5 7.5)"><path d="M0 0 C3.81 0, 7.62 0, 15 0 M0 0 C4.15 0, 8.29 0, 15 0 M15 0 C15 3.15, 15 6.29, 15 15 M15 0 C15 3.17, 15 6.33, 15 15 M15 15 C9.85 15, 4.69 15, 0 15 M15 15 C10.98 15, 6.97 15, 0 15 M0 15 C0 11.07, 0 7.15, 0 0 M0 15 C0 10.71, 0 6.43, 0 0" stroke="#000000" stroke-width="1" fill="none"></path></g><g stroke-linecap="round" transform="translate(279.5 460.5) rotate(0 7.5 7.5)"><path d="M0 0 C4.31 0, 8.63 0, 15 0 M0 0 C5.09 0, 10.18 0, 15 0 M15 0 C15 5.76, 15 11.52, 15 15 M15 0 C15 5.8, 15 11.6, 15 15 M15 15 C10.78 15, 6.56 15, 0 15 M15 15 C9.28 15, 3.57 15, 0 15 M0 15 C0 9.34, 0 3.67, 0 0 M0 15 C0 9.08, 0 3.16, 0 0" stroke="#000000" stroke-width="1" fill="none"></path></g><g transform="translate(313 359.5) rotate(0 56.5 9.5)"><text x="0" y="15" font-family="Cascadia, Segoe UI Emoji" font-size="16px" fill="#000000" text-anchor="start" style="white-space: pre;" direction="ltr">1 kg bananas</text></g><g transform="translate(310 409) rotate(0 84.5 9.5)"><text x="0" y="15" font-family="Cascadia, Segoe UI Emoji" font-size="16px" fill="#000000" text-anchor="start" style="white-space: pre;" direction="ltr">2 kg strawberries </text></g><g stroke-linecap="round" transform="translate(279.5 267) rotate(0 7.5 7.5)"><path d="M0 0 L15 0 L15 15 L0 15" stroke="none" stroke-width="0" fill="#82c91e"></path><path d="M0 0 C4.87 0, 9.74 0, 15 0 M0 0 C3.85 0, 7.7 0, 15 0 M15 0 C15 4.98, 15 9.96, 15 15 M15 0 C15 5.26, 15 10.52, 15 15 M15 15 C10.63 15, 6.26 15, 0 15 M15 15 C9.25 15, 3.5 15, 0 15 M0 15 C0 10.16, 0 5.31, 0 0 M0 15 C0 9.23, 0 3.46, 0 0" stroke="#000000" stroke-width="1" fill="none"></path></g><g stroke-linecap="round" transform="translate(279.5 311) rotate(0 7.5 7.5)"><path d="M0 0 L15 0 L15 15 L0 15" stroke="none" stroke-width="0" fill="#82c91e"></path><path d="M0 0 C4.61 0, 9.22 0, 15 0 M0 0 C5.39 0, 10.78 0, 15 0 M15 0 C15 5.47, 15 10.94, 15 15 M15 0 C15 3, 15 6.01, 15 15 M15 15 C11.79 15, 8.58 15, 0 15 M15 15 C9.08 15, 3.17 15, 0 15 M0 15 C0 9.19, 0 3.38, 0 0 M0 15 C0 9.39, 0 3.77, 0 0" stroke="#000000" stroke-width="1" fill="none"></path></g><g transform="translate(311.5 266.5) rotate(0 42 9.5)"><text x="0" y="15" font-family="Cascadia, Segoe UI Emoji" font-size="16px" fill="#000000" text-anchor="start" style="white-space: pre;" direction="ltr">1 kg beef</text></g><g transform="translate(310 312.5) rotate(0 94 9.5)"><text x="0" y="15" font-family="Cascadia, Segoe UI Emoji" font-size="16px" fill="#000000" text-anchor="start" style="white-space: pre;" direction="ltr">3 kg chicken breast </text></g><g transform="translate(308 460) rotate(0 65.5 9.5)"><text x="0" y="15" font-family="Cascadia, Segoe UI Emoji" font-size="16px" fill="#000000" text-anchor="start" style="white-space: pre;" direction="ltr">1 kg red beans</text></g><g stroke-linecap="round" transform="translate(230 12) rotate(0 342 11)"><path d="M0 0 L684 0 L684 22 L0 22" stroke="none" stroke-width="0" fill="#8ecae6"></path><path d="M0 0 C164.69 0, 329.37 0, 684 0 M0 0 C233.5 0, 466.99 0, 684 0 M684 0 C684 8.68, 684 17.36, 684 22 M684 0 C684 7.78, 684 15.56, 684 22 M684 22 C487.03 22, 290.06 22, 0 22 M684 22 C479.56 22, 275.11 22, 0 22 M0 22 C0 15.16, 0 8.33, 0 0 M0 22 C0 14.82, 0 7.63, 0 0" stroke="#000000" stroke-width="1" fill="none"></path></g><g stroke-linecap="round" transform="translate(231 763) rotate(0 341.5 11.5)"><path d="M0 0 L683 0 L683 23 L0 23" stroke="none" stroke-width="0" fill="#8ecae6"></path><path d="M0 0 C189.71 0, 379.43 0, 683 0 M0 0 C252.44 0, 504.89 0, 683 0 M683 0 C683 5.63, 683 11.25, 683 23 M683 0 C683 7.31, 683 14.62, 683 23 M683 23 C434.89 23, 186.78 23, 0 23 M683 23 C482.15 23, 281.29 23, 0 23 M0 23 C0 16.86, 0 10.72, 0 0 M0 23 C0 16.95, 0 10.89, 0 0" stroke="#000000" stroke-width="1" fill="none"></path></g><g stroke-linecap="round" transform="translate(248 220) rotate(0 186.5 258)"><path d="M-0.21 -0.89 C127.76 -2.35, 254.64 -2.09, 373.55 -0.7 M0.03 -0.24 C126.73 -0.78, 254.55 -0.15, 373.43 -0.51 M373.27 0.65 C371.69 135.31, 371.77 272.62, 372.31 515.4 M372.84 0.36 C371.18 128.72, 371.6 257.13, 373.38 515.76 M373.48 515.3 C293.03 517.72, 214.78 518.12, 0.18 514.82 M372.48 515.62 C248.2 517.93, 121.86 517.7, -0.11 516.06 M-0.72 516.38 C1.42 395.1, 1.13 273.55, -0.02 -0.77 M0.28 516.29 C0.29 329.54, -0.05 143.83, -0.22 -0.04" stroke="#0b7285" stroke-width="1" fill="none"></path></g><g stroke-linecap="round" transform="translate(279.25 595.75) rotate(0 7.5 7.5)"><path d="M0 0 C3.35 0, 6.69 0, 15 0 M0 0 C4.26 0, 8.53 0, 15 0 M15 0 C15 4.37, 15 8.74, 15 15 M15 0 C15 5.05, 15 10.1, 15 15 M15 15 C9.95 15, 4.9 15, 0 15 M15 15 C11.89 15, 8.77 15, 0 15 M0 15 C0 11.76, 0 8.52, 0 0 M0 15 C0 10.88, 0 6.76, 0 0" stroke="#000000" stroke-width="1" fill="none"></path></g><g stroke-linecap="round" transform="translate(279.75 644.25) rotate(0 7.5 7.5)"><path d="M0 0 C5.61 0, 11.22 0, 15 0 M0 0 C5.91 0, 11.83 0, 15 0 M15 0 C15 3.38, 15 6.77, 15 15 M15 0 C15 5.2, 15 10.41, 15 15 M15 15 C11.53 15, 8.06 15, 0 15 M15 15 C9.8 15, 4.59 15, 0 15 M0 15 C0 9.15, 0 3.31, 0 0 M0 15 C0 11.61, 0 8.23, 0 0" stroke="#000000" stroke-width="1" fill="none"></path></g><g stroke-linecap="round" transform="translate(279.75 694.25) rotate(0 7.5 7.5)"><path d="M0 0 C3.4 0, 6.8 0, 15 0 M0 0 C3.65 0, 7.29 0, 15 0 M15 0 C15 5.65, 15 11.3, 15 15 M15 0 C15 3.89, 15 7.77, 15 15 M15 15 C10.7 15, 6.4 15, 0 15 M15 15 C11.23 15, 7.45 15, 0 15 M0 15 C0 10.2, 0 5.41, 0 0 M0 15 C0 9.17, 0 3.35, 0 0" stroke="#000000" stroke-width="1" fill="none"></path></g><g stroke-linecap="round" transform="translate(279.75 500.75) rotate(0 7.5 7.5)"><path d="M0 0 L15 0 L15 15 L0 15" stroke="none" stroke-width="0" fill="#82c91e"></path><path d="M0 0 C3.81 0, 7.61 0, 15 0 M0 0 C5.71 0, 11.42 0, 15 0 M15 0 C15 5.07, 15 10.15, 15 15 M15 0 C15 5.1, 15 10.21, 15 15 M15 15 C10.92 15, 6.84 15, 0 15 M15 15 C10.45 15, 5.89 15, 0 15 M0 15 C0 9.2, 0 3.4, 0 0 M0 15 C0 11.67, 0 8.35, 0 0" stroke="#000000" stroke-width="1" fill="none"></path></g><g stroke-linecap="round" transform="translate(279.75 544.75) rotate(0 7.5 7.5)"><path d="M0 0 L15 0 L15 15 L0 15" stroke="none" stroke-width="0" fill="#82c91e"></path><path d="M0 0 C3.73 0, 7.46 0, 15 0 M0 0 C5.2 0, 10.39 0, 15 0 M15 0 C15 5.52, 15 11.04, 15 15 M15 0 C15 5.6, 15 11.2, 15 15 M15 15 C10.11 15, 5.21 15, 0 15 M15 15 C10.06 15, 5.11 15, 0 15 M0 15 C0 9.56, 0 4.11, 0 0 M0 15 C0 10.45, 0 5.9, 0 0" stroke="#000000" stroke-width="1" fill="none"></path></g><g transform="translate(309 500) rotate(0 33 9.5)"><text x="0" y="15" font-family="Cascadia, Segoe UI Emoji" font-size="16px" fill="#000000" text-anchor="start" style="white-space: pre;" direction="ltr">30 eggs</text></g><g transform="translate(309 544) rotate(0 79.5 9.5)"><text x="0" y="15" font-family="Cascadia, Segoe UI Emoji" font-size="16px" fill="#000000" text-anchor="start" style="white-space: pre;" direction="ltr">bottle of ketchup</text></g><g transform="translate(311 594) rotate(0 79.5 9.5)"><text x="0" y="15" font-family="Cascadia, Segoe UI Emoji" font-size="16px" fill="#000000" text-anchor="start" style="white-space: pre;" direction="ltr">5OO gr Mayonnaise</text></g><g stroke-linecap="round" transform="translate(824 50) rotate(0 40.5 25)"><path d="M0 0 C28.45 0, 56.89 0, 81 0 M0 0 C20.15 0, 40.3 0, 81 0 M81 0 C81 10.24, 81 20.48, 81 50 M81 0 C81 11.86, 81 23.73, 81 50 M81 50 C51.25 50, 21.49 50, 0 50 M81 50 C61.11 50, 41.21 50, 0 50 M0 50 C0 39.9, 0 29.79, 0 0 M0 50 C0 33.85, 0 17.7, 0 0" stroke="#000000" stroke-width="1" fill="none"></path></g><g transform="translate(281 187.5) rotate(0 61 9.5)"><text x="0" y="15" font-family="Cascadia, Segoe UI Emoji" font-size="16px" fill="#000000" text-anchor="start" style="white-space: pre;" direction="ltr">Sort list by:</text></g><g stroke-linecap="round" transform="translate(835 57) rotate(0 8.5 8.5)"><path d="M2.71 2.36 C2.71 2.36, 2.71 2.36, 2.71 2.36 M2.71 2.36 C2.71 2.36, 2.71 2.36, 2.71 2.36 M2.45 8.76 C4.77 6.09, 7.09 3.42, 9.67 0.46 M2.45 8.76 C4.27 6.67, 6.09 4.58, 9.67 0.46 M2.85 14.4 C5.89 10.9, 8.93 7.41, 13.34 2.32 M2.85 14.4 C6.46 10.24, 10.07 6.09, 13.34 2.32 M5.87 17.02 C10.27 11.96, 14.67 6.9, 17.02 4.19 M5.87 17.02 C8.13 14.42, 10.39 11.82, 17.02 4.19 M11.51 16.63 C13.74 14.06, 15.97 11.49, 18.73 8.33 M11.51 16.63 C13.72 14.09, 15.92 11.55, 18.73 8.33 M0.97 12.6 C0.97 12.6, 0.97 12.6, 0.97 12.6 M0.97 12.6 C0.97 12.6, 0.97 12.6, 0.97 12.6 M11.14 16.14 C9 14.28, 6.86 12.42, 0.57 6.96 M11.14 16.14 C8.62 13.95, 6.1 11.76, 0.57 6.96 M14.52 13.78 C10.72 10.48, 6.93 7.18, 2.44 3.28 M14.52 13.78 C10.17 10, 5.82 6.22, 2.44 3.28 M17.14 10.76 C13.96 7.99, 10.77 5.22, 5.07 0.27 M17.14 10.76 C12.94 7.11, 8.74 3.46, 5.07 0.27 M17.5 5.78 C14.19 2.9, 10.88 0.02, 9.2 -1.44 M17.5 5.78 C14.79 3.41, 12.07 1.05, 9.2 -1.44" stroke="#12b886" stroke-width="0.5" fill="none"></path><path d="M8.5 0 C10.23 -0.11, 12.57 0.82, 13.96 1.99 C15.36 3.16, 16.55 5.23, 16.87 7.02 C17.19 8.82, 16.77 11.17, 15.86 12.75 C14.95 14.33, 13.12 15.86, 11.41 16.49 C9.7 17.11, 7.3 17.11, 5.59 16.49 C3.88 15.86, 2.05 14.33, 1.14 12.75 C0.23 11.17, -0.19 8.82, 0.13 7.02 C0.45 5.23, 1.64 3.16, 3.04 1.99 C4.43 0.82, 7.59 0.3, 8.5 0 C9.41 -0.3, 8.5 0.03, 8.5 0.17 M8.5 0 C10.23 -0.11, 12.57 0.82, 13.96 1.99 C15.36 3.16, 16.55 5.23, 16.87 7.02 C17.19 8.82, 16.77 11.17, 15.86 12.75 C14.95 14.33, 13.12 15.86, 11.41 16.49 C9.7 17.11, 7.3 17.11, 5.59 16.49 C3.88 15.86, 2.05 14.33, 1.14 12.75 C0.23 11.17, -0.19 8.82, 0.13 7.02 C0.45 5.23, 1.64 3.16, 3.04 1.99 C4.43 0.82, 7.59 0.3, 8.5 0 C9.41 -0.3, 8.5 0.03, 8.5 0.17" stroke="#000000" stroke-width="1" fill="none"></path></g><g transform="translate(825 73) rotate(0 18 12)"><text x="18" y="10" font-family="Cascadia, Segoe UI Emoji" font-size="10.105263157894736px" fill="#000000" text-anchor="middle" style="white-space: pre;" direction="ltr">user</text><text x="18" y="22" font-family="Cascadia, Segoe UI Emoji" font-size="10.105263157894736px" fill="#000000" text-anchor="middle" style="white-space: pre;" direction="ltr"> photo</text></g><g transform="translate(861.5 51) rotate(0 20.84210526315792 6)"><text x="20.842105263157897" y="10" font-family="Cascadia, Segoe UI Emoji" font-size="10.105263157894735px" fill="#000000" text-anchor="middle" style="white-space: pre;" direction="ltr">log out</text></g><g transform="translate(965 154.5) rotate(0 154.5 47.5)"><text x="0" y="15" font-family="Cascadia, Segoe UI Emoji" font-size="16px" fill="#000000" text-anchor="start" style="white-space: pre;" direction="ltr">list will be sorted by </text><text x="0" y="34" font-family="Cascadia, Segoe UI Emoji" font-size="16px" fill="#000000" text-anchor="start" style="white-space: pre;" direction="ltr">* alphabetical</text><text x="0" y="53" font-family="Cascadia, Segoe UI Emoji" font-size="16px" fill="#000000" text-anchor="start" style="white-space: pre;" direction="ltr">* importance</text><text x="0" y="72" font-family="Cascadia, Segoe UI Emoji" font-size="16px" fill="#000000" text-anchor="start" style="white-space: pre;" direction="ltr">* Completed and uncompleted items</text><text x="0" y="91" font-family="Cascadia, Segoe UI Emoji" font-size="16px" fill="#000000" text-anchor="start" style="white-space: pre;" direction="ltr"></text></g><g stroke-linecap="round" transform="translate(543 242.5) rotate(0 23 23)"><path d="M0 0 C18.13 0, 36.26 0, 46 0 M0 0 C16.29 0, 32.59 0, 46 0 M46 0 C46 15.32, 46 30.63, 46 46 M46 0 C46 14.14, 46 28.28, 46 46 M46 46 C29.37 46, 12.74 46, 0 46 M46 46 C29.72 46, 13.44 46, 0 46 M0 46 C0 32.41, 0 18.83, 0 0 M0 46 C0 28.82, 0 11.65, 0 0" stroke="#000000" stroke-width="1" fill="none"></path></g><g stroke-linecap="round" transform="translate(548.0000000000002 244.5) rotate(0 17.181818181818073 14.318181818181728)"><path d="M5.81 3.73 C5.81 3.73, 5.81 3.73, 5.81 3.73 M5.81 3.73 C5.81 3.73, 5.81 3.73, 5.81 3.73 M2.27 13.9 C5.48 10.2, 8.69 6.51, 13.42 1.07 M2.27 13.9 C6.05 9.55, 9.83 5.2, 13.42 1.07 M3.32 18.79 C8.34 13.01, 13.37 7.23, 18.41 1.43 M3.32 18.79 C6.76 14.83, 10.2 10.87, 18.41 1.43 M4.37 23.67 C8.27 19.19, 12.16 14.71, 22.74 2.54 M4.37 23.67 C10.36 16.78, 16.35 9.89, 22.74 2.54 M8.05 25.54 C14.38 18.26, 20.71 10.98, 27.07 3.66 M8.05 25.54 C12.17 20.8, 16.29 16.06, 27.07 3.66 M11.06 28.17 C17.97 20.22, 24.88 12.27, 30.75 5.53 M11.06 28.17 C18.93 19.12, 26.8 10.06, 30.75 5.53 M16.71 27.77 C23.1 20.42, 29.49 13.07, 33.11 8.91 M16.71 27.77 C22.86 20.7, 29.01 13.62, 33.11 8.91 M21.69 28.13 C25.07 24.25, 28.44 20.37, 34.82 13.04 M21.69 28.13 C25.91 23.28, 30.13 18.43, 34.82 13.04 M2.43 21.59 C2.43 21.59, 2.43 21.59, 2.43 21.59 M2.43 21.59 C2.43 21.59, 2.43 21.59, 2.43 21.59 M13.36 25.79 C10.29 23.12, 7.22 20.45, 1.28 15.29 M13.36 25.79 C9.38 22.33, 5.39 18.86, 1.28 15.29 M19 25.39 C12.09 19.38, 5.17 13.37, 1.64 10.3 M19 25.39 C14.13 21.16, 9.25 16.92, 1.64 10.3 M25.4 25.66 C20.37 21.28, 15.33 16.9, 4.27 7.29 M25.4 25.66 C18.15 19.36, 10.91 13.06, 4.27 7.29 M28.78 23.29 C22.17 17.54, 15.55 11.8, 6.14 3.61 M28.78 23.29 C21.69 17.13, 14.61 10.97, 6.14 3.61 M32.16 20.93 C25.68 15.3, 19.21 9.67, 8.76 0.59 M32.16 20.93 C23.83 13.69, 15.5 6.45, 8.76 0.59 M33.27 16.6 C26.63 10.82, 19.98 5.05, 12.89 -1.12 M33.27 16.6 C27.47 11.55, 21.67 6.51, 12.89 -1.12 M34.39 12.27 C31.07 9.38, 27.75 6.49, 18.54 -1.51 M34.39 12.27 C30.54 8.92, 26.69 5.58, 18.54 -1.51" stroke="#12b886" stroke-width="0.5" fill="none"></path><path d="M17.18 0 C20.68 -0.18, 25.41 1.38, 28.23 3.35 C31.05 5.32, 33.46 8.81, 34.1 11.83 C34.74 14.85, 33.9 18.82, 32.06 21.48 C30.22 24.13, 26.52 26.72, 23.06 27.77 C19.6 28.82, 14.76 28.82, 11.31 27.77 C7.85 26.72, 4.14 24.13, 2.3 21.48 C0.46 18.82, -0.38 14.85, 0.26 11.83 C0.9 8.81, 3.32 5.32, 6.14 3.35 C8.96 1.38, 15.34 0.51, 17.18 0 C19.02 -0.51, 17.18 0.05, 17.18 0.29 M17.18 0 C20.68 -0.18, 25.41 1.38, 28.23 3.35 C31.05 5.32, 33.46 8.81, 34.1 11.83 C34.74 14.85, 33.9 18.82, 32.06 21.48 C30.22 24.13, 26.52 26.72, 23.06 27.77 C19.6 28.82, 14.76 28.82, 11.31 27.77 C7.85 26.72, 4.14 24.13, 2.3 21.48 C0.46 18.82, -0.38 14.85, 0.26 11.83 C0.9 8.81, 3.32 5.32, 6.14 3.35 C8.96 1.38, 15.34 0.51, 17.18 0 C19.02 -0.51, 17.18 0.05, 17.18 0.29" stroke="#000000" stroke-width="1" fill="none"></path></g><g transform="translate(545.5 272.909090909091) rotate(0 19.291866028708057 6.545454545454504)"><text x="19.291866028708032" y="10.090909090909019" font-family="Cascadia, Segoe UI Emoji" font-size="11.023923444976019px" fill="#000000" text-anchor="middle" style="white-space: pre;" direction="ltr"> photo</text></g><g stroke-linecap="round"><g transform="translate(592.7750563793461 264.7568934623604) rotate(0 180.65593084363172 -0.8780610001153661)"><path d="M0 0 C60.22 -0.29, 301.09 -1.46, 361.31 -1.76 M0 0 C60.22 -0.29, 301.09 -1.46, 361.31 -1.76" stroke="#000000" stroke-width="1" fill="none"></path></g><g transform="translate(592.7750563793461 264.7568934623604) rotate(0 180.65593084363172 -0.8780610001153661)"><path d="M333.17 8.64 C340.99 5.75, 348.81 2.86, 361.31 -1.76 M333.17 8.64 C344.02 4.63, 354.86 0.63, 361.31 -1.76" stroke="#000000" stroke-width="1" fill="none"></path></g><g transform="translate(592.7750563793461 264.7568934623604) rotate(0 180.65593084363172 -0.8780610001153661)"><path d="M333.07 -11.88 C340.92 -9.07, 348.76 -6.26, 361.31 -1.76 M333.07 -11.88 C343.96 -7.98, 354.84 -4.08, 361.31 -1.76" stroke="#000000" stroke-width="1" fill="none"></path></g></g><g transform="translate(966 255.5) rotate(0 94 9.5)"><text x="0" y="15" font-family="Cascadia, Segoe UI Emoji" font-size="16px" fill="#000000" text-anchor="start" style="white-space: pre;" direction="ltr">Photo for references</text></g><g stroke-linecap="round"><g transform="translate(418 197) rotate(0 265 2.5)"><path d="M0 0 C88.33 0.83, 441.67 4.17, 530 5 M0 0 C88.33 0.83, 441.67 4.17, 530 5" stroke="#000000" stroke-width="1" fill="none"></path></g><g transform="translate(418 197) rotate(0 265 2.5)"><path d="M501.71 14.99 C511.94 11.38, 522.16 7.77, 530 5 M501.71 14.99 C508.74 12.51, 515.76 10.03, 530 5" stroke="#000000" stroke-width="1" fill="none"></path></g><g transform="translate(418 197) rotate(0 265 2.5)"><path d="M501.91 -5.53 C512.06 -1.72, 522.21 2.08, 530 5 M501.91 -5.53 C508.88 -2.91, 515.86 -0.3, 530 5" stroke="#000000" stroke-width="1" fill="none"></path></g></g><g stroke-linecap="round"><g transform="translate(893 82) rotate(0 52 -20)"><path d="M0 0 C17.33 -6.67, 86.67 -33.33, 104 -40 M0 0 C17.33 -6.67, 86.67 -33.33, 104 -40" stroke="#000000" stroke-width="1" fill="none"></path></g><g transform="translate(893 82) rotate(0 52 -20)"><path d="M81.37 -20.3 C88.44 -26.46, 95.51 -32.61, 104 -40 M81.37 -20.3 C89.57 -27.44, 97.76 -34.57, 104 -40" stroke="#000000" stroke-width="1" fill="none"></path></g><g transform="translate(893 82) rotate(0 52 -20)"><path d="M74 -39.46 C83.37 -39.63, 92.74 -39.8, 104 -40 M74 -39.46 C84.87 -39.65, 95.73 -39.85, 104 -40" stroke="#000000" stroke-width="1" fill="none"></path></g></g><g stroke-linecap="round"><g transform="translate(415 94) rotate(0 -110.5 1)"><path d="M0 0 C-36.83 0.33, -184.17 1.67, -221 2 M0 0 C-36.83 0.33, -184.17 1.67, -221 2" stroke="#000000" stroke-width="1" fill="none"></path></g><g transform="translate(415 94) rotate(0 -110.5 1)"><path d="M-192.9 -8.52 C-204.11 -4.32, -215.32 -0.13, -221 2 M-192.9 -8.52 C-199.06 -6.21, -205.21 -3.91, -221 2" stroke="#000000" stroke-width="1" fill="none"></path></g><g transform="translate(415 94) rotate(0 -110.5 1)"><path d="M-192.72 12.01 C-204 8.01, -215.28 4.02, -221 2 M-192.72 12.01 C-198.91 9.81, -205.1 7.62, -221 2" stroke="#000000" stroke-width="1" fill="none"></path></g></g><g transform="translate(129 87.5) rotate(0 23.5 9.5)"><text x="0" y="15" font-family="Cascadia, Segoe UI Emoji" font-size="16px" fill="#000000" text-anchor="start" style="white-space: pre;" direction="ltr">Title</text></g><g stroke-linecap="round"><g transform="translate(293 156) rotate(0 -49 -0.5)"><path d="M0 0 C-16.33 -0.17, -81.67 -0.83, -98 -1 M0 0 C-16.33 -0.17, -81.67 -0.83, -98 -1" stroke="#000000" stroke-width="1" fill="none"></path></g><g transform="translate(293 156) rotate(0 -49 -0.5)"><path d="M-69.71 -10.97 C-80.31 -7.24, -90.91 -3.5, -98 -1 M-69.71 -10.97 C-77.66 -8.17, -85.62 -5.36, -98 -1" stroke="#000000" stroke-width="1" fill="none"></path></g><g transform="translate(293 156) rotate(0 -49 -0.5)"><path d="M-69.92 9.55 C-80.44 5.6, -90.96 1.64, -98 -1 M-69.92 9.55 C-77.82 6.58, -85.71 3.61, -98 -1" stroke="#000000" stroke-width="1" fill="none"></path></g></g><g transform="translate(128 146.5) rotate(0 23.5 9.5)"><text x="0" y="15" font-family="Cascadia, Segoe UI Emoji" font-size="16px" fill="#000000" text-anchor="start" style="white-space: pre;" direction="ltr">Input</text></g><g stroke-linecap="round"><g transform="translate(769 156) rotate(0 158 -23.5)"><path d="M0 0 C52.67 -7.83, 263.33 -39.17, 316 -47 M0 0 C52.67 -7.83, 263.33 -39.17, 316 -47" stroke="#000000" stroke-width="1" fill="none"></path></g><g transform="translate(769 156) rotate(0 158 -23.5)"><path d="M289.63 -32.7 C299.8 -38.22, 309.98 -43.74, 316 -47 M289.63 -32.7 C299.29 -37.94, 308.95 -43.18, 316 -47" stroke="#000000" stroke-width="1" fill="none"></path></g><g transform="translate(769 156) rotate(0 158 -23.5)"><path d="M286.61 -53 C297.95 -50.69, 309.29 -48.37, 316 -47 M286.61 -53 C297.38 -50.8, 308.15 -48.6, 316 -47" stroke="#000000" stroke-width="1" fill="none"></path></g></g><g transform="translate(1096 86.5) rotate(0 89 19)"><text x="0" y="15" font-family="Cascadia, Segoe UI Emoji" font-size="16px" fill="#000000" text-anchor="start" style="white-space: pre;" direction="ltr">Add and remove </text><text x="0" y="34" font-family="Cascadia, Segoe UI Emoji" font-size="16px" fill="#000000" text-anchor="start" style="white-space: pre;" direction="ltr">interactive buttons</text></g><g stroke-linecap="round" transform="translate(525 234) rotate(0 39 243.5)"><path d="M0 0 C23.27 0, 46.54 0, 78 0 M0 0 C25.39 0, 50.79 0, 78 0 M78 0 C78 153.75, 78 307.5, 78 487 M78 0 C78 143.36, 78 286.72, 78 487 M78 487 C55.92 487, 33.84 487, 0 487 M78 487 C52.22 487, 26.43 487, 0 487 M0 487 C0 320.16, 0 153.31, 0 0 M0 487 C0 344.75, 0 202.51, 0 0" stroke="#000000" stroke-width="1" fill="none"></path></g><g transform="translate(1008 24.5) rotate(0 136 9.5)"><text x="0" y="15" font-family="Cascadia, Segoe UI Emoji" font-size="16px" fill="#000000" text-anchor="start" style="white-space: pre;" direction="ltr">user photo and log out button</text></g><g stroke-linecap="round"><g transform="translate(249 398) rotate(0 -32 -1.5)"><path d="M0 0 C-10.67 -0.5, -53.33 -2.5, -64 -3 M0 0 C-10.67 -0.5, -53.33 -2.5, -64 -3" stroke="#000000" stroke-width="1" fill="none"></path></g><g transform="translate(249 398) rotate(0 -32 -1.5)"><path d="M-35.36 -11.93 C-43.14 -9.5, -50.93 -7.08, -64 -3 M-35.36 -11.93 C-46.26 -8.53, -57.17 -5.13, -64 -3" stroke="#000000" stroke-width="1" fill="none"></path></g><g transform="translate(249 398) rotate(0 -32 -1.5)"><path d="M-36.32 8.57 C-43.84 5.42, -51.37 2.28, -64 -3 M-36.32 8.57 C-46.86 4.17, -57.4 -0.24, -64 -3" stroke="#000000" stroke-width="1" fill="none"></path></g></g><g transform="translate(120 381.5) rotate(0 19 9.5)"><text x="0" y="15" font-family="Cascadia, Segoe UI Emoji" font-size="16px" fill="#000000" text-anchor="start" style="white-space: pre;" direction="ltr">List</text></g><g stroke-linecap="round"><g transform="translate(281 276) rotate(0 -47.5 0)"><path d="M0 0 C-15.83 0, -79.17 0, -95 0 M0 0 C-15.83 0, -79.17 0, -95 0" stroke="#000000" stroke-width="1" fill="none"></path></g><g transform="translate(281 276) rotate(0 -47.5 0)"><path d="M-66.81 -10.26 C-76.7 -6.66, -86.58 -3.06, -95 0 M-66.81 -10.26 C-77.58 -6.34, -88.35 -2.42, -95 0" stroke="#000000" stroke-width="1" fill="none"></path></g><g transform="translate(281 276) rotate(0 -47.5 0)"><path d="M-66.81 10.26 C-76.7 6.66, -86.58 3.06, -95 0 M-66.81 10.26 C-77.58 6.34, -88.35 2.42, -95 0" stroke="#000000" stroke-width="1" fill="none"></path></g></g><g transform="translate(10 259.42857142857144) rotate(0 75.5 21)"><text x="0" y="17" font-family="Cascadia, Segoe UI Emoji" font-size="17.142857142857142px" fill="#000000" text-anchor="start" style="white-space: pre;" direction="ltr">Marked #82c91e </text><text x="0" y="38" font-family="Cascadia, Segoe UI Emoji" font-size="17.142857142857142px" fill="#000000" text-anchor="start" style="white-space: pre;" direction="ltr">color as done</text></g><g stroke-linecap="round"><g transform="translate(282 467) rotate(0 -51 0)"><path d="M0 0 C-17 0, -85 0, -102 0 M0 0 C-17 0, -85 0, -102 0" stroke="#000000" stroke-width="1" fill="none"></path></g><g transform="translate(282 467) rotate(0 -51 0)"><path d="M-73.81 -10.26 C-80.03 -8, -86.25 -5.73, -102 0 M-73.81 -10.26 C-83.37 -6.78, -92.92 -3.3, -102 0" stroke="#000000" stroke-width="1" fill="none"></path></g><g transform="translate(282 467) rotate(0 -51 0)"><path d="M-73.81 10.26 C-80.03 8, -86.25 5.73, -102 0 M-73.81 10.26 C-83.37 6.78, -92.92 3.3, -102 0" stroke="#000000" stroke-width="1" fill="none"></path></g></g><g transform="translate(48 448.5) rotate(0 65.5 19)"><text x="0" y="15" font-family="Cascadia, Segoe UI Emoji" font-size="16px" fill="#000000" text-anchor="start" style="white-space: pre;" direction="ltr">Blank item is </text><text x="0" y="34" font-family="Cascadia, Segoe UI Emoji" font-size="16px" fill="#000000" text-anchor="start" style="white-space: pre;" direction="ltr">not done </text></g><g stroke-linecap="round" transform="translate(641 280) rotate(0 123 113)"><path d="M0 0 C0 0, 0 0, 0 0 M0 0 C0 0, 0 0, 0 0 M-0.26 6.4 C0.99 4.95, 2.25 3.51, 4.99 0.36 M-0.26 6.4 C1.81 4.02, 3.87 1.64, 4.99 0.36 M0.13 12.04 C4.16 7.4, 8.2 2.77, 10.63 -0.03 M0.13 12.04 C4.29 7.26, 8.45 2.48, 10.63 -0.03 M-0.13 18.44 C4.53 13.08, 9.18 7.73, 15.62 0.33 M-0.13 18.44 C4.95 12.6, 10.03 6.75, 15.62 0.33 M0.27 24.08 C7.54 15.71, 14.82 7.34, 21.26 -0.07 M0.27 24.08 C6.03 17.45, 11.8 10.82, 21.26 -0.07 M0 30.48 C5.46 24.21, 10.91 17.94, 26.25 0.29 M0 30.48 C8.9 20.25, 17.79 10.02, 26.25 0.29 M-0.26 36.88 C10.35 24.67, 20.96 12.47, 31.89 -0.1 M-0.26 36.88 C6.38 29.24, 13.02 21.6, 31.89 -0.1 M0.14 42.52 C8.42 32.99, 16.7 23.47, 36.88 0.26 M0.14 42.52 C14.54 25.95, 28.94 9.39, 36.88 0.26 M-0.12 48.92 C14.74 31.82, 29.59 14.73, 42.52 -0.14 M-0.12 48.92 C10.61 36.58, 21.34 24.23, 42.52 -0.14 M0.27 54.56 C18.09 34.07, 35.9 13.57, 47.51 0.22 M0.27 54.56 C9.84 43.55, 19.41 32.54, 47.51 0.22 M0.01 60.96 C15.66 42.96, 31.3 24.96, 53.15 -0.17 M0.01 60.96 C18.16 40.08, 36.32 19.19, 53.15 -0.17 M-0.25 67.36 C15.48 49.26, 31.21 31.16, 58.14 0.19 M-0.25 67.36 C15.14 49.66, 30.52 31.95, 58.14 0.19 M0.14 73 C21.69 48.22, 43.23 23.43, 63.78 -0.21 M0.14 73 C17.98 52.48, 35.81 31.97, 63.78 -0.21 M-0.12 79.4 C19.64 56.66, 39.41 33.93, 68.77 0.15 M-0.12 79.4 C16.37 60.43, 32.86 41.46, 68.77 0.15 M0.28 85.04 C24.7 56.95, 49.12 28.85, 74.41 -0.24 M0.28 85.04 C25.71 55.79, 51.14 26.53, 74.41 -0.24 M0.01 91.44 C31.16 55.62, 62.3 19.79, 79.4 0.12 M0.01 91.44 C29.12 57.96, 58.22 24.48, 79.4 0.12 M-0.25 97.84 C33.35 59.19, 66.94 20.54, 85.04 -0.28 M-0.25 97.84 C23.41 70.62, 47.07 43.41, 85.04 -0.28 M0.15 103.48 C29.49 69.73, 58.83 35.97, 90.03 0.08 M0.15 103.48 C22.94 77.27, 45.72 51.05, 90.03 0.08 M-0.11 109.88 C32.16 72.76, 64.43 35.63, 95.67 -0.31 M-0.11 109.88 C28.87 76.53, 57.86 43.19, 95.67 -0.31 M0.28 115.52 C21.2 91.46, 42.12 67.39, 100.66 0.05 M0.28 115.52 C28.43 83.14, 56.58 50.76, 100.66 0.05 M0.02 121.92 C25.68 92.4, 51.34 62.88, 106.3 -0.34 M0.02 121.92 C32.95 84.04, 65.88 46.15, 106.3 -0.34 M-0.24 128.32 C37.15 85.3, 74.54 42.29, 111.29 0.02 M-0.24 128.32 C44.3 77.07, 88.84 25.83, 111.29 0.02 M0.15 133.96 C31.36 98.06, 62.57 62.15, 116.27 0.38 M0.15 133.96 C30.59 98.94, 61.03 63.93, 116.27 0.38 M-0.11 140.36 C46.53 86.7, 93.17 33.05, 121.92 -0.02 M-0.11 140.36 C40.69 93.42, 81.49 46.48, 121.92 -0.02 M0.29 146 C32.97 108.4, 65.66 70.8, 126.91 0.34 M0.29 146 C50.22 88.55, 100.16 31.11, 126.91 0.34 M0.02 152.4 C26.89 121.49, 53.75 90.59, 132.55 -0.05 M0.02 152.4 C50.54 94.28, 101.06 36.16, 132.55 -0.05 M-0.24 158.8 C44.82 106.97, 89.87 55.14, 137.54 0.31 M-0.24 158.8 C29.16 124.98, 58.56 91.16, 137.54 0.31 M0.16 164.44 C32.8 126.89, 65.44 89.34, 143.18 -0.09 M0.16 164.44 C29.86 130.27, 59.56 96.1, 143.18 -0.09 M-0.1 170.84 C40.07 124.63, 80.24 78.42, 148.17 0.27 M-0.1 170.84 C44.05 120.04, 88.21 69.24, 148.17 0.27 M0.29 176.48 C41.49 129.09, 82.68 81.7, 153.81 -0.12 M0.29 176.48 C39.18 131.74, 78.07 87, 153.81 -0.12 M0.03 182.88 C57.75 116.47, 115.48 50.07, 158.8 0.24 M0.03 182.88 C47.37 128.41, 94.72 73.95, 158.8 0.24 M-0.23 189.27 C50.95 130.39, 102.14 71.51, 164.44 -0.16 M-0.23 189.27 C54.05 126.83, 108.34 64.38, 164.44 -0.16 M0.16 194.92 C60.55 125.45, 120.93 55.98, 169.43 0.2 M0.16 194.92 C57.19 129.31, 114.23 63.7, 169.43 0.2 M-0.1 201.32 C56.23 136.52, 112.56 71.72, 175.07 -0.19 M-0.1 201.32 C38.44 156.98, 76.98 112.65, 175.07 -0.19 M0.3 206.96 C50.7 148.97, 101.11 90.98, 180.06 0.17 M0.3 206.96 C37.75 163.88, 75.2 120.79, 180.06 0.17 M0.03 213.36 C45.44 161.13, 90.84 108.9, 185.7 -0.23 M0.03 213.36 C51.95 153.63, 103.87 93.91, 185.7 -0.23 M-0.23 219.75 C46.09 166.47, 92.4 113.2, 190.69 0.13 M-0.23 219.75 C72.04 136.62, 144.31 53.48, 190.69 0.13 M0.17 225.4 C39.76 179.85, 79.36 134.29, 196.33 -0.26 M0.17 225.4 C46.38 172.24, 92.59 119.08, 196.33 -0.26 M2.53 228.78 C48.15 176.3, 93.77 123.82, 201.32 0.1 M2.53 228.78 C79.19 140.59, 155.84 52.41, 201.32 0.1 M8.17 228.38 C66.57 161.2, 124.97 94.02, 206.96 -0.3 M8.17 228.38 C85.07 139.92, 161.98 51.45, 206.96 -0.3 M13.16 228.74 C73.87 158.91, 134.57 89.07, 211.95 0.06 M13.16 228.74 C60.76 173.98, 108.36 119.23, 211.95 0.06 M18.8 228.35 C98.05 137.19, 177.29 46.02, 217.59 -0.33 M18.8 228.35 C59.42 181.63, 100.03 134.91, 217.59 -0.33 M23.79 228.71 C66.08 180.06, 108.37 131.41, 222.58 0.03 M23.79 228.71 C67.89 177.98, 111.98 127.25, 222.58 0.03 M29.43 228.31 C103.58 143.02, 177.72 57.73, 228.22 -0.36 M29.43 228.31 C95.16 152.7, 160.89 77.08, 228.22 -0.36 M34.42 228.67 C108.39 143.58, 182.35 58.49, 233.21 0 M34.42 228.67 C91.36 163.17, 148.3 97.67, 233.21 0 M40.06 228.28 C89.87 170.98, 139.68 113.68, 238.19 0.36 M40.06 228.28 C115.45 141.55, 190.84 54.82, 238.19 0.36 M45.05 228.64 C101.13 164.12, 157.22 99.6, 243.84 -0.04 M45.05 228.64 C96.49 169.46, 147.93 110.29, 243.84 -0.04 M50.69 228.24 C99.24 172.4, 147.78 116.56, 247.51 1.83 M50.69 228.24 C117.68 151.19, 184.66 74.13, 247.51 1.83 M55.68 228.6 C117.13 157.92, 178.57 87.23, 247.91 7.47 M55.68 228.6 C101.1 176.35, 146.52 124.1, 247.91 7.47 M61.32 228.21 C126.45 153.28, 191.59 78.36, 247.64 13.87 M61.32 228.21 C129.98 149.23, 198.63 70.25, 247.64 13.87 M66.31 228.57 C128.03 157.57, 189.74 86.58, 248.04 19.51 M66.31 228.57 C136.87 147.41, 207.42 66.24, 248.04 19.51 M71.95 228.17 C129.83 161.59, 187.71 95.01, 247.78 25.91 M71.95 228.17 C141.43 148.25, 210.91 68.32, 247.78 25.91 M76.94 228.53 C123.86 174.57, 170.77 120.6, 247.52 32.31 M76.94 228.53 C137.63 158.72, 198.33 88.9, 247.52 32.31 M82.58 228.14 C137.57 164.89, 192.56 101.63, 247.91 37.95 M82.58 228.14 C135.9 166.8, 189.22 105.47, 247.91 37.95 M87.57 228.5 C141.54 166.42, 195.5 104.34, 247.65 44.35 M87.57 228.5 C127.92 182.09, 168.26 135.68, 247.65 44.35 M93.21 228.11 C137.35 177.33, 181.49 126.56, 248.04 49.99 M93.21 228.11 C127.97 188.13, 162.72 148.15, 248.04 49.99 M98.2 228.47 C130.39 191.44, 162.58 154.41, 247.78 56.39 M98.2 228.47 C137.36 183.41, 176.53 138.36, 247.78 56.39 M103.84 228.07 C145.5 180.15, 187.16 132.23, 247.52 62.79 M103.84 228.07 C153.68 170.74, 203.52 113.4, 247.52 62.79 M108.83 228.43 C147.31 184.17, 185.78 139.91, 247.92 68.43 M108.83 228.43 C142.48 189.72, 176.13 151.01, 247.92 68.43 M113.82 228.79 C144.43 193.57, 175.05 158.36, 247.65 74.83 M113.82 228.79 C154.97 181.45, 196.13 134.1, 247.65 74.83 M119.46 228.4 C166.66 174.1, 213.86 119.8, 248.05 80.47 M119.46 228.4 C160.75 180.9, 202.04 133.4, 248.05 80.47 M124.45 228.76 C168.98 177.53, 213.52 126.3, 247.79 86.87 M124.45 228.76 C160.95 186.77, 197.45 144.78, 247.79 86.87 M130.09 228.36 C154.77 199.98, 179.44 171.59, 247.53 93.27 M130.09 228.36 C165.29 187.86, 200.5 147.37, 247.53 93.27 M135.08 228.72 C171.71 186.58, 208.35 144.43, 247.92 98.91 M135.08 228.72 C165.95 193.2, 196.83 157.69, 247.92 98.91 M140.72 228.33 C162.92 202.79, 185.12 177.25, 247.66 105.31 M140.72 228.33 C167.5 197.52, 194.28 166.71, 247.66 105.31 M145.71 228.69 C180.04 189.2, 214.36 149.71, 248.05 110.95 M145.71 228.69 C183.98 184.66, 222.25 140.64, 248.05 110.95 M151.35 228.29 C174.45 201.73, 197.54 175.16, 247.79 117.35 M151.35 228.29 C181.95 193.09, 212.56 157.89, 247.79 117.35 M156.34 228.65 C191.66 188.02, 226.98 147.39, 247.53 123.75 M156.34 228.65 C183.88 196.96, 211.43 165.28, 247.53 123.75 M161.98 228.26 C184.65 202.18, 207.32 176.1, 247.92 129.39 M161.98 228.26 C189.19 196.96, 216.4 165.65, 247.92 129.39 M166.97 228.62 C187.34 205.19, 207.71 181.75, 247.66 135.79 M166.97 228.62 C194.01 197.51, 221.06 166.39, 247.66 135.79 M172.61 228.22 C196.5 200.74, 220.4 173.25, 248.06 141.43 M172.61 228.22 C197.99 199.03, 223.37 169.84, 248.06 141.43 M177.6 228.58 C197.33 205.89, 217.06 183.19, 247.8 147.83 M177.6 228.58 C200.21 202.57, 222.83 176.55, 247.8 147.83 M183.24 228.19 C203.34 205.07, 223.43 181.96, 247.54 154.23 M183.24 228.19 C204.87 203.3, 226.51 178.42, 247.54 154.23 M188.23 228.55 C200.26 214.7, 212.3 200.86, 247.93 159.87 M188.23 228.55 C205.18 209.05, 222.13 189.55, 247.93 159.87 M193.87 228.16 C206.98 213.07, 220.09 197.99, 247.67 166.27 M193.87 228.16 C212.63 206.57, 231.39 184.99, 247.67 166.27 M198.86 228.52 C214.63 210.38, 230.4 192.24, 248.06 171.91 M198.86 228.52 C209.35 216.45, 219.84 204.38, 248.06 171.91 M204.5 228.12 C220.99 209.15, 237.48 190.18, 247.8 178.31 M204.5 228.12 C216.49 214.33, 228.47 200.55, 247.8 178.31 M209.49 228.48 C221.75 214.37, 234.02 200.26, 247.54 184.71 M209.49 228.48 C219.94 216.46, 230.38 204.44, 247.54 184.71 M215.13 228.09 C224.07 217.8, 233.01 207.52, 247.93 190.35 M215.13 228.09 C224.85 216.91, 234.56 205.73, 247.93 190.35 M220.12 228.45 C227.56 219.89, 234.99 211.33, 247.67 196.75 M220.12 228.45 C225.75 221.96, 231.39 215.48, 247.67 196.75 M225.11 228.81 C233.04 219.68, 240.98 210.55, 248.07 202.39 M225.11 228.81 C230.95 222.09, 236.79 215.37, 248.07 202.39 M230.75 228.41 C234.23 224.41, 237.71 220.4, 247.81 208.79 M230.75 228.41 C236.06 222.3, 241.37 216.19, 247.81 208.79 M235.74 228.77 C239.34 224.63, 242.94 220.48, 247.54 215.19 M235.74 228.77 C238.93 225.1, 242.13 221.42, 247.54 215.19 M241.38 228.38 C243.63 225.78, 245.89 223.19, 247.94 220.83 M241.38 228.38 C243.19 226.3, 244.99 224.22, 247.94 220.83 M-0.2 225.82 C-0.2 225.82, -0.2 225.82, -0.2 225.82 M-0.2 225.82 C-0.2 225.82, -0.2 225.82, -0.2 225.82 M6.19 226.08 C4.47 224.58, 2.74 223.08, 0.16 220.84 M6.19 226.08 C4.09 224.26, 1.99 222.43, 0.16 220.84 M11.84 225.69 C8.3 222.61, 4.76 219.54, -0.24 215.19 M11.84 225.69 C8.05 222.4, 4.26 219.11, -0.24 215.19 M18.24 225.95 C14.49 222.69, 10.74 219.44, 0.12 210.21 M18.24 225.95 C11.81 220.36, 5.38 214.77, 0.12 210.21 M24.63 226.21 C16.6 219.23, 8.57 212.25, -0.27 204.56 M24.63 226.21 C16.2 218.89, 7.78 211.56, -0.27 204.56 M30.28 225.82 C22.47 219.03, 14.66 212.24, 0.09 199.58 M30.28 225.82 C21.51 218.2, 12.74 210.57, 0.09 199.58 M36.67 226.08 C27.84 218.4, 19 210.72, -0.31 193.93 M36.67 226.08 C28.64 219.1, 20.61 212.12, -0.31 193.93 M42.32 225.69 C26.54 211.97, 10.77 198.26, 0.05 188.95 M42.32 225.69 C28.68 213.83, 15.03 201.97, 0.05 188.95 M48.71 225.95 C32.11 211.52, 15.51 197.09, -0.34 183.3 M48.71 225.95 C37.5 216.2, 26.29 206.46, -0.34 183.3 M55.11 226.21 C40.78 213.75, 26.44 201.28, 0.02 178.32 M55.11 226.21 C33.55 207.46, 11.98 188.71, 0.02 178.32 M60.76 225.81 C36.65 204.86, 12.54 183.9, -0.38 172.67 M60.76 225.81 C41.01 208.65, 21.26 191.48, -0.38 172.67 M67.15 226.08 C53.22 213.96, 39.29 201.85, -0.02 167.69 M67.15 226.08 C53.18 213.93, 39.21 201.78, -0.02 167.69 M72.8 225.68 C54.06 209.39, 35.32 193.1, 0.34 162.7 M72.8 225.68 C49.39 205.33, 25.98 184.98, 0.34 162.7 M79.19 225.94 C56.95 206.61, 34.71 187.27, -0.05 157.06 M79.19 225.94 C58.93 208.32, 38.66 190.71, -0.05 157.06 M85.59 226.2 C63.31 206.84, 41.04 187.47, 0.31 152.07 M85.59 226.2 C58.05 202.26, 30.5 178.32, 0.31 152.07 M91.24 225.81 C61.65 200.09, 32.06 174.37, -0.08 146.43 M91.24 225.81 C55.63 194.85, 20.02 163.9, -0.08 146.43 M97.63 226.07 C77.17 208.28, 56.71 190.5, 0.28 141.44 M97.63 226.07 C69.51 201.62, 41.39 177.18, 0.28 141.44 M103.28 225.68 C66.11 193.37, 28.94 161.06, -0.12 135.8 M103.28 225.68 C78.7 204.31, 54.13 182.95, -0.12 135.8 M109.67 225.94 C66.82 188.68, 23.97 151.43, 0.24 130.81 M109.67 225.94 C81.35 201.32, 53.03 176.7, 0.24 130.81 M116.07 226.2 C71.05 187.06, 26.03 147.93, -0.15 125.17 M116.07 226.2 C69.82 186, 23.58 145.79, -0.15 125.17 M121.71 225.8 C76.77 186.74, 31.83 147.67, 0.21 120.18 M121.71 225.8 C80.08 189.61, 38.44 153.41, 0.21 120.18 M128.11 226.07 C78.59 183.02, 29.07 139.97, -0.19 114.54 M128.11 226.07 C97.13 199.13, 66.14 172.19, -0.19 114.54 M134.51 226.33 C82.47 181.09, 30.42 135.85, 0.17 109.55 M134.51 226.33 C91.21 188.69, 47.91 151.05, 0.17 109.55 M140.15 225.93 C96.37 187.87, 52.58 149.81, -0.22 103.91 M140.15 225.93 C96.47 187.96, 52.78 149.98, -0.22 103.91 M146.55 226.19 C93.15 179.77, 39.74 133.35, 0.14 98.92 M146.55 226.19 C109.75 194.21, 72.95 162.22, 0.14 98.92 M152.19 225.8 C106.5 186.08, 60.8 146.36, -0.26 93.28 M152.19 225.8 C103.17 183.18, 54.14 140.57, -0.26 93.28 M158.59 226.06 C110.95 184.65, 63.31 143.23, 0.1 88.29 M158.59 226.06 C118.13 190.89, 77.67 155.71, 0.1 88.29 M164.99 226.32 C121.66 188.65, 78.32 150.98, -0.29 82.65 M164.99 226.32 C105.64 174.73, 46.28 123.13, -0.29 82.65 M170.63 225.93 C124.28 185.64, 77.94 145.35, 0.07 77.66 M170.63 225.93 C114.07 176.76, 57.51 127.59, 0.07 77.66 M177.03 226.19 C125.57 181.46, 74.12 136.73, -0.33 72.02 M177.03 226.19 C126.99 182.69, 76.95 139.19, -0.33 72.02 M182.67 225.79 C140.1 188.78, 97.52 151.77, 0.03 67.03 M182.67 225.79 C118.83 170.3, 54.99 114.8, 0.03 67.03 M189.07 226.06 C141.22 184.46, 93.38 142.87, -0.36 61.38 M189.07 226.06 C128.28 173.21, 67.48 120.36, -0.36 61.38 M195.47 226.32 C152.9 189.31, 110.33 152.3, 0 56.4 M195.47 226.32 C146.54 183.78, 97.61 141.25, 0 56.4 M201.11 225.92 C121.48 156.7, 41.86 87.48, 0.36 51.41 M201.11 225.92 C145.4 177.49, 89.68 129.06, 0.36 51.41 M207.51 226.18 C137.58 165.39, 67.65 104.61, -0.03 45.77 M207.51 226.18 C156.27 181.64, 105.03 137.1, -0.03 45.77 M213.15 225.79 C139.18 161.48, 65.2 97.18, 0.33 40.78 M213.15 225.79 C143.78 165.49, 74.41 105.18, 0.33 40.78 M219.55 226.05 C136.12 153.53, 52.7 81.01, -0.07 35.14 M219.55 226.05 C170.3 183.24, 121.06 140.43, -0.07 35.14 M225.95 226.31 C156.28 165.75, 86.61 105.19, 0.29 30.15 M225.95 226.31 C178.1 184.72, 130.26 143.13, 0.29 30.15 M231.59 225.92 C182.01 182.82, 132.42 139.71, -0.1 24.51 M231.59 225.92 C153.02 157.62, 74.45 89.32, -0.1 24.51 M237.99 226.18 C175.79 172.11, 113.6 118.05, 0.26 19.52 M237.99 226.18 C177.73 173.79, 117.47 121.41, 0.26 19.52 M243.63 225.78 C149.8 144.22, 55.97 62.65, -0.14 13.88 M243.63 225.78 C189.96 179.13, 136.29 132.47, -0.14 13.88 M247.77 224.08 C157.2 145.35, 66.64 66.63, 0.22 8.89 M247.77 224.08 C163.62 150.93, 79.47 77.78, 0.22 8.89 M247.37 218.43 C169.08 150.38, 90.79 82.32, -0.17 3.25 M247.37 218.43 C156.28 139.25, 65.19 60.07, -0.17 3.25 M247.73 213.45 C159.1 136.4, 70.46 59.35, 0.94 -1.08 M247.73 213.45 C165.6 142.05, 83.46 70.65, 0.94 -1.08 M247.34 207.8 C172.97 143.16, 98.6 78.51, 7.34 -0.82 M247.34 207.8 C162.16 133.76, 76.97 59.71, 7.34 -0.82 M247.7 202.82 C163.8 129.89, 79.91 56.96, 12.98 -1.22 M247.7 202.82 C185.38 148.64, 123.05 94.47, 12.98 -1.22 M248.06 197.83 C169.01 129.11, 89.96 60.4, 19.38 -0.96 M248.06 197.83 C196.53 153.04, 145.01 108.25, 19.38 -0.96 M247.66 192.19 C190.97 142.9, 134.27 93.62, 25.02 -1.35 M247.66 192.19 C171.24 125.75, 94.82 59.32, 25.02 -1.35 M248.02 187.2 C187 134.15, 125.98 81.11, 31.42 -1.09 M248.02 187.2 C184.06 131.6, 120.1 76, 31.42 -1.09 M247.63 181.56 C179.87 122.66, 112.12 63.76, 37.82 -0.83 M247.63 181.56 C175.64 118.98, 103.65 56.4, 37.82 -0.83 M247.99 176.57 C196 131.38, 144.01 86.18, 43.46 -1.22 M247.99 176.57 C175.81 113.83, 103.63 51.08, 43.46 -1.22 M247.59 170.93 C205.57 134.39, 163.54 97.86, 49.86 -0.96 M247.59 170.93 C205.26 134.13, 162.93 97.33, 49.86 -0.96 M247.95 165.94 C194.57 119.53, 141.18 73.12, 55.5 -1.35 M247.95 165.94 C198.29 122.77, 148.62 79.59, 55.5 -1.35 M247.56 160.3 C182.24 103.51, 116.92 46.73, 61.9 -1.09 M247.56 160.3 C196.13 115.59, 144.7 70.88, 61.9 -1.09 M247.92 155.31 C204.13 117.25, 160.34 79.18, 68.3 -0.83 M247.92 155.31 C186.39 101.82, 124.85 48.33, 68.3 -0.83 M247.52 149.67 C187.24 97.26, 126.95 44.86, 73.94 -1.23 M247.52 149.67 C208.53 115.77, 169.54 81.88, 73.94 -1.23 M247.89 144.68 C193.62 97.51, 139.36 50.34, 80.34 -0.96 M247.89 144.68 C212.69 114.09, 177.5 83.49, 80.34 -0.96 M247.49 139.04 C185.54 85.19, 123.59 31.33, 85.98 -1.36 M247.49 139.04 C195.57 93.9, 143.64 48.76, 85.98 -1.36 M247.85 134.05 C190.89 84.54, 133.93 35.02, 92.38 -1.1 M247.85 134.05 C195.6 88.63, 143.35 43.21, 92.38 -1.1 M247.46 128.41 C214.25 99.54, 181.04 70.67, 98.78 -0.84 M247.46 128.41 C217.1 102.02, 186.75 75.64, 98.78 -0.84 M247.82 123.42 C205.07 86.27, 162.33 49.11, 104.42 -1.23 M247.82 123.42 C209.38 90.01, 170.94 56.6, 104.42 -1.23 M247.42 117.78 C219.06 93.13, 190.71 68.48, 110.82 -0.97 M247.42 117.78 C209.05 84.42, 170.68 51.07, 110.82 -0.97 M247.78 112.79 C205.24 75.81, 162.71 38.84, 116.46 -1.36 M247.78 112.79 C218.2 87.08, 188.63 61.37, 116.46 -1.36 M247.39 107.15 C215.61 79.52, 183.83 51.9, 122.86 -1.1 M247.39 107.15 C206.05 71.21, 164.71 35.28, 122.86 -1.1 M247.75 102.16 C209.01 68.48, 170.26 34.8, 129.26 -0.84 M247.75 102.16 C212.34 71.38, 176.93 40.6, 129.26 -0.84 M247.35 96.52 C217.74 70.77, 188.13 45.03, 134.9 -1.24 M247.35 96.52 C212.56 66.27, 177.76 36.02, 134.9 -1.24 M247.71 91.53 C219.15 66.7, 190.59 41.88, 141.3 -0.97 M247.71 91.53 C220.91 68.23, 194.11 44.94, 141.3 -0.97 M248.07 86.54 C217 59.53, 185.93 32.52, 146.94 -1.37 M248.07 86.54 C213.96 56.89, 179.84 27.23, 146.94 -1.37 M247.68 80.9 C211.12 49.12, 174.57 17.34, 153.34 -1.11 M247.68 80.9 C217.56 54.72, 187.45 28.54, 153.34 -1.11 M248.04 75.91 C226.82 57.47, 205.6 39.02, 159.74 -0.85 M248.04 75.91 C220.53 52, 193.03 28.09, 159.74 -0.85 M247.64 70.27 C231.05 55.84, 214.45 41.42, 165.38 -1.24 M247.64 70.27 C230.56 55.42, 213.47 40.56, 165.38 -1.24 M248 65.28 C225.6 45.8, 203.19 26.32, 171.78 -0.98 M248 65.28 C225.17 45.43, 202.33 25.58, 171.78 -0.98 M247.61 59.64 C226.09 40.93, 204.57 22.22, 177.42 -1.37 M247.61 59.64 C226.83 41.58, 206.06 23.52, 177.42 -1.37 M247.97 54.65 C230.14 39.16, 212.31 23.66, 183.82 -1.11 M247.97 54.65 C226.07 35.62, 204.18 16.59, 183.82 -1.11 M247.57 49.01 C226.01 30.27, 204.45 11.53, 190.22 -0.85 M247.57 49.01 C234.12 37.31, 220.66 25.62, 190.22 -0.85 M247.93 44.02 C228.16 26.83, 208.38 9.63, 195.86 -1.25 M247.93 44.02 C235.02 32.79, 222.1 21.56, 195.86 -1.25 M247.54 38.38 C231.18 24.16, 214.82 9.93, 202.26 -0.98 M247.54 38.38 C231.87 24.76, 216.21 11.14, 202.26 -0.98 M247.9 33.39 C233.28 20.68, 218.65 7.97, 207.9 -1.38 M247.9 33.39 C239.77 26.33, 231.64 19.26, 207.9 -1.38 M247.51 27.75 C237.78 19.3, 228.06 10.84, 214.3 -1.12 M247.51 27.75 C240.06 21.27, 232.61 14.8, 214.3 -1.12 M247.87 22.76 C237.56 13.81, 227.26 4.85, 220.7 -0.86 M247.87 22.76 C238.03 14.21, 228.2 5.66, 220.7 -0.86 M247.47 17.12 C241.59 12, 235.7 6.89, 226.34 -1.25 M247.47 17.12 C240.37 10.95, 233.27 4.78, 226.34 -1.25 M247.83 12.13 C242.66 7.63, 237.48 3.13, 232.74 -0.99 M247.83 12.13 C244.04 8.83, 240.24 5.53, 232.74 -0.99 M247.44 6.49 C244.68 4.09, 241.92 1.69, 238.38 -1.38 M247.44 6.49 C245.46 4.77, 243.48 3.05, 238.38 -1.38" stroke="#219ebc" stroke-width="0.5" fill="none"></path><path d="M0 0 C61.5 0, 122.99 0, 246 0 M0 0 C88.25 0, 176.49 0, 246 0 M246 0 C246 86.35, 246 172.7, 246 226 M246 0 C246 59.59, 246 119.17, 246 226 M246 226 C183.34 226, 120.67 226, 0 226 M246 226 C167.7 226, 89.4 226, 0 226 M0 226 C0 143.29, 0 60.59, 0 0 M0 226 C0 140.99, 0 55.99, 0 0" stroke="#000000" stroke-width="1" fill="none"></path></g><g stroke-linecap="round" transform="translate(664 338) rotate(0 89 46)"><path d="M0 0 L178 0 L178 92 L0 92" stroke="none" stroke-width="0" fill="#219ebc"></path><path d="M0 0 C36.07 0, 72.14 0, 178 0 M0 0 C38.86 0, 77.72 0, 178 0 M178 0 C178 26.16, 178 52.32, 178 92 M178 0 C178 29.21, 178 58.43, 178 92 M178 92 C141.33 92, 104.65 92, 0 92 M178 92 C131.54 92, 85.08 92, 0 92 M0 92 C0 58.69, 0 25.38, 0 0 M0 92 C0 72.9, 0 53.8, 0 0" stroke="#000000" stroke-width="1" fill="none"></path></g><g transform="translate(702.5 359) rotate(0 51.5 19)"><text x="51.5" y="15" font-family="Cascadia, Segoe UI Emoji" font-size="16px" fill="#000000" text-anchor="middle" style="white-space: pre;" direction="ltr">Share list </text><text x="51.5" y="34" font-family="Cascadia, Segoe UI Emoji" font-size="16px" fill="#000000" text-anchor="middle" style="white-space: pre;" direction="ltr">&gt; copy link</text></g><g stroke-linecap="round"><g transform="translate(834 392) rotate(0 69 1)"><path d="M0 0 C23 0.33, 115 1.67, 138 2 M0 0 C23 0.33, 115 1.67, 138 2" stroke="#000000" stroke-width="1" fill="none"></path></g><g transform="translate(834 392) rotate(0 69 1)"><path d="M109.66 11.85 C117.79 9.02, 125.92 6.2, 138 2 M109.66 11.85 C116.45 9.49, 123.23 7.13, 138 2" stroke="#000000" stroke-width="1" fill="none"></path></g><g transform="translate(834 392) rotate(0 69 1)"><path d="M109.96 -8.67 C118.01 -5.61, 126.05 -2.55, 138 2 M109.96 -8.67 C116.67 -6.11, 123.38 -3.56, 138 2" stroke="#000000" stroke-width="1" fill="none"></path></g></g><g transform="translate(983 379.5) rotate(0 84.5 9.5)"><text x="0" y="15" font-family="Cascadia, Segoe UI Emoji" font-size="16px" fill="#000000" text-anchor="start" style="white-space: pre;" direction="ltr">Share list button </text></g></svg>