<?xml version="1.0" encoding="UTF-8" standalone="no"?>
<!DOCTYPE svg PUBLIC "-//W3C//DTD SVG 1.1//EN"
 "http://www.w3.org/Graphics/SVG/1.1/DTD/svg11.dtd">
<!-- Generated by graphviz version 2.44.0 (20200408.0750)
 -->
<!-- Title: dependency&#45;cruiser output Pages: 1 -->

<svg width="502pt" height="200pt"
 viewBox="0.00 0.00 502.04 200.00" xmlns="http://www.w3.org/2000/svg" xmlns:xlink="http://www.w3.org/1999/xlink">
<g id="graph0" class="graph" transform="scale(1 1) rotate(0) translate(4 196)">
<title>dependency&#45;cruiser output</title>
<polygon fill="white" stroke="transparent" points="-4,4 -4,-196 498.04,-196 498.04,4 -4,4"/>
<g id="clust1" class="cluster">
<title>cluster_src</title>
<path fill="#ffffff" stroke="black" stroke-width="2" d="M20,-8C20,-8 474.04,-8 474.04,-8 480.04,-8 486.04,-14 486.04,-20 486.04,-20 486.04,-172 486.04,-172 486.04,-178 480.04,-184 474.04,-184 474.04,-184 20,-184 20,-184 14,-184 8,-178 8,-172 8,-172 8,-20 8,-20 8,-14 14,-8 20,-8"/>
<text text-anchor="middle" x="247.02" y="-171.9" font-family="Helvetica,sans-Serif" font-weight="bold" font-size="9.00">src</text>
</g>
<g id="clust2" class="cluster">
<title>cluster_src/components</title>
<path fill="#ffffff" stroke="black" stroke-width="2" d="M354.53,-16C354.53,-16 466.04,-16 466.04,-16 472.04,-16 478.04,-22 478.04,-28 478.04,-28 478.04,-119 478.04,-119 478.04,-125 472.04,-131 466.04,-131 466.04,-131 354.53,-131 354.53,-131 348.53,-131 342.53,-125 342.53,-119 342.53,-119 342.53,-28 342.53,-28 342.53,-22 348.53,-16 354.53,-16"/>
<text text-anchor="middle" x="410.29" y="-118.9" font-family="Helvetica,sans-Serif" font-weight="bold" font-size="9.00">components</text>
</g>
<g id="clust3" class="cluster">
<title>cluster_src/handlers</title>
<path fill="#ffffff" stroke="black" stroke-width="2" d="M226.02,-62C226.02,-62 322.53,-62 322.53,-62 328.53,-62 334.53,-68 334.53,-74 334.53,-74 334.53,-103 334.53,-103 334.53,-109 328.53,-115 322.53,-115 322.53,-115 226.02,-115 226.02,-115 220.02,-115 214.02,-109 214.02,-103 214.02,-103 214.02,-74 214.02,-74 214.02,-68 220.02,-62 226.02,-62"/>
<text text-anchor="middle" x="274.27" y="-102.9" font-family="Helvetica,sans-Serif" font-weight="bold" font-size="9.00">handlers</text>
</g>
<g id="clust4" class="cluster">
<title>cluster_src/init</title>
<path fill="#ffffff" stroke="black" stroke-width="2" d="M28,-62C28,-62 74,-62 74,-62 80,-62 86,-68 86,-74 86,-74 86,-103 86,-103 86,-109 80,-115 74,-115 74,-115 28,-115 28,-115 22,-115 16,-109 16,-103 16,-103 16,-74 16,-74 16,-68 22,-62 28,-62"/>
<text text-anchor="middle" x="51" y="-102.9" font-family="Helvetica,sans-Serif" font-weight="bold" font-size="9.00">init</text>
</g>
<g id="clust5" class="cluster">
<title>cluster_src/listeners</title>
<path fill="#ffffff" stroke="black" stroke-width="2" d="M106,-62C106,-62 194.02,-62 194.02,-62 200.02,-62 206.02,-68 206.02,-74 206.02,-74 206.02,-103 206.02,-103 206.02,-109 200.02,-115 194.02,-115 194.02,-115 106,-115 106,-115 100,-115 94,-109 94,-103 94,-103 94,-74 94,-74 94,-68 100,-62 106,-62"/>
<text text-anchor="middle" x="150.01" y="-102.9" font-family="Helvetica,sans-Serif" font-weight="bold" font-size="9.00">listeners</text>
</g>
<!-- src/components/divFormComponent.js -->
<g id="node1" class="node">
<title>src/components/divFormComponent.js</title>
<g id="a_node1"><a xlink:href="../src/components/divFormComponent.js" xlink:title="divFormComponent.js">
<path fill="#ffffcc" stroke="black" d="M456.09,-104.3C456.09,-104.3 364.48,-104.3 364.48,-104.3 361.38,-104.3 358.28,-101.2 358.28,-98.1 358.28,-98.1 358.28,-91.9 358.28,-91.9 358.28,-88.8 361.38,-85.7 364.48,-85.7 364.48,-85.7 456.09,-85.7 456.09,-85.7 459.19,-85.7 462.29,-88.8 462.29,-91.9 462.29,-91.9 462.29,-98.1 462.29,-98.1 462.29,-101.2 459.19,-104.3 456.09,-104.3"/>
<text text-anchor="middle" x="410.29" y="-92.3" font-family="Helvetica,sans-Serif" font-size="9.00">divFormComponent.js</text>
</a>
</g>
</g>
<!-- src/components/errorMessage.js -->
<g id="node2" class="node">
<title>src/components/errorMessage.js</title>
<g id="a_node2"><a xlink:href="../src/components/errorMessage.js" xlink:title="errorMessage.js">
<path fill="#ffffcc" stroke="black" d="M444.09,-73.3C444.09,-73.3 376.48,-73.3 376.48,-73.3 373.38,-73.3 370.28,-70.2 370.28,-67.1 370.28,-67.1 370.28,-60.9 370.28,-60.9 370.28,-57.8 373.38,-54.7 376.48,-54.7 376.48,-54.7 444.09,-54.7 444.09,-54.7 447.19,-54.7 450.29,-57.8 450.29,-60.9 450.29,-60.9 450.29,-67.1 450.29,-67.1 450.29,-70.2 447.19,-73.3 444.09,-73.3"/>
<text text-anchor="middle" x="410.29" y="-61.3" font-family="Helvetica,sans-Serif" font-size="9.00">errorMessage.js</text>

</a>
</g>
</g>
<!-- src/components/newItemListComponent.js -->

<g id="node3" class="node">
<title>src/components/newItemListComponent.js</title>
<g id="a_node3"><a xlink:href="../src/components/newItemListComponent.js" xlink:title="newItemListComponent.js">

<path fill="#ffffcc" stroke="black" d="M463.6,-42.3C463.6,-42.3 356.97,-42.3 356.97,-42.3 353.87,-42.3 350.77,-39.2 350.77,-36.1 350.77,-36.1 350.77,-29.9 350.77,-29.9 350.77,-26.8 353.87,-23.7 356.97,-23.7 356.97,-23.7 463.6,-23.7 463.6,-23.7 466.7,-23.7 469.8,-26.8 469.8,-29.9 469.8,-29.9 469.8,-36.1 469.8,-36.1 469.8,-39.2 466.7,-42.3 463.6,-42.3"/>
<text text-anchor="middle" x="410.29" y="-30.3" font-family="Helvetica,sans-Serif" font-size="9.00">newItemListComponent.js</text>
</a>
</g>
</g>
<!-- src/data.js -->

<g id="node4" class="node">
<title>src/data.js</title>
<g id="a_node4"><a xlink:href="../src/data.js" xlink:title="data.js">
<path fill="#ffffcc" stroke="black" d="M431.09,-157.3C431.09,-157.3 389.49,-157.3 389.49,-157.3 386.39,-157.3 383.29,-154.2 383.29,-151.1 383.29,-151.1 383.29,-144.9 383.29,-144.9 383.29,-141.8 386.39,-138.7 389.49,-138.7 389.49,-138.7 431.09,-138.7 431.09,-138.7 434.19,-138.7 437.29,-141.8 437.29,-144.9 437.29,-144.9 437.29,-151.1 437.29,-151.1 437.29,-154.2 434.19,-157.3 431.09,-157.3"/>
<text text-anchor="middle" x="410.29" y="-145.3" font-family="Helvetica,sans-Serif" font-size="9.00">data.js</text>
</a>
</g>
</g>
<!-- src/handlers/handlerNewItemList.js -->
<g id="node5" class="node">
<title>src/handlers/handlerNewItemList.js</title>
<g id="a_node5"><a xlink:href="../src/handlers/handlerNewItemList.js" xlink:title="handlerNewItemList.js">
<path fill="#ffffcc" stroke="black" d="M320.08,-88.3C320.08,-88.3 228.47,-88.3 228.47,-88.3 225.37,-88.3 222.27,-85.2 222.27,-82.1 222.27,-82.1 222.27,-75.9 222.27,-75.9 222.27,-72.8 225.37,-69.7 228.47,-69.7 228.47,-69.7 320.08,-69.7 320.08,-69.7 323.18,-69.7 326.28,-72.8 326.28,-75.9 326.28,-75.9 326.28,-82.1 326.28,-82.1 326.28,-85.2 323.18,-88.3 320.08,-88.3"/>
<text text-anchor="middle" x="274.27" y="-76.3" font-family="Helvetica,sans-Serif" font-size="9.00">handlerNewItemList.js</text>
</a>
</g>
</g>
<!-- src/handlers/handlerNewItemList.js&#45;&gt;src/components/divFormComponent.js -->
<g id="edge1" class="edge">
<title>src/handlers/handlerNewItemList.js&#45;&gt;src/components/divFormComponent.js</title>
<path fill="none" stroke="#000000" stroke-width="2" stroke-opacity="0.200000" d="M326.32,-85.09C334.57,-86.08 343.17,-87.11 351.56,-88.11"/>
<polygon fill="#000000" fill-opacity="0.200000" stroke="#000000" stroke-width="2" stroke-opacity="0.200000" points="351.73,-90.24 357.94,-88.87 352.23,-86.07 351.73,-90.24"/>
</g>
<!-- src/handlers/handlerNewItemList.js&#45;&gt;src/components/errorMessage.js -->
<g id="edge2" class="edge">
<title>src/handlers/handlerNewItemList.js&#45;&gt;src/components/errorMessage.js</title>
<path fill="none" stroke="#000000" stroke-width="2" stroke-opacity="0.200000" d="M326.32,-73.29C338.67,-71.9 351.78,-70.44 363.85,-69.09"/>
<polygon fill="#000000" fill-opacity="0.200000" stroke="#000000" stroke-width="2" stroke-opacity="0.200000" points="364.33,-71.15 370.05,-68.39 363.86,-66.97 364.33,-71.15"/>
</g>
<!-- src/handlers/handlerNewItemList.js&#45;&gt;src/components/newItemListComponent.js -->
<g id="edge3" class="edge">
<title>src/handlers/handlerNewItemList.js&#45;&gt;src/components/newItemListComponent.js</title>
<path fill="none" stroke="#000000" stroke-width="2" stroke-opacity="0.200000" d="M293.75,-69.65C307.05,-63.19 325.58,-54.76 342.53,-49 347.83,-47.2 353.44,-45.52 359.06,-43.98"/>
<polygon fill="#000000" fill-opacity="0.200000" stroke="#000000" stroke-width="2" stroke-opacity="0.200000" points="359.89,-45.93 365.15,-42.36 358.81,-41.87 359.89,-45.93"/>
</g>
<!-- src/handlers/handlerNewItemList.js&#45;&gt;src/data.js -->
<g id="edge4" class="edge">
<title>src/handlers/handlerNewItemList.js&#45;&gt;src/data.js</title>
<path fill="none" stroke="#000000" stroke-width="2" stroke-opacity="0.200000" d="M283.86,-88.4C295.77,-100.85 318.58,-122.55 342.53,-134 353.16,-139.09 365.62,-142.33 376.88,-144.4"/>
<polygon fill="#000000" fill-opacity="0.200000" stroke="#000000" stroke-width="2" stroke-opacity="0.200000" points="376.73,-146.51 382.99,-145.44 377.43,-142.37 376.73,-146.51"/>
</g>
<!-- src/init/index.js -->
<g id="node6" class="node">
<title>src/init/index.js</title>
<g id="a_node6"><a xlink:href="../src/init/index.js" xlink:title="index.js">
<path fill="#ffffcc" stroke="black" d="M71.8,-88.3C71.8,-88.3 30.2,-88.3 30.2,-88.3 27.1,-88.3 24,-85.2 24,-82.1 24,-82.1 24,-75.9 24,-75.9 24,-72.8 27.1,-69.7 30.2,-69.7 30.2,-69.7 71.8,-69.7 71.8,-69.7 74.9,-69.7 78,-72.8 78,-75.9 78,-75.9 78,-82.1 78,-82.1 78,-85.2 74.9,-88.3 71.8,-88.3"/>
<text text-anchor="middle" x="51" y="-76.3" font-family="Helvetica,sans-Serif" font-size="9.00">index.js</text>
</a>
</g>
</g>
<!-- src/listeners/listenerAddButton.js -->
<g id="node7" class="node">
<title>src/listeners/listenerAddButton.js</title>
<g id="a_node7"><a xlink:href="../src/listeners/listenerAddButton.js" xlink:title="listenerAddButton.js">
<path fill="#ffffcc" stroke="black" d="M191.83,-88.3C191.83,-88.3 108.19,-88.3 108.19,-88.3 105.09,-88.3 101.99,-85.2 101.99,-82.1 101.99,-82.1 101.99,-75.9 101.99,-75.9 101.99,-72.8 105.09,-69.7 108.19,-69.7 108.19,-69.7 191.83,-69.7 191.83,-69.7 194.93,-69.7 198.03,-72.8 198.03,-75.9 198.03,-75.9 198.03,-82.1 198.03,-82.1 198.03,-85.2 194.93,-88.3 191.83,-88.3"/>
<text text-anchor="middle" x="150.01" y="-76.3" font-family="Helvetica,sans-Serif" font-size="9.00">listenerAddButton.js</text>
</a>
</g>
</g>
<!-- src/init/index.js&#45;&gt;src/listeners/listenerAddButton.js -->
<g id="edge5" class="edge">
<title>src/init/index.js&#45;&gt;src/listeners/listenerAddButton.js</title>
<path fill="none" stroke="#000000" stroke-width="2" stroke-opacity="0.200000" d="M78.25,-79C83.72,-79 89.68,-79 95.73,-79"/>
<polygon fill="#000000" fill-opacity="0.200000" stroke="#000000" stroke-width="2" stroke-opacity="0.200000" points="95.8,-81.1 101.8,-79 95.8,-76.9 95.8,-81.1"/>
</g>
<!-- src/listeners/listenerAddButton.js&#45;&gt;src/handlers/handlerNewItemList.js -->
<g id="edge6" class="edge">
<title>src/listeners/listenerAddButton.js&#45;&gt;src/handlers/handlerNewItemList.js</title>
<path fill="none" stroke="#000000" stroke-width="2" stroke-opacity="0.200000" d="M198.28,-79C204.01,-79 209.9,-79 215.75,-79"/>
<polygon fill="#000000" fill-opacity="0.200000" stroke="#000000" stroke-width="2" stroke-opacity="0.200000" points="216.07,-81.1 222.07,-79 216.07,-76.9 216.07,-81.1"/>

</g>
</g>
</svg>
