<?xml version="1.0" encoding="UTF-8" standalone="no"?>
<!DOCTYPE svg PUBLIC "-//W3C//DTD SVG 1.1//EN"
 "http://www.w3.org/Graphics/SVG/1.1/DTD/svg11.dtd">
<!-- Generated by graphviz version 2.44.0 (20200408.0750)
 -->
<!-- Title: dependency&#45;cruiser output Pages: 1 -->
<svg width="694pt" height="231pt"
 viewBox="0.00 0.00 693.58 231.00" xmlns="http://www.w3.org/2000/svg" xmlns:xlink="http://www.w3.org/1999/xlink">
<g id="graph0" class="graph" transform="scale(1 1) rotate(0) translate(4 227)">
<title>dependency&#45;cruiser output</title>
<polygon fill="white" stroke="transparent" points="-4,4 -4,-227 689.58,-227 689.58,4 -4,4"/>
<g id="clust1" class="cluster">
<title>cluster_src</title>
<path fill="#ffffff" stroke="black" stroke-width="2" d="M20,-8C20,-8 665.58,-8 665.58,-8 671.58,-8 677.58,-14 677.58,-20 677.58,-20 677.58,-203 677.58,-203 677.58,-209 671.58,-215 665.58,-215 665.58,-215 20,-215 20,-215 14,-215 8,-209 8,-203 8,-203 8,-20 8,-20 8,-14 14,-8 20,-8"/>
<text text-anchor="middle" x="342.79" y="-202.9" font-family="Helvetica,sans-Serif" font-weight="bold" font-size="9.00">src</text>
</g>
<g id="clust2" class="cluster">
<title>cluster_src/components</title>
<path fill="#ffffff" stroke="black" stroke-width="2" d="M382.04,-16C382.04,-16 493.56,-16 493.56,-16 499.56,-16 505.56,-22 505.56,-28 505.56,-28 505.56,-150 505.56,-150 505.56,-156 499.56,-162 493.56,-162 493.56,-162 382.04,-162 382.04,-162 376.04,-162 370.04,-156 370.04,-150 370.04,-150 370.04,-28 370.04,-28 370.04,-22 376.04,-16 382.04,-16"/>
<text text-anchor="middle" x="437.8" y="-149.9" font-family="Helvetica,sans-Serif" font-weight="bold" font-size="9.00">components</text>
</g>
<g id="clust3" class="cluster">
<title>cluster_src/handlers</title>
<path fill="#ffffff" stroke="black" stroke-width="2" d="M243.52,-73C243.52,-73 350.04,-73 350.04,-73 356.04,-73 362.04,-79 362.04,-85 362.04,-85 362.04,-176 362.04,-176 362.04,-182 356.04,-188 350.04,-188 350.04,-188 243.52,-188 243.52,-188 237.52,-188 231.52,-182 231.52,-176 231.52,-176 231.52,-85 231.52,-85 231.52,-79 237.52,-73 243.52,-73"/>
<text text-anchor="middle" x="296.78" y="-175.9" font-family="Helvetica,sans-Serif" font-weight="bold" font-size="9.00">handlers</text>
</g>
<g id="clust4" class="cluster">
<title>cluster_src/init</title>
<path fill="#ffffff" stroke="black" stroke-width="2" d="M28,-104C28,-104 74,-104 74,-104 80,-104 86,-110 86,-116 86,-116 86,-145 86,-145 86,-151 80,-157 74,-157 74,-157 28,-157 28,-157 22,-157 16,-151 16,-145 16,-145 16,-116 16,-116 16,-110 22,-104 28,-104"/>
<text text-anchor="middle" x="51" y="-144.9" font-family="Helvetica,sans-Serif" font-weight="bold" font-size="9.00">init</text>
</g>
<g id="clust5" class="cluster">
<title>cluster_src/lib</title>
<path fill="#ffffff" stroke="black" stroke-width="2" d="M525.56,-135C525.56,-135 657.58,-135 657.58,-135 663.58,-135 669.58,-141 669.58,-147 669.58,-147 669.58,-176 669.58,-176 669.58,-182 663.58,-188 657.58,-188 657.58,-188 525.56,-188 525.56,-188 519.56,-188 513.56,-182 513.56,-176 513.56,-176 513.56,-147 513.56,-147 513.56,-141 519.56,-135 525.56,-135"/>
<text text-anchor="middle" x="591.57" y="-175.9" font-family="Helvetica,sans-Serif" font-weight="bold" font-size="9.00">lib</text>
</g>
<g id="clust6" class="cluster">
<title>cluster_src/listeners</title>
<path fill="#ffffff" stroke="black" stroke-width="2" d="M106,-104C106,-104 211.52,-104 211.52,-104 217.52,-104 223.52,-110 223.52,-116 223.52,-116 223.52,-176 223.52,-176 223.52,-182 217.52,-188 211.52,-188 211.52,-188 106,-188 106,-188 100,-188 94,-182 94,-176 94,-176 94,-116 94,-116 94,-110 100,-104 106,-104"/>
<text text-anchor="middle" x="158.76" y="-175.9" font-family="Helvetica,sans-Serif" font-weight="bold" font-size="9.00">listeners</text>
</g>
<!-- src/components/divFormComponent.js -->
<g id="node1" class="node">
<title>src/components/divFormComponent.js</title>
<g id="a_node1"><a xlink:href="../src/components/divFormComponent.js" xlink:title="divFormComponent.js">
<path fill="#ffffcc" stroke="black" d="M483.6,-73.3C483.6,-73.3 391.99,-73.3 391.99,-73.3 388.89,-73.3 385.79,-70.2 385.79,-67.1 385.79,-67.1 385.79,-60.9 385.79,-60.9 385.79,-57.8 388.89,-54.7 391.99,-54.7 391.99,-54.7 483.6,-54.7 483.6,-54.7 486.7,-54.7 489.8,-57.8 489.8,-60.9 489.8,-60.9 489.8,-67.1 489.8,-67.1 489.8,-70.2 486.7,-73.3 483.6,-73.3"/>
<text text-anchor="middle" x="437.8" y="-61.3" font-family="Helvetica,sans-Serif" font-size="9.00">divFormComponent.js</text>
</a>
</g>
</g>
<!-- src/handlers/handlerDoneItem.js -->
<g id="node2" class="node">
<title>src/handlers/handlerDoneItem.js</title>
<g id="a_node2"><a xlink:href="../src/handlers/handlerDoneItem.js" xlink:title="handlerDoneItem.js">
<path fill="#ffffcc" stroke="black" d="M337.59,-99.3C337.59,-99.3 255.96,-99.3 255.96,-99.3 252.86,-99.3 249.76,-96.2 249.76,-93.1 249.76,-93.1 249.76,-86.9 249.76,-86.9 249.76,-83.8 252.86,-80.7 255.96,-80.7 255.96,-80.7 337.59,-80.7 337.59,-80.7 340.69,-80.7 343.79,-83.8 343.79,-86.9 343.79,-86.9 343.79,-93.1 343.79,-93.1 343.79,-96.2 340.69,-99.3 337.59,-99.3"/>
<text text-anchor="middle" x="296.78" y="-87.3" font-family="Helvetica,sans-Serif" font-size="9.00">handlerDoneItem.js</text>
</a>
</g>
</g>
<!-- src/components/divFormComponent.js&#45;&gt;src/handlers/handlerDoneItem.js -->
<g id="edge1" class="edge">
<title>src/components/divFormComponent.js&#45;&gt;src/handlers/handlerDoneItem.js</title>
<path fill="none" stroke="#000000" stroke-width="2" stroke-opacity="0.200000" d="M406.86,-73.37C392.49,-76.66 374.73,-80.2 357.75,-83.25"/>
<polygon fill="#000000" fill-opacity="0.200000" stroke="#000000" stroke-width="2" stroke-opacity="0.200000" points="349.62,-82.52 344.07,-85.61 350.34,-86.66 349.62,-82.52"/>
<polyline fill="none" stroke="#000000" stroke-width="2" stroke-opacity="0.200000" points="349.98,-84.59 352.94,-84.08 "/>
<ellipse fill="none" stroke="#000000" stroke-width="2" stroke-opacity="0.200000" cx="355.3" cy="-83.67" rx="2.4" ry="2.4"/>
</g>
<!-- src/handlers/handlerDoneItem.js&#45;&gt;src/components/divFormComponent.js -->
<g id="edge4" class="edge">
<title>src/handlers/handlerDoneItem.js&#45;&gt;src/components/divFormComponent.js</title>
<path fill="none" stroke="#000000" stroke-width="2" stroke-opacity="0.200000" d="M327.6,-80.65C340.55,-77.69 356.26,-74.51 371.69,-71.69"/>
<polygon fill="#000000" fill-opacity="0.200000" stroke="#000000" stroke-width="2" stroke-opacity="0.200000" points="380.14,-72.32 385.68,-69.2 379.41,-68.18 380.14,-72.32"/>
<polyline fill="none" stroke="#000000" stroke-width="2" stroke-opacity="0.200000" points="379.77,-70.25 376.82,-70.77 "/>
<ellipse fill="none" stroke="#000000" stroke-width="2" stroke-opacity="0.200000" cx="374.46" cy="-71.19" rx="2.4" ry="2.4"/>
</g>
<!-- src/components/newButtonComponent.js -->
<g id="node4" class="node">
<title>src/components/newButtonComponent.js</title>
<g id="a_node4"><a xlink:href="../src/components/newButtonComponent.js" xlink:title="newButtonComponent.js">
<path fill="#ffffcc" stroke="black" d="M488.62,-42.3C488.62,-42.3 386.97,-42.3 386.97,-42.3 383.87,-42.3 380.77,-39.2 380.77,-36.1 380.77,-36.1 380.77,-29.9 380.77,-29.9 380.77,-26.8 383.87,-23.7 386.97,-23.7 386.97,-23.7 488.62,-23.7 488.62,-23.7 491.72,-23.7 494.82,-26.8 494.82,-29.9 494.82,-29.9 494.82,-36.1 494.82,-36.1 494.82,-39.2 491.72,-42.3 488.62,-42.3"/>
<text text-anchor="middle" x="437.8" y="-30.3" font-family="Helvetica,sans-Serif" font-size="9.00">newButtonComponent.js</text>
</a>
</g>
</g>
<!-- src/handlers/handlerDoneItem.js&#45;&gt;src/components/newButtonComponent.js -->
<g id="edge5" class="edge">
<title>src/handlers/handlerDoneItem.js&#45;&gt;src/components/newButtonComponent.js</title>
<path fill="none" stroke="#000000" stroke-width="2" stroke-opacity="0.200000" d="M305.85,-80.63C317.2,-71.03 338.93,-56.87 367.87,-44.43"/>
<polygon fill="#000000" fill-opacity="0.200000" stroke="#000000" stroke-width="2" stroke-opacity="0.200000" points="375.93,-43.42 380.7,-39.22 374.35,-39.53 375.93,-43.42"/>
<polyline fill="none" stroke="#000000" stroke-width="2" stroke-opacity="0.200000" points="375.14,-41.48 372.36,-42.61 "/>
<ellipse fill="none" stroke="#000000" stroke-width="2" stroke-opacity="0.200000" cx="370.14" cy="-43.51" rx="2.4" ry="2.4"/>
</g>
<!-- src/components/newItemListComponent.js -->
<g id="node5" class="node">
<title>src/components/newItemListComponent.js</title>
<g id="a_node5"><a xlink:href="../src/components/newItemListComponent.js" xlink:title="newItemListComponent.js">
<path fill="#ffffcc" stroke="black" d="M491.11,-104.3C491.11,-104.3 384.48,-104.3 384.48,-104.3 381.38,-104.3 378.28,-101.2 378.28,-98.1 378.28,-98.1 378.28,-91.9 378.28,-91.9 378.28,-88.8 381.38,-85.7 384.48,-85.7 384.48,-85.7 491.11,-85.7 491.11,-85.7 494.21,-85.7 497.31,-88.8 497.31,-91.9 497.31,-91.9 497.31,-98.1 497.31,-98.1 497.31,-101.2 494.21,-104.3 491.11,-104.3"/>
<text text-anchor="middle" x="437.8" y="-92.3" font-family="Helvetica,sans-Serif" font-size="9.00">newItemListComponent.js</text>
</a>
</g>
</g>
<!-- src/handlers/handlerDoneItem.js&#45;&gt;src/components/newItemListComponent.js -->
<g id="edge6" class="edge">
<title>src/handlers/handlerDoneItem.js&#45;&gt;src/components/newItemListComponent.js</title>
<path fill="none" stroke="#000000" stroke-width="2" stroke-opacity="0.200000" d="M344.07,-91.66C353.01,-91.99 362.53,-92.33 371.94,-92.67"/>
<polygon fill="#000000" fill-opacity="0.200000" stroke="#000000" stroke-width="2" stroke-opacity="0.200000" points="372.02,-94.77 378.09,-92.89 372.17,-90.57 372.02,-94.77"/>
</g>
<!-- src/data.js -->
<g id="node6" class="node">
<title>src/data.js</title>
<g id="a_node6"><a xlink:href="../src/data.js" xlink:title="data.js">
<path fill="#ffffcc" stroke="black" d="M458.6,-188.3C458.6,-188.3 417,-188.3 417,-188.3 413.9,-188.3 410.8,-185.2 410.8,-182.1 410.8,-182.1 410.8,-175.9 410.8,-175.9 410.8,-172.8 413.9,-169.7 417,-169.7 417,-169.7 458.6,-169.7 458.6,-169.7 461.7,-169.7 464.8,-172.8 464.8,-175.9 464.8,-175.9 464.8,-182.1 464.8,-182.1 464.8,-185.2 461.7,-188.3 458.6,-188.3"/>
<text text-anchor="middle" x="437.8" y="-176.3" font-family="Helvetica,sans-Serif" font-size="9.00">data.js</text>
</a>
</g>
</g>
<!-- src/handlers/handlerDoneItem.js&#45;&gt;src/data.js -->
<g id="edge7" class="edge">
<title>src/handlers/handlerDoneItem.js&#45;&gt;src/data.js</title>
<path fill="none" stroke="#000000" stroke-width="2" stroke-opacity="0.200000" d="M344.03,-94.37C350.86,-96.9 357.2,-100.61 362.04,-106 379.7,-125.71 352.01,-145.63 370.04,-165 378.77,-174.39 392.06,-178.34 404.49,-179.77"/>
<polygon fill="#000000" fill-opacity="0.200000" stroke="#000000" stroke-width="2" stroke-opacity="0.200000" points="404.34,-181.87 410.5,-180.29 404.7,-177.68 404.34,-181.87"/>
</g>
<!-- src/components/errorMessage.js -->
<g id="node3" class="node">
<title>src/components/errorMessage.js</title>
<g id="a_node3"><a xlink:href="../src/components/errorMessage.js" xlink:title="errorMessage.js">
<path fill="#ffffcc" stroke="black" d="M471.6,-135.3C471.6,-135.3 403.99,-135.3 403.99,-135.3 400.89,-135.3 397.79,-132.2 397.79,-129.1 397.79,-129.1 397.79,-122.9 397.79,-122.9 397.79,-119.8 400.89,-116.7 403.99,-116.7 403.99,-116.7 471.6,-116.7 471.6,-116.7 474.7,-116.7 477.8,-119.8 477.8,-122.9 477.8,-122.9 477.8,-129.1 477.8,-129.1 477.8,-132.2 474.7,-135.3 471.6,-135.3"/>
<text text-anchor="middle" x="437.8" y="-123.3" font-family="Helvetica,sans-Serif" font-size="9.00">errorMessage.js</text>
</a>
</g>
</g>
<!-- src/components/newButtonComponent.js&#45;&gt;src/handlers/handlerDoneItem.js -->
<g id="edge2" class="edge">
<title>src/components/newButtonComponent.js&#45;&gt;src/handlers/handlerDoneItem.js</title>
<path fill="none" stroke="#000000" stroke-width="2" stroke-opacity="0.200000" d="M412.82,-42.37C399.88,-45.65 383.79,-49.58 370.04,-55 357.17,-60.08 343.8,-67.1 332.11,-73.59"/>
<polygon fill="#000000" fill-opacity="0.200000" stroke="#000000" stroke-width="2" stroke-opacity="0.200000" points="323.94,-75.78 319.75,-80.55 326.01,-79.44 323.94,-75.78"/>
<polyline fill="none" stroke="#000000" stroke-width="2" stroke-opacity="0.200000" points="324.98,-77.61 327.59,-76.14 "/>
<ellipse fill="none" stroke="#000000" stroke-width="2" stroke-opacity="0.200000" cx="329.68" cy="-74.96" rx="2.4" ry="2.4"/>
</g>
<!-- src/lib/validate.js -->
<g id="node7" class="node">
<title>src/lib/validate.js</title>
<g id="a_node7"><a xlink:href="../src/lib/validate.js" xlink:title="validate.js">
<path fill="#ffffcc" stroke="black" d="M571.36,-161.3C571.36,-161.3 527.75,-161.3 527.75,-161.3 524.65,-161.3 521.55,-158.2 521.55,-155.1 521.55,-155.1 521.55,-148.9 521.55,-148.9 521.55,-145.8 524.65,-142.7 527.75,-142.7 527.75,-142.7 571.36,-142.7 571.36,-142.7 574.46,-142.7 577.56,-145.8 577.56,-148.9 577.56,-148.9 577.56,-155.1 577.56,-155.1 577.56,-158.2 574.46,-161.3 571.36,-161.3"/>
<text text-anchor="middle" x="549.56" y="-149.3" font-family="Helvetica,sans-Serif" font-size="9.00">validate.js</text>
</a>
</g>
</g>
<!-- src/data.js&#45;&gt;src/lib/validate.js -->
<g id="edge3" class="edge">
<title>src/data.js&#45;&gt;src/lib/validate.js</title>
<path fill="none" stroke="#000000" stroke-width="2" stroke-opacity="0.200000" d="M464.91,-174.07C477.29,-171.59 492.25,-168.4 505.56,-165 508.77,-164.18 512.1,-163.27 515.42,-162.33"/>
<polygon fill="#000000" fill-opacity="0.200000" stroke="#000000" stroke-width="2" stroke-opacity="0.200000" points="516.18,-164.3 521.36,-160.61 515.01,-160.26 516.18,-164.3"/>
</g>
<!-- src/lib/ajv7.bundle.js -->
<g id="node13" class="node">
<title>src/lib/ajv7.bundle.js</title>
<g id="a_node13"><a xlink:href="../src/lib/ajv7.bundle.js" xlink:title="ajv7.bundle.js">
<path fill="#ffffcc" stroke="black" d="M655.38,-161.3C655.38,-161.3 596.75,-161.3 596.75,-161.3 593.65,-161.3 590.55,-158.2 590.55,-155.1 590.55,-155.1 590.55,-148.9 590.55,-148.9 590.55,-145.8 593.65,-142.7 596.75,-142.7 596.75,-142.7 655.38,-142.7 655.38,-142.7 658.48,-142.7 661.58,-145.8 661.58,-148.9 661.58,-148.9 661.58,-155.1 661.58,-155.1 661.58,-158.2 658.48,-161.3 655.38,-161.3"/>
<text text-anchor="middle" x="626.07" y="-149.3" font-family="Helvetica,sans-Serif" font-size="9.00">ajv7.bundle.js</text>
</a>
</g>
</g>
<!-- src/lib/validate.js&#45;&gt;src/lib/ajv7.bundle.js -->
<g id="edge16" class="edge">
<title>src/lib/validate.js&#45;&gt;src/lib/ajv7.bundle.js</title>
<path fill="none" stroke="#000000" stroke-width="2" stroke-opacity="0.200000" d="M577.88,-152C579.92,-152 581.99,-152 584.09,-152"/>
<polygon fill="#000000" fill-opacity="0.200000" stroke="#000000" stroke-width="2" stroke-opacity="0.200000" points="584.39,-154.1 590.39,-152 584.39,-149.9 584.39,-154.1"/>
</g>
<!-- src/handlers/handlerNewItemList.js -->
<g id="node8" class="node">
<title>src/handlers/handlerNewItemList.js</title>
<g id="a_node8"><a xlink:href="../src/handlers/handlerNewItemList.js" xlink:title="handlerNewItemList.js">
<path fill="#ffffcc" stroke="black" d="M342.58,-130.3C342.58,-130.3 250.97,-130.3 250.97,-130.3 247.87,-130.3 244.77,-127.2 244.77,-124.1 244.77,-124.1 244.77,-117.9 244.77,-117.9 244.77,-114.8 247.87,-111.7 250.97,-111.7 250.97,-111.7 342.58,-111.7 342.58,-111.7 345.68,-111.7 348.78,-114.8 348.78,-117.9 348.78,-117.9 348.78,-124.1 348.78,-124.1 348.78,-127.2 345.68,-130.3 342.58,-130.3"/>
<text text-anchor="middle" x="296.78" y="-118.3" font-family="Helvetica,sans-Serif" font-size="9.00">handlerNewItemList.js</text>
</a>
</g>
</g>
<!-- src/handlers/handlerNewItemList.js&#45;&gt;src/components/divFormComponent.js -->
<g id="edge8" class="edge">
<title>src/handlers/handlerNewItemList.js&#45;&gt;src/components/divFormComponent.js</title>
<path fill="none" stroke="#000000" stroke-width="2" stroke-opacity="0.200000" d="M349.08,-113.52C353.83,-111.32 358.26,-108.54 362.04,-105 370.55,-97.03 361.49,-87.94 370.04,-80 373.03,-77.22 376.42,-74.9 380.04,-72.96"/>
<polygon fill="#000000" fill-opacity="0.200000" stroke="#000000" stroke-width="2" stroke-opacity="0.200000" points="380.97,-74.85 385.5,-70.39 379.18,-71.05 380.97,-74.85"/>
</g>
<!-- src/handlers/handlerNewItemList.js&#45;&gt;src/components/errorMessage.js -->
<g id="edge9" class="edge">
<title>src/handlers/handlerNewItemList.js&#45;&gt;src/components/errorMessage.js</title>
<path fill="none" stroke="#000000" stroke-width="2" stroke-opacity="0.200000" d="M349.15,-122.85C362.96,-123.34 377.81,-123.88 391.28,-124.36"/>
<polygon fill="#000000" fill-opacity="0.200000" stroke="#000000" stroke-width="2" stroke-opacity="0.200000" points="391.3,-126.46 397.37,-124.58 391.45,-122.27 391.3,-126.46"/>
</g>
<!-- src/handlers/handlerNewItemList.js&#45;&gt;src/components/newItemListComponent.js -->
<g id="edge10" class="edge">
<title>src/handlers/handlerNewItemList.js&#45;&gt;src/components/newItemListComponent.js</title>
<path fill="none" stroke="#000000" stroke-width="2" stroke-opacity="0.200000" d="M347.57,-111.69C358.35,-109.67 369.82,-107.53 380.82,-105.47"/>
<polygon fill="#000000" fill-opacity="0.200000" stroke="#000000" stroke-width="2" stroke-opacity="0.200000" points="381.37,-107.5 386.88,-104.34 380.6,-103.37 381.37,-107.5"/>
</g>
<!-- src/handlers/handlerNewItemList.js&#45;&gt;src/data.js -->
<g id="edge11" class="edge">
<title>src/handlers/handlerNewItemList.js&#45;&gt;src/data.js</title>
<path fill="none" stroke="#000000" stroke-width="2" stroke-opacity="0.200000" d="M348.88,-128.22C353.72,-130.45 358.23,-133.32 362.04,-137 371.35,-145.99 360.56,-156.18 370.04,-165 379.26,-173.59 392.36,-177.46 404.51,-179.04"/>
<polygon fill="#000000" fill-opacity="0.200000" stroke="#000000" stroke-width="2" stroke-opacity="0.200000" points="404.57,-181.16 410.76,-179.68 405,-176.98 404.57,-181.16"/>
</g>
<!-- src/handlers/handlerRemoveButton.js -->
<g id="node9" class="node">
<title>src/handlers/handlerRemoveButton.js</title>
<g id="a_node9"><a xlink:href="../src/handlers/handlerRemoveButton.js" xlink:title="handlerRemoveButton.js">
<path fill="#ffffcc" stroke="black" d="M347.6,-161.3C347.6,-161.3 245.95,-161.3 245.95,-161.3 242.85,-161.3 239.75,-158.2 239.75,-155.1 239.75,-155.1 239.75,-148.9 239.75,-148.9 239.75,-145.8 242.85,-142.7 245.95,-142.7 245.95,-142.7 347.6,-142.7 347.6,-142.7 350.7,-142.7 353.8,-145.8 353.8,-148.9 353.8,-148.9 353.8,-155.1 353.8,-155.1 353.8,-158.2 350.7,-161.3 347.6,-161.3"/>
<text text-anchor="middle" x="296.78" y="-149.3" font-family="Helvetica,sans-Serif" font-size="9.00">handlerRemoveButton.js</text>
</a>
</g>
</g>
<!-- src/handlers/handlerRemoveButton.js&#45;&gt;src/data.js -->
<g id="edge12" class="edge">
<title>src/handlers/handlerRemoveButton.js&#45;&gt;src/data.js</title>
<path fill="none" stroke="#000000" stroke-width="2" stroke-opacity="0.200000" d="M346.01,-161.37C365.29,-165.11 386.98,-169.32 404.33,-172.69"/>
<polygon fill="#000000" fill-opacity="0.200000" stroke="#000000" stroke-width="2" stroke-opacity="0.200000" points="404.22,-174.81 410.51,-173.89 405.02,-170.69 404.22,-174.81"/>
</g>
<!-- src/init/index.js -->
<g id="node10" class="node">
<title>src/init/index.js</title>
<g id="a_node10"><a xlink:href="../src/init/index.js" xlink:title="index.js">
<path fill="#ffffcc" stroke="black" d="M71.8,-130.3C71.8,-130.3 30.2,-130.3 30.2,-130.3 27.1,-130.3 24,-127.2 24,-124.1 24,-124.1 24,-117.9 24,-117.9 24,-114.8 27.1,-111.7 30.2,-111.7 30.2,-111.7 71.8,-111.7 71.8,-111.7 74.9,-111.7 78,-114.8 78,-117.9 78,-117.9 78,-124.1 78,-124.1 78,-127.2 74.9,-130.3 71.8,-130.3"/>
<text text-anchor="middle" x="51" y="-118.3" font-family="Helvetica,sans-Serif" font-size="9.00">index.js</text>
</a>
</g>
</g>
<!-- src/init/index.js&#45;&gt;src/components/divFormComponent.js -->
<g id="edge13" class="edge">
<title>src/init/index.js&#45;&gt;src/components/divFormComponent.js</title>
<path fill="none" stroke="#000000" stroke-width="2" stroke-opacity="0.200000" d="M69.62,-111.53C76.99,-107.86 85.76,-103.85 94,-101 153.21,-80.52 169.36,-77.84 231.52,-70 281.14,-63.74 338.03,-62.54 379.32,-62.73"/>
<polygon fill="#000000" fill-opacity="0.200000" stroke="#000000" stroke-width="2" stroke-opacity="0.200000" points="379.53,-64.83 385.55,-62.77 379.56,-60.63 379.53,-64.83"/>
</g>
<!-- src/listeners/listenerAddButton.js -->
<g id="node11" class="node">
<title>src/listeners/listenerAddButton.js</title>
<g id="a_node11"><a xlink:href="../src/listeners/listenerAddButton.js" xlink:title="listenerAddButton.js">
<path fill="#ffffcc" stroke="black" d="M200.58,-130.3C200.58,-130.3 116.94,-130.3 116.94,-130.3 113.84,-130.3 110.74,-127.2 110.74,-124.1 110.74,-124.1 110.74,-117.9 110.74,-117.9 110.74,-114.8 113.84,-111.7 116.94,-111.7 116.94,-111.7 200.58,-111.7 200.58,-111.7 203.68,-111.7 206.78,-114.8 206.78,-117.9 206.78,-117.9 206.78,-124.1 206.78,-124.1 206.78,-127.2 203.68,-130.3 200.58,-130.3"/>
<text text-anchor="middle" x="158.76" y="-118.3" font-family="Helvetica,sans-Serif" font-size="9.00">listenerAddButton.js</text>
</a>
</g>
</g>
<!-- src/init/index.js&#45;&gt;src/listeners/listenerAddButton.js -->
<g id="edge14" class="edge">
<title>src/init/index.js&#45;&gt;src/listeners/listenerAddButton.js</title>
<path fill="none" stroke="#000000" stroke-width="2" stroke-opacity="0.200000" d="M78.14,-121C86.17,-121 95.31,-121 104.47,-121"/>
<polygon fill="#000000" fill-opacity="0.200000" stroke="#000000" stroke-width="2" stroke-opacity="0.200000" points="104.49,-123.1 110.49,-121 104.49,-118.9 104.49,-123.1"/>
</g>
<!-- src/listeners/listenerRemoveButton.js -->
<g id="node12" class="node">
<title>src/listeners/listenerRemoveButton.js</title>
<g id="a_node12"><a xlink:href="../src/listeners/listenerRemoveButton.js" xlink:title="listenerRemoveButton.js">
<path fill="#ffffcc" stroke="black" d="M209.07,-161.3C209.07,-161.3 108.44,-161.3 108.44,-161.3 105.34,-161.3 102.24,-158.2 102.24,-155.1 102.24,-155.1 102.24,-148.9 102.24,-148.9 102.24,-145.8 105.34,-142.7 108.44,-142.7 108.44,-142.7 209.07,-142.7 209.07,-142.7 212.17,-142.7 215.27,-145.8 215.27,-148.9 215.27,-148.9 215.27,-155.1 215.27,-155.1 215.27,-158.2 212.17,-161.3 209.07,-161.3"/>
<text text-anchor="middle" x="158.76" y="-149.3" font-family="Helvetica,sans-Serif" font-size="9.00">listenerRemoveButton.js</text>
</a>
</g>
</g>
<!-- src/init/index.js&#45;&gt;src/listeners/listenerRemoveButton.js -->
<g id="edge15" class="edge">
<title>src/init/index.js&#45;&gt;src/listeners/listenerRemoveButton.js</title>
<path fill="none" stroke="#000000" stroke-width="2" stroke-opacity="0.200000" d="M77.19,-130.44C82.69,-132.38 88.52,-134.34 94,-136 99.82,-137.76 105.97,-139.49 112.07,-141.11"/>
<polygon fill="#000000" fill-opacity="0.200000" stroke="#000000" stroke-width="2" stroke-opacity="0.200000" points="111.8,-143.21 118.14,-142.69 112.87,-139.14 111.8,-143.21"/>
</g>
<!-- src/listeners/listenerAddButton.js&#45;&gt;src/handlers/handlerNewItemList.js -->
<g id="edge17" class="edge">
<title>src/listeners/listenerAddButton.js&#45;&gt;src/handlers/handlerNewItemList.js</title>
<path fill="none" stroke="#000000" stroke-width="2" stroke-opacity="0.200000" d="M206.95,-121C217.08,-121 227.9,-121 238.37,-121"/>
<polygon fill="#000000" fill-opacity="0.200000" stroke="#000000" stroke-width="2" stroke-opacity="0.200000" points="238.49,-123.1 244.49,-121 238.49,-118.9 238.49,-123.1"/>
</g>
<!-- src/listeners/listenerRemoveButton.js&#45;&gt;src/handlers/handlerRemoveButton.js -->
<g id="edge18" class="edge">
<title>src/listeners/listenerRemoveButton.js&#45;&gt;src/handlers/handlerRemoveButton.js</title>
<path fill="none" stroke="#000000" stroke-width="2" stroke-opacity="0.200000" d="M215.47,-152C221.29,-152 227.24,-152 233.13,-152"/>
<polygon fill="#000000" fill-opacity="0.200000" stroke="#000000" stroke-width="2" stroke-opacity="0.200000" points="233.49,-154.1 239.49,-152 233.49,-149.9 233.49,-154.1"/>
</g>
</g>
</svg>
