<?xml version="1.0" encoding="UTF-8" standalone="no"?>
<!DOCTYPE svg PUBLIC "-//W3C//DTD SVG 1.1//EN"
 "http://www.w3.org/Graphics/SVG/1.1/DTD/svg11.dtd">
<!-- Generated by graphviz version 2.44.0 (20200408.0750)
 -->
<!-- Title: dependency&#45;cruiser output Pages: 1 -->
<svg width="734pt" height="262pt"
 viewBox="0.00 0.00 734.08 262.00" xmlns="http://www.w3.org/2000/svg" xmlns:xlink="http://www.w3.org/1999/xlink">
<g id="graph0" class="graph" transform="scale(1 1) rotate(0) translate(4 258)">
<title>dependency&#45;cruiser output</title>
<polygon fill="white" stroke="transparent" points="-4,4 -4,-258 730.08,-258 730.08,4 -4,4"/>
<g id="clust1" class="cluster">
<title>cluster_src</title>
<path fill="#ffffff" stroke="black" stroke-width="2" d="M20,-8C20,-8 706.08,-8 706.08,-8 712.08,-8 718.08,-14 718.08,-20 718.08,-20 718.08,-234 718.08,-234 718.08,-240 712.08,-246 706.08,-246 706.08,-246 20,-246 20,-246 14,-246 8,-240 8,-234 8,-234 8,-20 8,-20 8,-14 14,-8 20,-8"/>
<text text-anchor="middle" x="363.04" y="-233.9" font-family="Helvetica,sans-Serif" font-weight="bold" font-size="9.00">src</text>
</g>
<g id="clust2" class="cluster">
<title>cluster_src/components</title>
<path fill="#ffffff" stroke="black" stroke-width="2" d="M422.54,-16C422.54,-16 534.06,-16 534.06,-16 540.06,-16 546.06,-22 546.06,-28 546.06,-28 546.06,-181 546.06,-181 546.06,-187 540.06,-193 534.06,-193 534.06,-193 422.54,-193 422.54,-193 416.54,-193 410.54,-187 410.54,-181 410.54,-181 410.54,-28 410.54,-28 410.54,-22 416.54,-16 422.54,-16"/>
<text text-anchor="middle" x="478.3" y="-180.9" font-family="Helvetica,sans-Serif" font-weight="bold" font-size="9.00">components</text>
</g>
<g id="clust3" class="cluster">
<title>cluster_src/handlers</title>
<path fill="#ffffff" stroke="black" stroke-width="2" d="M265.02,-42C265.02,-42 390.54,-42 390.54,-42 396.54,-42 402.54,-48 402.54,-54 402.54,-54 402.54,-207 402.54,-207 402.54,-213 396.54,-219 390.54,-219 390.54,-219 265.02,-219 265.02,-219 259.02,-219 253.02,-213 253.02,-207 253.02,-207 253.02,-54 253.02,-54 253.02,-48 259.02,-42 265.02,-42"/>
<text text-anchor="middle" x="327.78" y="-206.9" font-family="Helvetica,sans-Serif" font-weight="bold" font-size="9.00">handlers</text>
</g>
<g id="clust4" class="cluster">
<title>cluster_src/init</title>
<path fill="#ffffff" stroke="black" stroke-width="2" d="M42.75,-104C42.75,-104 88.75,-104 88.75,-104 94.75,-104 100.75,-110 100.75,-116 100.75,-116 100.75,-145 100.75,-145 100.75,-151 94.75,-157 88.75,-157 88.75,-157 42.75,-157 42.75,-157 36.75,-157 30.75,-151 30.75,-145 30.75,-145 30.75,-116 30.75,-116 30.75,-110 36.75,-104 42.75,-104"/>
<text text-anchor="middle" x="65.75" y="-144.9" font-family="Helvetica,sans-Serif" font-weight="bold" font-size="9.00">init</text>
</g>
<g id="clust5" class="cluster">
<title>cluster_src/lib</title>
<path fill="#ffffff" stroke="black" stroke-width="2" d="M566.06,-166C566.06,-166 698.08,-166 698.08,-166 704.08,-166 710.08,-172 710.08,-178 710.08,-178 710.08,-207 710.08,-207 710.08,-213 704.08,-219 698.08,-219 698.08,-219 566.06,-219 566.06,-219 560.06,-219 554.06,-213 554.06,-207 554.06,-207 554.06,-178 554.06,-178 554.06,-172 560.06,-166 566.06,-166"/>
<text text-anchor="middle" x="632.07" y="-206.9" font-family="Helvetica,sans-Serif" font-weight="bold" font-size="9.00">lib</text>
</g>
<g id="clust6" class="cluster">
<title>cluster_src/listeners</title>
<path fill="#ffffff" stroke="black" stroke-width="2" d="M127.51,-104C127.51,-104 233.02,-104 233.02,-104 239.02,-104 245.02,-110 245.02,-116 245.02,-116 245.02,-207 245.02,-207 245.02,-213 239.02,-219 233.02,-219 233.02,-219 127.51,-219 127.51,-219 121.51,-219 115.51,-213 115.51,-207 115.51,-207 115.51,-116 115.51,-116 115.51,-110 121.51,-104 127.51,-104"/>
<text text-anchor="middle" x="180.26" y="-206.9" font-family="Helvetica,sans-Serif" font-weight="bold" font-size="9.00">listeners</text>
</g>
<g id="clust7" class="cluster">
<title>cluster_src/logic</title>
<path fill="#ffffff" stroke="black" stroke-width="2" d="M28,-16C28,-16 207.26,-16 207.26,-16 213.26,-16 219.26,-22 219.26,-28 219.26,-28 219.26,-57 219.26,-57 219.26,-63 213.26,-69 207.26,-69 207.26,-69 28,-69 28,-69 22,-69 16,-63 16,-57 16,-57 16,-28 16,-28 16,-22 22,-16 28,-16"/>
<text text-anchor="middle" x="117.63" y="-56.9" font-family="Helvetica,sans-Serif" font-weight="bold" font-size="9.00">logic</text>
</g>
<!-- src/components/divFormComponent.js -->
<g id="node1" class="node">
<title>src/components/divFormComponent.js</title>
<g id="a_node1"><a xlink:href="../src/components/divFormComponent.js" xlink:title="divFormComponent.js">
<path fill="#ffffcc" stroke="black" d="M524.1,-73.3C524.1,-73.3 432.49,-73.3 432.49,-73.3 429.39,-73.3 426.29,-70.2 426.29,-67.1 426.29,-67.1 426.29,-60.9 426.29,-60.9 426.29,-57.8 429.39,-54.7 432.49,-54.7 432.49,-54.7 524.1,-54.7 524.1,-54.7 527.2,-54.7 530.3,-57.8 530.3,-60.9 530.3,-60.9 530.3,-67.1 530.3,-67.1 530.3,-70.2 527.2,-73.3 524.1,-73.3"/>
<text text-anchor="middle" x="478.3" y="-61.3" font-family="Helvetica,sans-Serif" font-size="9.00">divFormComponent.js</text>
</a>
</g>
</g>
<!-- src/handlers/handlerDoneItem.js -->
<g id="node2" class="node">
<title>src/handlers/handlerDoneItem.js</title>
<g id="a_node2"><a xlink:href="../src/handlers/handlerDoneItem.js" xlink:title="handlerDoneItem.js">
<path fill="#ffffcc" stroke="black" d="M368.59,-68.3C368.59,-68.3 286.97,-68.3 286.97,-68.3 283.87,-68.3 280.77,-65.2 280.77,-62.1 280.77,-62.1 280.77,-55.9 280.77,-55.9 280.77,-52.8 283.87,-49.7 286.97,-49.7 286.97,-49.7 368.59,-49.7 368.59,-49.7 371.7,-49.7 374.8,-52.8 374.8,-55.9 374.8,-55.9 374.8,-62.1 374.8,-62.1 374.8,-65.2 371.7,-68.3 368.59,-68.3"/>
<text text-anchor="middle" x="327.78" y="-56.3" font-family="Helvetica,sans-Serif" font-size="9.00">handlerDoneItem.js</text>
</a>
</g>
</g>
<!-- src/components/divFormComponent.js&#45;&gt;src/handlers/handlerDoneItem.js -->
<g id="edge1" class="edge">
<title>src/components/divFormComponent.js&#45;&gt;src/handlers/handlerDoneItem.js</title>
<path fill="none" stroke="#000000" stroke-width="2" stroke-opacity="0.200000" d="M426.24,-62.28C414.28,-61.88 401.42,-61.45 389.1,-61.03"/>
<polygon fill="#000000" fill-opacity="0.200000" stroke="#000000" stroke-width="2" stroke-opacity="0.200000" points="381.03,-58.66 374.96,-60.55 380.88,-62.86 381.03,-58.66"/>
<polyline fill="none" stroke="#000000" stroke-width="2" stroke-opacity="0.200000" points="380.96,-60.76 383.95,-60.86 "/>
<ellipse fill="none" stroke="#000000" stroke-width="2" stroke-opacity="0.200000" cx="386.35" cy="-60.94" rx="2.4" ry="2.4"/>
</g>
<!-- src/handlers/handlerModItem.js -->
<g id="node3" class="node">
<title>src/handlers/handlerModItem.js</title>
<g id="a_node3"><a xlink:href="../src/handlers/handlerModItem.js" xlink:title="handlerModItem.js">
<path fill="#ffffcc" stroke="black" d="M366.59,-161.3C366.59,-161.3 288.97,-161.3 288.97,-161.3 285.87,-161.3 282.77,-158.2 282.77,-155.1 282.77,-155.1 282.77,-148.9 282.77,-148.9 282.77,-145.8 285.87,-142.7 288.97,-142.7 288.97,-142.7 366.59,-142.7 366.59,-142.7 369.69,-142.7 372.79,-145.8 372.79,-148.9 372.79,-148.9 372.79,-155.1 372.79,-155.1 372.79,-158.2 369.69,-161.3 366.59,-161.3"/>
<text text-anchor="middle" x="327.78" y="-149.3" font-family="Helvetica,sans-Serif" font-size="9.00">handlerModItem.js</text>
</a>
</g>
</g>
<!-- src/components/divFormComponent.js&#45;&gt;src/handlers/handlerModItem.js -->
<g id="edge2" class="edge">
<title>src/components/divFormComponent.js&#45;&gt;src/handlers/handlerModItem.js</title>
<path fill="none" stroke="#000000" stroke-width="2" stroke-opacity="0.200000" d="M426.29,-69.28C420.35,-71.78 414.87,-75.24 410.54,-80 393.61,-98.59 419.67,-117.6 402.54,-136 396.24,-142.77 387.81,-147.02 378.91,-149.63"/>
<polygon fill="#000000" fill-opacity="0.200000" stroke="#000000" stroke-width="2" stroke-opacity="0.200000" points="378.31,-147.61 373,-151.12 379.34,-151.69 378.31,-147.61"/>
</g>
<!-- src/components/newButtonComponent.js -->
<g id="node6" class="node">
<title>src/components/newButtonComponent.js</title>
<g id="a_node6"><a xlink:href="../src/components/newButtonComponent.js" xlink:title="newButtonComponent.js">
<path fill="#ffffcc" stroke="black" d="M529.13,-42.3C529.13,-42.3 427.47,-42.3 427.47,-42.3 424.37,-42.3 421.27,-39.2 421.27,-36.1 421.27,-36.1 421.27,-29.9 421.27,-29.9 421.27,-26.8 424.37,-23.7 427.47,-23.7 427.47,-23.7 529.13,-23.7 529.13,-23.7 532.23,-23.7 535.33,-26.8 535.33,-29.9 535.33,-29.9 535.33,-36.1 535.33,-36.1 535.33,-39.2 532.23,-42.3 529.13,-42.3"/>
<text text-anchor="middle" x="478.3" y="-30.3" font-family="Helvetica,sans-Serif" font-size="9.00">newButtonComponent.js</text>
</a>
</g>
</g>
<!-- src/handlers/handlerDoneItem.js&#45;&gt;src/components/newButtonComponent.js -->
<g id="edge5" class="edge">
<title>src/handlers/handlerDoneItem.js&#45;&gt;src/components/newButtonComponent.js</title>
<path fill="none" stroke="#000000" stroke-width="2" stroke-opacity="0.200000" d="M374.96,-50.92C386.16,-48.96 398.36,-46.82 410.3,-44.73"/>
<polygon fill="#000000" fill-opacity="0.200000" stroke="#000000" stroke-width="2" stroke-opacity="0.200000" points="418.59,-45.41 424.14,-42.31 417.86,-41.27 418.59,-45.41"/>
<polyline fill="none" stroke="#000000" stroke-width="2" stroke-opacity="0.200000" points="418.23,-43.34 415.27,-43.86 "/>
<ellipse fill="none" stroke="#000000" stroke-width="2" stroke-opacity="0.200000" cx="412.91" cy="-44.27" rx="2.4" ry="2.4"/>
</g>
<!-- src/data.js -->
<g id="node9" class="node">
<title>src/data.js</title>
<g id="a_node9"><a xlink:href="../src/data.js" xlink:title="data.js">
<path fill="#ffffcc" stroke="black" d="M499.1,-219.3C499.1,-219.3 457.5,-219.3 457.5,-219.3 454.4,-219.3 451.3,-216.2 451.3,-213.1 451.3,-213.1 451.3,-206.9 451.3,-206.9 451.3,-203.8 454.4,-200.7 457.5,-200.7 457.5,-200.7 499.1,-200.7 499.1,-200.7 502.2,-200.7 505.3,-203.8 505.3,-206.9 505.3,-206.9 505.3,-213.1 505.3,-213.1 505.3,-216.2 502.2,-219.3 499.1,-219.3"/>
<text text-anchor="middle" x="478.3" y="-207.3" font-family="Helvetica,sans-Serif" font-size="9.00">data.js</text>
</a>
</g>
</g>
<!-- src/handlers/handlerDoneItem.js&#45;&gt;src/data.js -->
<g id="edge6" class="edge">
<title>src/handlers/handlerDoneItem.js&#45;&gt;src/data.js</title>
<path fill="none" stroke="#000000" stroke-width="2" stroke-opacity="0.200000" d="M374.96,-59.85C385.43,-62.3 395.52,-66.86 402.54,-75 420.14,-95.41 392.87,-175.65 410.54,-196 419.01,-205.76 432.4,-209.74 444.96,-211.1"/>
<polygon fill="#000000" fill-opacity="0.200000" stroke="#000000" stroke-width="2" stroke-opacity="0.200000" points="444.9,-213.2 451.04,-211.57 445.22,-209.01 444.9,-213.2"/>
</g>
<!-- src/components/errorMessage.js -->
<g id="node4" class="node">
<title>src/components/errorMessage.js</title>
<g id="a_node4"><a xlink:href="../src/components/errorMessage.js" xlink:title="errorMessage.js">
<path fill="#ffffcc" stroke="black" d="M512.1,-166.3C512.1,-166.3 444.5,-166.3 444.5,-166.3 441.4,-166.3 438.3,-163.2 438.3,-160.1 438.3,-160.1 438.3,-153.9 438.3,-153.9 438.3,-150.8 441.4,-147.7 444.5,-147.7 444.5,-147.7 512.1,-147.7 512.1,-147.7 515.2,-147.7 518.3,-150.8 518.3,-153.9 518.3,-153.9 518.3,-160.1 518.3,-160.1 518.3,-163.2 515.2,-166.3 512.1,-166.3"/>
<text text-anchor="middle" x="478.3" y="-154.3" font-family="Helvetica,sans-Serif" font-size="9.00">errorMessage.js</text>
</a>
</g>
</g>
<!-- src/handlers/handlerModItem.js&#45;&gt;src/components/errorMessage.js -->
<g id="edge7" class="edge">
<title>src/handlers/handlerModItem.js&#45;&gt;src/components/errorMessage.js</title>
<path fill="none" stroke="#000000" stroke-width="2" stroke-opacity="0.200000" d="M372.94,-153.49C391.53,-154.11 413.15,-154.84 431.88,-155.47"/>
<polygon fill="#000000" fill-opacity="0.200000" stroke="#000000" stroke-width="2" stroke-opacity="0.200000" points="432.04,-157.58 438.11,-155.68 432.18,-153.38 432.04,-157.58"/>
</g>
<!-- src/handlers/handlerModItem.js&#45;&gt;src/data.js -->
<g id="edge8" class="edge">
<title>src/handlers/handlerModItem.js&#45;&gt;src/data.js</title>
<path fill="none" stroke="#000000" stroke-width="2" stroke-opacity="0.200000" d="M373.05,-153.77C383.81,-156.16 394.51,-160.47 402.54,-168 411.98,-176.85 401.07,-187.18 410.54,-196 419.77,-204.59 432.86,-208.46 445.01,-210.04"/>
<polygon fill="#000000" fill-opacity="0.200000" stroke="#000000" stroke-width="2" stroke-opacity="0.200000" points="445.08,-212.16 451.26,-210.68 445.5,-207.98 445.08,-212.16"/>
</g>
<!-- src/components/h2Component.js -->
<g id="node5" class="node">
<title>src/components/h2Component.js</title>
<g id="a_node5"><a xlink:href="../src/components/h2Component.js" xlink:title="h2Component.js">
<path fill="#ffffcc" stroke="black" d="M512.62,-135.3C512.62,-135.3 443.98,-135.3 443.98,-135.3 440.88,-135.3 437.78,-132.2 437.78,-129.1 437.78,-129.1 437.78,-122.9 437.78,-122.9 437.78,-119.8 440.88,-116.7 443.98,-116.7 443.98,-116.7 512.62,-116.7 512.62,-116.7 515.72,-116.7 518.82,-119.8 518.82,-122.9 518.82,-122.9 518.82,-129.1 518.82,-129.1 518.82,-132.2 515.72,-135.3 512.62,-135.3"/>
<text text-anchor="middle" x="478.3" y="-123.3" font-family="Helvetica,sans-Serif" font-size="9.00">h2Component.js</text>
</a>
</g>
</g>
<!-- src/handlers/handlerMoveItemContainer.js -->
<g id="node7" class="node">
<title>src/handlers/handlerMoveItemContainer.js</title>
<g id="a_node7"><a xlink:href="../src/handlers/handlerMoveItemContainer.js" xlink:title="handlerMoveItemContainer.js">
<path fill="#ffffcc" stroke="black" d="M388.1,-99.3C388.1,-99.3 267.46,-99.3 267.46,-99.3 264.36,-99.3 261.26,-96.2 261.26,-93.1 261.26,-93.1 261.26,-86.9 261.26,-86.9 261.26,-83.8 264.36,-80.7 267.46,-80.7 267.46,-80.7 388.1,-80.7 388.1,-80.7 391.2,-80.7 394.3,-83.8 394.3,-86.9 394.3,-86.9 394.3,-93.1 394.3,-93.1 394.3,-96.2 391.2,-99.3 388.1,-99.3"/>
<text text-anchor="middle" x="327.78" y="-87.3" font-family="Helvetica,sans-Serif" font-size="9.00">handlerMoveItemContainer.js</text>
</a>
</g>
</g>
<!-- src/components/newButtonComponent.js&#45;&gt;src/handlers/handlerMoveItemContainer.js -->
<g id="edge3" class="edge">
<title>src/components/newButtonComponent.js&#45;&gt;src/handlers/handlerMoveItemContainer.js</title>
<path fill="none" stroke="#000000" stroke-width="2" stroke-opacity="0.200000" d="M421.1,-41.67C417.26,-43.67 413.68,-46.08 410.54,-49 404.26,-54.83 407.55,-61.35 402.65,-70.12"/>
<polygon fill="#000000" fill-opacity="0.200000" stroke="#000000" stroke-width="2" stroke-opacity="0.200000" points="395.71,-74.72 393.28,-80.6 398.84,-77.52 395.71,-74.72"/>
<polyline fill="none" stroke="#000000" stroke-width="2" stroke-opacity="0.200000" points="397.28,-76.12 399.28,-73.89 "/>
<ellipse fill="none" stroke="#000000" stroke-width="2" stroke-opacity="0.200000" cx="400.88" cy="-72.1" rx="2.4" ry="2.4"/>
</g>
<!-- src/handlers/handlerMoveItemContainer.js&#45;&gt;src/components/divFormComponent.js -->
<g id="edge9" class="edge">
<title>src/handlers/handlerMoveItemContainer.js&#45;&gt;src/components/divFormComponent.js</title>
<path fill="none" stroke="#000000" stroke-width="2" stroke-opacity="0.200000" d="M381.98,-80.69C391.82,-78.96 402.2,-77.15 412.35,-75.37"/>
<polygon fill="#000000" fill-opacity="0.200000" stroke="#000000" stroke-width="2" stroke-opacity="0.200000" points="420.41,-76.09 425.96,-72.99 419.69,-71.95 420.41,-76.09"/>
<polyline fill="none" stroke="#000000" stroke-width="2" stroke-opacity="0.200000" points="420.05,-74.02 417.1,-74.54 "/>
<ellipse fill="none" stroke="#000000" stroke-width="2" stroke-opacity="0.200000" cx="414.73" cy="-74.95" rx="2.4" ry="2.4"/>
</g>
<!-- src/handlers/handlerMoveItemContainer.js&#45;&gt;src/components/h2Component.js -->
<g id="edge10" class="edge">
<title>src/handlers/handlerMoveItemContainer.js&#45;&gt;src/components/h2Component.js</title>
<path fill="none" stroke="#000000" stroke-width="2" stroke-opacity="0.200000" d="M380.03,-99.38C387.67,-101.27 395.37,-103.48 402.54,-106 406.29,-107.32 406.8,-108.64 410.54,-110 417.28,-112.45 424.53,-114.64 431.69,-116.55"/>
<polygon fill="#000000" fill-opacity="0.200000" stroke="#000000" stroke-width="2" stroke-opacity="0.200000" points="431.34,-118.62 437.67,-118.08 432.38,-114.55 431.34,-118.62"/>
</g>
<!-- src/components/newItemListComponent.js -->
<g id="node8" class="node">
<title>src/components/newItemListComponent.js</title>
<g id="a_node8"><a xlink:href="../src/components/newItemListComponent.js" xlink:title="newItemListComponent.js">
<path fill="#ffffcc" stroke="black" d="M531.62,-104.3C531.62,-104.3 424.98,-104.3 424.98,-104.3 421.88,-104.3 418.78,-101.2 418.78,-98.1 418.78,-98.1 418.78,-91.9 418.78,-91.9 418.78,-88.8 421.88,-85.7 424.98,-85.7 424.98,-85.7 531.62,-85.7 531.62,-85.7 534.72,-85.7 537.82,-88.8 537.82,-91.9 537.82,-91.9 537.82,-98.1 537.82,-98.1 537.82,-101.2 534.72,-104.3 531.62,-104.3"/>
<text text-anchor="middle" x="478.3" y="-92.3" font-family="Helvetica,sans-Serif" font-size="9.00">newItemListComponent.js</text>
</a>
</g>
</g>
<!-- src/handlers/handlerMoveItemContainer.js&#45;&gt;src/components/newItemListComponent.js -->
<g id="edge11" class="edge">
<title>src/handlers/handlerMoveItemContainer.js&#45;&gt;src/components/newItemListComponent.js</title>
<path fill="none" stroke="#000000" stroke-width="2" stroke-opacity="0.200000" d="M394.36,-92.21C400.42,-92.41 406.56,-92.62 412.61,-92.82"/>
<polygon fill="#000000" fill-opacity="0.200000" stroke="#000000" stroke-width="2" stroke-opacity="0.200000" points="412.56,-94.92 418.63,-93.02 412.7,-90.72 412.56,-94.92"/>
</g>
<!-- src/handlers/handlerMoveItemContainer.js&#45;&gt;src/data.js -->
<g id="edge12" class="edge">
<title>src/handlers/handlerMoveItemContainer.js&#45;&gt;src/data.js</title>
<path fill="none" stroke="#000000" stroke-width="2" stroke-opacity="0.200000" d="M394.31,-98.92C397.33,-100.91 400.11,-103.25 402.54,-106 415.82,-121.06 397.2,-180.99 410.54,-196 419.12,-205.66 432.52,-209.63 445.07,-211"/>
<polygon fill="#000000" fill-opacity="0.200000" stroke="#000000" stroke-width="2" stroke-opacity="0.200000" points="444.99,-213.1 451.14,-211.48 445.32,-208.92 444.99,-213.1"/>
</g>
<!-- src/lib/validate.js -->
<g id="node10" class="node">
<title>src/lib/validate.js</title>
<g id="a_node10"><a xlink:href="../src/lib/validate.js" xlink:title="validate.js">
<path fill="#ffffcc" stroke="black" d="M611.86,-192.3C611.86,-192.3 568.25,-192.3 568.25,-192.3 565.15,-192.3 562.05,-189.2 562.05,-186.1 562.05,-186.1 562.05,-179.9 562.05,-179.9 562.05,-176.8 565.15,-173.7 568.25,-173.7 568.25,-173.7 611.86,-173.7 611.86,-173.7 614.97,-173.7 618.07,-176.8 618.07,-179.9 618.07,-179.9 618.07,-186.1 618.07,-186.1 618.07,-189.2 614.97,-192.3 611.86,-192.3"/>
<text text-anchor="middle" x="590.06" y="-180.3" font-family="Helvetica,sans-Serif" font-size="9.00">validate.js</text>
</a>
</g>
</g>
<!-- src/data.js&#45;&gt;src/lib/validate.js -->
<g id="edge4" class="edge">
<title>src/data.js&#45;&gt;src/lib/validate.js</title>
<path fill="none" stroke="#000000" stroke-width="2" stroke-opacity="0.200000" d="M505.42,-205.07C517.79,-202.59 532.75,-199.4 546.06,-196 549.27,-195.18 552.6,-194.27 555.92,-193.33"/>
<polygon fill="#000000" fill-opacity="0.200000" stroke="#000000" stroke-width="2" stroke-opacity="0.200000" points="556.68,-195.3 561.86,-191.61 555.51,-191.26 556.68,-195.3"/>
</g>
<!-- src/lib/ajv7.bundle.js -->
<g id="node16" class="node">
<title>src/lib/ajv7.bundle.js</title>
<g id="a_node16"><a xlink:href="../src/lib/ajv7.bundle.js" xlink:title="ajv7.bundle.js">
<path fill="#ffffcc" stroke="black" d="M695.88,-192.3C695.88,-192.3 637.26,-192.3 637.26,-192.3 634.16,-192.3 631.06,-189.2 631.06,-186.1 631.06,-186.1 631.06,-179.9 631.06,-179.9 631.06,-176.8 634.16,-173.7 637.26,-173.7 637.26,-173.7 695.88,-173.7 695.88,-173.7 698.99,-173.7 702.09,-176.8 702.09,-179.9 702.09,-179.9 702.09,-186.1 702.09,-186.1 702.09,-189.2 698.99,-192.3 695.88,-192.3"/>
<text text-anchor="middle" x="666.57" y="-180.3" font-family="Helvetica,sans-Serif" font-size="9.00">ajv7.bundle.js</text>
</a>
</g>
</g>
<!-- src/lib/validate.js&#45;&gt;src/lib/ajv7.bundle.js -->
<g id="edge22" class="edge">
<title>src/lib/validate.js&#45;&gt;src/lib/ajv7.bundle.js</title>
<path fill="none" stroke="#000000" stroke-width="2" stroke-opacity="0.200000" d="M618.38,-183C620.42,-183 622.49,-183 624.59,-183"/>
<polygon fill="#000000" fill-opacity="0.200000" stroke="#000000" stroke-width="2" stroke-opacity="0.200000" points="624.89,-185.1 630.89,-183 624.89,-180.9 624.89,-185.1"/>
</g>
<!-- src/handlers/handlerNewItemList.js -->
<g id="node11" class="node">
<title>src/handlers/handlerNewItemList.js</title>
<g id="a_node11"><a xlink:href="../src/handlers/handlerNewItemList.js" xlink:title="handlerNewItemList.js">
<path fill="#ffffcc" stroke="black" d="M373.59,-130.3C373.59,-130.3 281.97,-130.3 281.97,-130.3 278.87,-130.3 275.77,-127.2 275.77,-124.1 275.77,-124.1 275.77,-117.9 275.77,-117.9 275.77,-114.8 278.87,-111.7 281.97,-111.7 281.97,-111.7 373.59,-111.7 373.59,-111.7 376.69,-111.7 379.79,-114.8 379.79,-117.9 379.79,-117.9 379.79,-124.1 379.79,-124.1 379.79,-127.2 376.69,-130.3 373.59,-130.3"/>
<text text-anchor="middle" x="327.78" y="-118.3" font-family="Helvetica,sans-Serif" font-size="9.00">handlerNewItemList.js</text>
</a>
</g>
</g>
<!-- src/handlers/handlerNewItemList.js&#45;&gt;src/components/divFormComponent.js -->
<g id="edge13" class="edge">
<title>src/handlers/handlerNewItemList.js&#45;&gt;src/components/divFormComponent.js</title>
<path fill="none" stroke="#000000" stroke-width="2" stroke-opacity="0.200000" d="M380.16,-117.13C388.38,-114.58 396.23,-110.73 402.54,-105 411.18,-97.16 401.99,-87.94 410.54,-80 413.53,-77.22 416.92,-74.9 420.54,-72.96"/>
<polygon fill="#000000" fill-opacity="0.200000" stroke="#000000" stroke-width="2" stroke-opacity="0.200000" points="421.47,-74.85 426,-70.39 419.68,-71.05 421.47,-74.85"/>
</g>
<!-- src/handlers/handlerNewItemList.js&#45;&gt;src/components/errorMessage.js -->
<g id="edge14" class="edge">
<title>src/handlers/handlerNewItemList.js&#45;&gt;src/components/errorMessage.js</title>
<path fill="none" stroke="#000000" stroke-width="2" stroke-opacity="0.200000" d="M380.03,-130.38C387.67,-132.27 395.37,-134.48 402.54,-137 406.29,-138.32 406.8,-139.64 410.54,-141 417.36,-143.49 424.72,-145.7 431.97,-147.62"/>
<polygon fill="#000000" fill-opacity="0.200000" stroke="#000000" stroke-width="2" stroke-opacity="0.200000" points="431.69,-149.71 438.02,-149.17 432.73,-145.65 431.69,-149.71"/>
</g>
<!-- src/handlers/handlerNewItemList.js&#45;&gt;src/components/h2Component.js -->
<g id="edge15" class="edge">
<title>src/handlers/handlerNewItemList.js&#45;&gt;src/components/h2Component.js</title>
<path fill="none" stroke="#000000" stroke-width="2" stroke-opacity="0.200000" d="M379.89,-122.72C396.48,-123.28 414.79,-123.9 431.01,-124.44"/>
<polygon fill="#000000" fill-opacity="0.200000" stroke="#000000" stroke-width="2" stroke-opacity="0.200000" points="431.28,-126.55 437.35,-124.66 431.43,-122.35 431.28,-126.55"/>
</g>
<!-- src/handlers/handlerNewItemList.js&#45;&gt;src/components/newItemListComponent.js -->
<g id="edge16" class="edge">
<title>src/handlers/handlerNewItemList.js&#45;&gt;src/components/newItemListComponent.js</title>
<path fill="none" stroke="#000000" stroke-width="2" stroke-opacity="0.200000" d="M379.89,-112.05C392.15,-109.91 405.34,-107.6 417.94,-105.39"/>
<polygon fill="#000000" fill-opacity="0.200000" stroke="#000000" stroke-width="2" stroke-opacity="0.200000" points="418.52,-107.42 424.07,-104.32 417.8,-103.28 418.52,-107.42"/>
</g>
<!-- src/handlers/handlerNewItemList.js&#45;&gt;src/data.js -->
<g id="edge17" class="edge">
<title>src/handlers/handlerNewItemList.js&#45;&gt;src/data.js</title>
<path fill="none" stroke="#000000" stroke-width="2" stroke-opacity="0.200000" d="M379.91,-123.63C388.45,-126.26 396.49,-130.46 402.54,-137 420.5,-156.43 392.51,-176.63 410.54,-196 419.27,-205.39 432.56,-209.34 444.99,-210.77"/>
<polygon fill="#000000" fill-opacity="0.200000" stroke="#000000" stroke-width="2" stroke-opacity="0.200000" points="444.84,-212.87 451,-211.29 445.2,-208.68 444.84,-212.87"/>
</g>
<!-- src/handlers/handlerRemoveButton.js -->
<g id="node12" class="node">
<title>src/handlers/handlerRemoveButton.js</title>
<g id="a_node12"><a xlink:href="../src/handlers/handlerRemoveButton.js" xlink:title="handlerRemoveButton.js">
<path fill="#ffffcc" stroke="black" d="M378.6,-192.3C378.6,-192.3 276.96,-192.3 276.96,-192.3 273.86,-192.3 270.76,-189.2 270.76,-186.1 270.76,-186.1 270.76,-179.9 270.76,-179.9 270.76,-176.8 273.86,-173.7 276.96,-173.7 276.96,-173.7 378.6,-173.7 378.6,-173.7 381.7,-173.7 384.8,-176.8 384.8,-179.9 384.8,-179.9 384.8,-186.1 384.8,-186.1 384.8,-189.2 381.7,-192.3 378.6,-192.3"/>
<text text-anchor="middle" x="327.78" y="-180.3" font-family="Helvetica,sans-Serif" font-size="9.00">handlerRemoveButton.js</text>
</a>
</g>
</g>
<!-- src/handlers/handlerRemoveButton.js&#45;&gt;src/data.js -->
<g id="edge18" class="edge">
<title>src/handlers/handlerRemoveButton.js&#45;&gt;src/data.js</title>
<path fill="none" stroke="#000000" stroke-width="2" stroke-opacity="0.200000" d="M380.31,-192.37C401.84,-196.28 426.18,-200.71 445.1,-204.15"/>
<polygon fill="#000000" fill-opacity="0.200000" stroke="#000000" stroke-width="2" stroke-opacity="0.200000" points="445.02,-206.27 451.29,-205.27 445.77,-202.13 445.02,-206.27"/>
</g>
<!-- src/init/index.js -->
<g id="node13" class="node">
<title>src/init/index.js</title>
<g id="a_node13"><a xlink:href="../src/init/index.js" xlink:title="index.js">
<path fill="#ffffcc" stroke="black" d="M86.55,-130.3C86.55,-130.3 44.95,-130.3 44.95,-130.3 41.85,-130.3 38.75,-127.2 38.75,-124.1 38.75,-124.1 38.75,-117.9 38.75,-117.9 38.75,-114.8 41.85,-111.7 44.95,-111.7 44.95,-111.7 86.55,-111.7 86.55,-111.7 89.65,-111.7 92.75,-114.8 92.75,-117.9 92.75,-117.9 92.75,-124.1 92.75,-124.1 92.75,-127.2 89.65,-130.3 86.55,-130.3"/>
<text text-anchor="middle" x="65.75" y="-118.3" font-family="Helvetica,sans-Serif" font-size="9.00">index.js</text>
</a>
</g>
</g>
<!-- src/init/index.js&#45;&gt;src/components/divFormComponent.js -->
<g id="edge19" class="edge">
<title>src/init/index.js&#45;&gt;src/components/divFormComponent.js</title>
<path fill="none" stroke="#000000" stroke-width="2" stroke-opacity="0.200000" d="M87.35,-111.65C95.93,-107.99 106.08,-103.97 115.51,-101 171.78,-83.3 202.95,-113.34 245.02,-72 255.79,-61.42 241.16,-48.33 253.02,-39 305.25,2.08 341.92,-11.78 402.54,-39 407.42,-41.19 405.95,-45.25 410.54,-48 413.54,-49.8 416.74,-51.4 420.04,-52.81"/>
<polygon fill="#000000" fill-opacity="0.200000" stroke="#000000" stroke-width="2" stroke-opacity="0.200000" points="419.72,-54.94 426.07,-55.18 421.25,-51.03 419.72,-54.94"/>
</g>
<!-- src/listeners/listenerAddButton.js -->
<g id="node14" class="node">
<title>src/listeners/listenerAddButton.js</title>
<g id="a_node14"><a xlink:href="../src/listeners/listenerAddButton.js" xlink:title="listenerAddButton.js">
<path fill="#ffffcc" stroke="black" d="M222.08,-130.3C222.08,-130.3 138.44,-130.3 138.44,-130.3 135.34,-130.3 132.24,-127.2 132.24,-124.1 132.24,-124.1 132.24,-117.9 132.24,-117.9 132.24,-114.8 135.34,-111.7 138.44,-111.7 138.44,-111.7 222.08,-111.7 222.08,-111.7 225.19,-111.7 228.29,-114.8 228.29,-117.9 228.29,-117.9 228.29,-124.1 228.29,-124.1 228.29,-127.2 225.19,-130.3 222.08,-130.3"/>
<text text-anchor="middle" x="180.26" y="-118.3" font-family="Helvetica,sans-Serif" font-size="9.00">listenerAddButton.js</text>
</a>
</g>
</g>
<!-- src/init/index.js&#45;&gt;src/listeners/listenerAddButton.js -->
<g id="edge20" class="edge">
<title>src/init/index.js&#45;&gt;src/listeners/listenerAddButton.js</title>
<path fill="none" stroke="#000000" stroke-width="2" stroke-opacity="0.200000" d="M92.85,-121C102.8,-121 114.54,-121 126.1,-121"/>
<polygon fill="#000000" fill-opacity="0.200000" stroke="#000000" stroke-width="2" stroke-opacity="0.200000" points="126.12,-123.1 132.12,-121 126.12,-118.9 126.12,-123.1"/>
</g>
<!-- src/listeners/listenerRemoveButton.js -->
<g id="node15" class="node">
<title>src/listeners/listenerRemoveButton.js</title>
<g id="a_node15"><a xlink:href="../src/listeners/listenerRemoveButton.js" xlink:title="listenerRemoveButton.js">
<path fill="#ffffcc" stroke="black" d="M230.58,-192.3C230.58,-192.3 129.95,-192.3 129.95,-192.3 126.85,-192.3 123.75,-189.2 123.75,-186.1 123.75,-186.1 123.75,-179.9 123.75,-179.9 123.75,-176.8 126.85,-173.7 129.95,-173.7 129.95,-173.7 230.58,-173.7 230.58,-173.7 233.68,-173.7 236.78,-176.8 236.78,-179.9 236.78,-179.9 236.78,-186.1 236.78,-186.1 236.78,-189.2 233.68,-192.3 230.58,-192.3"/>
<text text-anchor="middle" x="180.26" y="-180.3" font-family="Helvetica,sans-Serif" font-size="9.00">listenerRemoveButton.js</text>
</a>
</g>
</g>
<!-- src/init/index.js&#45;&gt;src/listeners/listenerRemoveButton.js -->
<g id="edge21" class="edge">
<title>src/init/index.js&#45;&gt;src/listeners/listenerRemoveButton.js</title>
<path fill="none" stroke="#000000" stroke-width="2" stroke-opacity="0.200000" d="M74.31,-130.62C83.1,-141.13 98.56,-157.72 115.51,-167 118.51,-168.64 121.68,-170.12 124.95,-171.45"/>
<polygon fill="#000000" fill-opacity="0.200000" stroke="#000000" stroke-width="2" stroke-opacity="0.200000" points="124.55,-173.55 130.91,-173.69 126.03,-169.61 124.55,-173.55"/>
</g>
<!-- src/listeners/listenerAddButton.js&#45;&gt;src/handlers/handlerNewItemList.js -->
<g id="edge23" class="edge">
<title>src/listeners/listenerAddButton.js&#45;&gt;src/handlers/handlerNewItemList.js</title>
<path fill="none" stroke="#000000" stroke-width="2" stroke-opacity="0.200000" d="M228.51,-121C241.61,-121 255.97,-121 269.57,-121"/>
<polygon fill="#000000" fill-opacity="0.200000" stroke="#000000" stroke-width="2" stroke-opacity="0.200000" points="269.76,-123.1 275.76,-121 269.76,-118.9 269.76,-123.1"/>
</g>
<!-- src/listeners/listenerRemoveButton.js&#45;&gt;src/handlers/handlerRemoveButton.js -->
<g id="edge25" class="edge">
<title>src/listeners/listenerRemoveButton.js&#45;&gt;src/handlers/handlerRemoveButton.js</title>
<path fill="none" stroke="#000000" stroke-width="2" stroke-opacity="0.200000" d="M237.11,-183C245.97,-183 255.18,-183 264.17,-183"/>
<polygon fill="#000000" fill-opacity="0.200000" stroke="#000000" stroke-width="2" stroke-opacity="0.200000" points="264.36,-185.1 270.36,-183 264.36,-180.9 264.36,-185.1"/>
</g>
<!-- src/listeners/listenerModifuButton.js -->
<g id="node17" class="node">
<title>src/listeners/listenerModifuButton.js</title>
<g id="a_node17"><a xlink:href="../src/listeners/listenerModifuButton.js" xlink:title="listenerModifuButton.js">
<path fill="#ffffcc" stroke="black" d="M227.58,-161.3C227.58,-161.3 132.95,-161.3 132.95,-161.3 129.85,-161.3 126.75,-158.2 126.75,-155.1 126.75,-155.1 126.75,-148.9 126.75,-148.9 126.75,-145.8 129.85,-142.7 132.95,-142.7 132.95,-142.7 227.58,-142.7 227.58,-142.7 230.68,-142.7 233.78,-145.8 233.78,-148.9 233.78,-148.9 233.78,-155.1 233.78,-155.1 233.78,-158.2 230.68,-161.3 227.58,-161.3"/>
<text text-anchor="middle" x="180.26" y="-149.3" font-family="Helvetica,sans-Serif" font-size="9.00">listenerModifuButton.js</text>
</a>
</g>
</g>
<!-- src/listeners/listenerModifuButton.js&#45;&gt;src/handlers/handlerModItem.js -->
<g id="edge24" class="edge">
<title>src/listeners/listenerModifuButton.js&#45;&gt;src/handlers/handlerModItem.js</title>
<path fill="none" stroke="#000000" stroke-width="2" stroke-opacity="0.200000" d="M233.8,-152C247.64,-152 262.53,-152 276.26,-152"/>
<polygon fill="#000000" fill-opacity="0.200000" stroke="#000000" stroke-width="2" stroke-opacity="0.200000" points="276.48,-154.1 282.48,-152 276.48,-149.9 276.48,-154.1"/>
</g>
<!-- src/logic/sortItems.js -->
<g id="node18" class="node">
<title>src/logic/sortItems.js</title>
<g id="a_node18"><a xlink:href="../src/logic/sortItems.js" xlink:title="sortItems.js">
<path fill="#ffffcc" stroke="black" d="M205.06,-42.3C205.06,-42.3 155.47,-42.3 155.47,-42.3 152.37,-42.3 149.26,-39.2 149.26,-36.1 149.26,-36.1 149.26,-29.9 149.26,-29.9 149.26,-26.8 152.37,-23.7 155.47,-23.7 155.47,-23.7 205.06,-23.7 205.06,-23.7 208.16,-23.7 211.26,-26.8 211.26,-29.9 211.26,-29.9 211.26,-36.1 211.26,-36.1 211.26,-39.2 208.16,-42.3 205.06,-42.3"/>
<text text-anchor="middle" x="180.26" y="-30.3" font-family="Helvetica,sans-Serif" font-size="9.00">sortItems.js</text>
</a>
</g>
</g>
<!-- src/logic/sortItems.spec.js -->
<g id="node19" class="node">
<title>src/logic/sortItems.spec.js</title>
<g id="a_node19"><a xlink:href="../src/logic/sortItems.spec.js" xlink:title="sortItems.spec.js">
<path fill="#ffffcc" stroke="black" d="M101.06,-42.3C101.06,-42.3 30.45,-42.3 30.45,-42.3 27.35,-42.3 24.24,-39.2 24.24,-36.1 24.24,-36.1 24.24,-29.9 24.24,-29.9 24.24,-26.8 27.35,-23.7 30.45,-23.7 30.45,-23.7 101.06,-23.7 101.06,-23.7 104.16,-23.7 107.26,-26.8 107.26,-29.9 107.26,-29.9 107.26,-36.1 107.26,-36.1 107.26,-39.2 104.16,-42.3 101.06,-42.3"/>
<text text-anchor="middle" x="65.75" y="-30.3" font-family="Helvetica,sans-Serif" font-size="9.00">sortItems.spec.js</text>
</a>
</g>
</g>
<!-- src/logic/sortItems.spec.js&#45;&gt;src/logic/sortItems.js -->
<g id="edge26" class="edge">
<title>src/logic/sortItems.spec.js&#45;&gt;src/logic/sortItems.js</title>
<path fill="none" stroke="#000000" stroke-width="2" stroke-opacity="0.200000" d="M107.37,-33C118.95,-33 131.49,-33 142.8,-33"/>
<polygon fill="#000000" fill-opacity="0.200000" stroke="#000000" stroke-width="2" stroke-opacity="0.200000" points="142.95,-35.1 148.95,-33 142.95,-30.9 142.95,-35.1"/>
</g>
</g>
</svg>
