<?xml version="1.0" encoding="UTF-8" standalone="no"?>
<!DOCTYPE svg PUBLIC "-//W3C//DTD SVG 1.1//EN"
 "http://www.w3.org/Graphics/SVG/1.1/DTD/svg11.dtd">
<!-- Generated by graphviz version 2.44.0 (20200408.0750)
 -->
<!-- Title: dependency&#45;cruiser output Pages: 1 -->
<svg width="677pt" height="231pt"
 viewBox="0.00 0.00 677.06 231.00" xmlns="http://www.w3.org/2000/svg" xmlns:xlink="http://www.w3.org/1999/xlink">
<g id="graph0" class="graph" transform="scale(1 1) rotate(0) translate(4 227)">
<title>dependency&#45;cruiser output</title>
<polygon fill="white" stroke="transparent" points="-4,4 -4,-227 673.06,-227 673.06,4 -4,4"/>
<g id="clust1" class="cluster">
<title>cluster_src</title>
<path fill="#ffffff" stroke="black" stroke-width="2" d="M20,-8C20,-8 649.06,-8 649.06,-8 655.06,-8 661.06,-14 661.06,-20 661.06,-20 661.06,-203 661.06,-203 661.06,-209 655.06,-215 649.06,-215 649.06,-215 20,-215 20,-215 14,-215 8,-209 8,-203 8,-203 8,-20 8,-20 8,-14 14,-8 20,-8"/>
<text text-anchor="middle" x="334.53" y="-202.9" font-family="Helvetica,sans-Serif" font-weight="bold" font-size="9.00">src</text>
</g>
<g id="clust2" class="cluster">
<title>cluster_src/components</title>
<path fill="#ffffff" stroke="black" stroke-width="2" d="M365.52,-16C365.52,-16 477.04,-16 477.04,-16 483.04,-16 489.04,-22 489.04,-28 489.04,-28 489.04,-150 489.04,-150 489.04,-156 483.04,-162 477.04,-162 477.04,-162 365.52,-162 365.52,-162 359.52,-162 353.52,-156 353.52,-150 353.52,-150 353.52,-28 353.52,-28 353.52,-22 359.52,-16 365.52,-16"/>
<text text-anchor="middle" x="421.28" y="-149.9" font-family="Helvetica,sans-Serif" font-weight="bold" font-size="9.00">components</text>
</g>
<g id="clust3" class="cluster">
<title>cluster_src/handlers</title>
<path fill="#ffffff" stroke="black" stroke-width="2" d="M237.02,-47C237.02,-47 333.52,-47 333.52,-47 339.52,-47 345.52,-53 345.52,-59 345.52,-59 345.52,-150 345.52,-150 345.52,-156 339.52,-162 333.52,-162 333.52,-162 237.02,-162 237.02,-162 231.02,-162 225.02,-156 225.02,-150 225.02,-150 225.02,-59 225.02,-59 225.02,-53 231.02,-47 237.02,-47"/>
<text text-anchor="middle" x="285.27" y="-149.9" font-family="Helvetica,sans-Serif" font-weight="bold" font-size="9.00">handlers</text>
</g>
<g id="clust4" class="cluster">
<title>cluster_src/init</title>
<path fill="#ffffff" stroke="black" stroke-width="2" d="M28,-78C28,-78 74,-78 74,-78 80,-78 86,-84 86,-90 86,-90 86,-119 86,-119 86,-125 80,-131 74,-131 74,-131 28,-131 28,-131 22,-131 16,-125 16,-119 16,-119 16,-90 16,-90 16,-84 22,-78 28,-78"/>
<text text-anchor="middle" x="51" y="-118.9" font-family="Helvetica,sans-Serif" font-weight="bold" font-size="9.00">init</text>
</g>
<g id="clust5" class="cluster">
<title>cluster_src/lib</title>
<path fill="#ffffff" stroke="black" stroke-width="2" d="M509.04,-135C509.04,-135 641.06,-135 641.06,-135 647.06,-135 653.06,-141 653.06,-147 653.06,-147 653.06,-176 653.06,-176 653.06,-182 647.06,-188 641.06,-188 641.06,-188 509.04,-188 509.04,-188 503.04,-188 497.04,-182 497.04,-176 497.04,-176 497.04,-147 497.04,-147 497.04,-141 503.04,-135 509.04,-135"/>
<text text-anchor="middle" x="575.05" y="-175.9" font-family="Helvetica,sans-Serif" font-weight="bold" font-size="9.00">lib</text>
</g>
<g id="clust6" class="cluster">
<title>cluster_src/listeners</title>
<path fill="#ffffff" stroke="black" stroke-width="2" d="M106,-78C106,-78 205.02,-78 205.02,-78 211.02,-78 217.02,-84 217.02,-90 217.02,-90 217.02,-150 217.02,-150 217.02,-156 211.02,-162 205.02,-162 205.02,-162 106,-162 106,-162 100,-162 94,-156 94,-150 94,-150 94,-90 94,-90 94,-84 100,-78 106,-78"/>
<text text-anchor="middle" x="155.51" y="-149.9" font-family="Helvetica,sans-Serif" font-weight="bold" font-size="9.00">listeners</text>
</g>
<!-- src/components/divFormComponent.js -->
<g id="node1" class="node">
<title>src/components/divFormComponent.js</title>
<g id="a_node1"><a xlink:href="../src/components/divFormComponent.js" xlink:title="divFormComponent.js">
<path fill="#ffffcc" stroke="black" d="M467.09,-73.3C467.09,-73.3 375.48,-73.3 375.48,-73.3 372.38,-73.3 369.28,-70.2 369.28,-67.1 369.28,-67.1 369.28,-60.9 369.28,-60.9 369.28,-57.8 372.38,-54.7 375.48,-54.7 375.48,-54.7 467.09,-54.7 467.09,-54.7 470.19,-54.7 473.29,-57.8 473.29,-60.9 473.29,-60.9 473.29,-67.1 473.29,-67.1 473.29,-70.2 470.19,-73.3 467.09,-73.3"/>
<text text-anchor="middle" x="421.28" y="-61.3" font-family="Helvetica,sans-Serif" font-size="9.00">divFormComponent.js</text>
</a>
</g>
</g>
<!-- src/handlers/handlerDoneItem.js -->
<g id="node2" class="node">
<title>src/handlers/handlerDoneItem.js</title>
<g id="a_node2"><a xlink:href="../src/handlers/handlerDoneItem.js" xlink:title="handlerDoneItem.js">
<path fill="#ffffcc" stroke="black" d="M326.08,-73.3C326.08,-73.3 244.46,-73.3 244.46,-73.3 241.36,-73.3 238.25,-70.2 238.25,-67.1 238.25,-67.1 238.25,-60.9 238.25,-60.9 238.25,-57.8 241.36,-54.7 244.46,-54.7 244.46,-54.7 326.08,-54.7 326.08,-54.7 329.18,-54.7 332.28,-57.8 332.28,-60.9 332.28,-60.9 332.28,-67.1 332.28,-67.1 332.28,-70.2 329.18,-73.3 326.08,-73.3"/>
<text text-anchor="middle" x="285.27" y="-61.3" font-family="Helvetica,sans-Serif" font-size="9.00">handlerDoneItem.js</text>
</a>
</g>
</g>
<!-- src/components/divFormComponent.js&#45;&gt;src/handlers/handlerDoneItem.js -->
<g id="edge1" class="edge">
<title>src/components/divFormComponent.js&#45;&gt;src/handlers/handlerDoneItem.js</title>
<path fill="none" stroke="#000000" stroke-width="2" stroke-opacity="0.200000" d="M369.03,-68.39C361.59,-68.5 353.87,-68.53 346.28,-68.48"/>
<polygon fill="#000000" fill-opacity="0.200000" stroke="#000000" stroke-width="2" stroke-opacity="0.200000" points="338.42,-66.28 332.39,-68.3 338.36,-70.48 338.42,-66.28"/>
<polyline fill="none" stroke="#000000" stroke-width="2" stroke-opacity="0.200000" points="338.39,-68.38 341.39,-68.42 "/>
<ellipse fill="none" stroke="#000000" stroke-width="2" stroke-opacity="0.200000" cx="343.79" cy="-68.45" rx="2.4" ry="2.4"/>
</g>
<!-- src/handlers/handlerModItem.js -->
<g id="node3" class="node">
<title>src/handlers/handlerModItem.js</title>
<g id="a_node3"><a xlink:href="../src/handlers/handlerModItem.js" xlink:title="handlerModItem.js">
<path fill="#ffffcc" stroke="black" d="M324.08,-135.3C324.08,-135.3 246.46,-135.3 246.46,-135.3 243.36,-135.3 240.26,-132.2 240.26,-129.1 240.26,-129.1 240.26,-122.9 240.26,-122.9 240.26,-119.8 243.36,-116.7 246.46,-116.7 246.46,-116.7 324.08,-116.7 324.08,-116.7 327.18,-116.7 330.28,-119.8 330.28,-122.9 330.28,-122.9 330.28,-129.1 330.28,-129.1 330.28,-132.2 327.18,-135.3 324.08,-135.3"/>
<text text-anchor="middle" x="285.27" y="-123.3" font-family="Helvetica,sans-Serif" font-size="9.00">handlerModItem.js</text>
</a>
</g>
</g>
<!-- src/components/divFormComponent.js&#45;&gt;src/handlers/handlerModItem.js -->
<g id="edge2" class="edge">
<title>src/components/divFormComponent.js&#45;&gt;src/handlers/handlerModItem.js</title>
<path fill="none" stroke="#000000" stroke-width="2" stroke-opacity="0.200000" d="M369.12,-70.05C363.35,-72.44 357.96,-75.67 353.52,-80 343.64,-89.63 355.27,-100.23 345.52,-110 342.76,-112.77 339.57,-115.08 336.13,-117"/>
<polygon fill="#000000" fill-opacity="0.200000" stroke="#000000" stroke-width="2" stroke-opacity="0.200000" points="335.03,-115.2 330.54,-119.7 336.86,-118.98 335.03,-115.2"/>
</g>
<!-- src/handlers/handlerDoneItem.js&#45;&gt;src/components/divFormComponent.js -->
<g id="edge5" class="edge">
<title>src/handlers/handlerDoneItem.js&#45;&gt;src/components/divFormComponent.js</title>
<path fill="none" stroke="#000000" stroke-width="2" stroke-opacity="0.200000" d="M332.39,-59.7C339.68,-59.56 347.33,-59.49 354.96,-59.5"/>
<polygon fill="#000000" fill-opacity="0.200000" stroke="#000000" stroke-width="2" stroke-opacity="0.200000" points="363.01,-61.66 369.03,-59.61 363.04,-57.46 363.01,-61.66"/>
<polyline fill="none" stroke="#000000" stroke-width="2" stroke-opacity="0.200000" points="363.03,-59.56 360.03,-59.54 "/>
<ellipse fill="none" stroke="#000000" stroke-width="2" stroke-opacity="0.200000" cx="357.63" cy="-59.52" rx="2.4" ry="2.4"/>
</g>
<!-- src/components/newButtonComponent.js -->
<g id="node5" class="node">
<title>src/components/newButtonComponent.js</title>
<g id="a_node5"><a xlink:href="../src/components/newButtonComponent.js" xlink:title="newButtonComponent.js">
<path fill="#ffffcc" stroke="black" d="M472.11,-42.3C472.11,-42.3 370.45,-42.3 370.45,-42.3 367.35,-42.3 364.25,-39.2 364.25,-36.1 364.25,-36.1 364.25,-29.9 364.25,-29.9 364.25,-26.8 367.35,-23.7 370.45,-23.7 370.45,-23.7 472.11,-23.7 472.11,-23.7 475.21,-23.7 478.31,-26.8 478.31,-29.9 478.31,-29.9 478.31,-36.1 478.31,-36.1 478.31,-39.2 475.21,-42.3 472.11,-42.3"/>
<text text-anchor="middle" x="421.28" y="-30.3" font-family="Helvetica,sans-Serif" font-size="9.00">newButtonComponent.js</text>
</a>
</g>
</g>
<!-- src/handlers/handlerDoneItem.js&#45;&gt;src/components/newButtonComponent.js -->
<g id="edge6" class="edge">
<title>src/handlers/handlerDoneItem.js&#45;&gt;src/components/newButtonComponent.js</title>
<path fill="none" stroke="#000000" stroke-width="2" stroke-opacity="0.200000" d="M311.16,-54.65C322.46,-51.47 336.45,-47.93 350.6,-44.62"/>
<polygon fill="#000000" fill-opacity="0.200000" stroke="#000000" stroke-width="2" stroke-opacity="0.200000" points="358.74,-44.92 364.13,-41.54 357.81,-40.83 358.74,-44.92"/>
<polyline fill="none" stroke="#000000" stroke-width="2" stroke-opacity="0.200000" points="358.28,-42.87 355.35,-43.54 "/>
<ellipse fill="none" stroke="#000000" stroke-width="2" stroke-opacity="0.200000" cx="353.01" cy="-44.07" rx="2.4" ry="2.4"/>
</g>
<!-- src/components/newItemListComponent.js -->
<g id="node6" class="node">
<title>src/components/newItemListComponent.js</title>
<g id="a_node6"><a xlink:href="../src/components/newItemListComponent.js" xlink:title="newItemListComponent.js">
<path fill="#ffffcc" stroke="black" d="M474.6,-104.3C474.6,-104.3 367.96,-104.3 367.96,-104.3 364.86,-104.3 361.76,-101.2 361.76,-98.1 361.76,-98.1 361.76,-91.9 361.76,-91.9 361.76,-88.8 364.86,-85.7 367.96,-85.7 367.96,-85.7 474.6,-85.7 474.6,-85.7 477.7,-85.7 480.8,-88.8 480.8,-91.9 480.8,-91.9 480.8,-98.1 480.8,-98.1 480.8,-101.2 477.7,-104.3 474.6,-104.3"/>
<text text-anchor="middle" x="421.28" y="-92.3" font-family="Helvetica,sans-Serif" font-size="9.00">newItemListComponent.js</text>
</a>
</g>
</g>
<!-- src/handlers/handlerDoneItem.js&#45;&gt;src/components/newItemListComponent.js -->
<g id="edge7" class="edge">
<title>src/handlers/handlerDoneItem.js&#45;&gt;src/components/newItemListComponent.js</title>
<path fill="none" stroke="#000000" stroke-width="2" stroke-opacity="0.200000" d="M326.84,-73.39C341.67,-76.81 358.55,-80.72 373.85,-84.26"/>
<polygon fill="#000000" fill-opacity="0.200000" stroke="#000000" stroke-width="2" stroke-opacity="0.200000" points="373.53,-86.34 379.85,-85.65 374.48,-82.25 373.53,-86.34"/>
</g>
<!-- src/data.js -->
<g id="node7" class="node">
<title>src/data.js</title>
<g id="a_node7"><a xlink:href="../src/data.js" xlink:title="data.js">
<path fill="#ffffcc" stroke="black" d="M442.08,-188.3C442.08,-188.3 400.48,-188.3 400.48,-188.3 397.38,-188.3 394.28,-185.2 394.28,-182.1 394.28,-182.1 394.28,-175.9 394.28,-175.9 394.28,-172.8 397.38,-169.7 400.48,-169.7 400.48,-169.7 442.08,-169.7 442.08,-169.7 445.18,-169.7 448.28,-172.8 448.28,-175.9 448.28,-175.9 448.28,-182.1 448.28,-182.1 448.28,-185.2 445.18,-188.3 442.08,-188.3"/>
<text text-anchor="middle" x="421.28" y="-176.3" font-family="Helvetica,sans-Serif" font-size="9.00">data.js</text>
</a>
</g>
</g>
<!-- src/handlers/handlerDoneItem.js&#45;&gt;src/data.js -->
<g id="edge8" class="edge">
<title>src/handlers/handlerDoneItem.js&#45;&gt;src/data.js</title>
<path fill="none" stroke="#000000" stroke-width="2" stroke-opacity="0.200000" d="M332.38,-70.22C337.39,-72.59 341.95,-75.76 345.52,-80 357.75,-94.51 340.89,-150.85 353.52,-165 362.13,-174.64 375.53,-178.6 388.08,-179.98"/>
<polygon fill="#000000" fill-opacity="0.200000" stroke="#000000" stroke-width="2" stroke-opacity="0.200000" points="387.99,-182.08 394.14,-180.46 388.33,-177.89 387.99,-182.08"/>
</g>
<!-- src/components/errorMessage.js -->
<g id="node4" class="node">
<title>src/components/errorMessage.js</title>
<g id="a_node4"><a xlink:href="../src/components/errorMessage.js" xlink:title="errorMessage.js">
<path fill="#ffffcc" stroke="black" d="M455.08,-135.3C455.08,-135.3 387.48,-135.3 387.48,-135.3 384.38,-135.3 381.28,-132.2 381.28,-129.1 381.28,-129.1 381.28,-122.9 381.28,-122.9 381.28,-119.8 384.38,-116.7 387.48,-116.7 387.48,-116.7 455.08,-116.7 455.08,-116.7 458.18,-116.7 461.28,-119.8 461.28,-122.9 461.28,-122.9 461.28,-129.1 461.28,-129.1 461.28,-132.2 458.18,-135.3 455.08,-135.3"/>
<text text-anchor="middle" x="421.28" y="-123.3" font-family="Helvetica,sans-Serif" font-size="9.00">errorMessage.js</text>
</a>
</g>
</g>
<!-- src/handlers/handlerModItem.js&#45;&gt;src/components/errorMessage.js -->
<g id="edge9" class="edge">
<title>src/handlers/handlerModItem.js&#45;&gt;src/components/errorMessage.js</title>
<path fill="none" stroke="#000000" stroke-width="2" stroke-opacity="0.200000" d="M330.52,-126C344.8,-126 360.64,-126 374.99,-126"/>
<polygon fill="#000000" fill-opacity="0.200000" stroke="#000000" stroke-width="2" stroke-opacity="0.200000" points="375.04,-128.1 381.04,-126 375.04,-123.9 375.04,-128.1"/>
</g>
<!-- src/handlers/handlerModItem.js&#45;&gt;src/data.js -->
<g id="edge10" class="edge">
<title>src/handlers/handlerModItem.js&#45;&gt;src/data.js</title>
<path fill="none" stroke="#000000" stroke-width="2" stroke-opacity="0.200000" d="M299.54,-135.41C312.66,-144.3 333.61,-157.37 353.52,-165 364.44,-169.19 376.86,-172.22 388.01,-174.38"/>
<polygon fill="#000000" fill-opacity="0.200000" stroke="#000000" stroke-width="2" stroke-opacity="0.200000" points="387.77,-176.47 394.05,-175.49 388.53,-172.34 387.77,-176.47"/>
</g>
<!-- src/components/newButtonComponent.js&#45;&gt;src/handlers/handlerDoneItem.js -->
<g id="edge3" class="edge">
<title>src/components/newButtonComponent.js&#45;&gt;src/handlers/handlerDoneItem.js</title>
<path fill="none" stroke="#000000" stroke-width="2" stroke-opacity="0.200000" d="M395.56,-42.3C381.61,-46.24 363.54,-50.71 346.13,-54.63"/>
<polygon fill="#000000" fill-opacity="0.200000" stroke="#000000" stroke-width="2" stroke-opacity="0.200000" points="337.8,-54.3 332.39,-57.63 338.7,-58.4 337.8,-54.3"/>
<polyline fill="none" stroke="#000000" stroke-width="2" stroke-opacity="0.200000" points="338.25,-56.35 341.18,-55.71 "/>
<ellipse fill="none" stroke="#000000" stroke-width="2" stroke-opacity="0.200000" cx="343.53" cy="-55.2" rx="2.4" ry="2.4"/>
</g>
<!-- src/lib/validate.js -->
<g id="node8" class="node">
<title>src/lib/validate.js</title>
<g id="a_node8"><a xlink:href="../src/lib/validate.js" xlink:title="validate.js">
<path fill="#ffffcc" stroke="black" d="M554.85,-161.3C554.85,-161.3 511.24,-161.3 511.24,-161.3 508.14,-161.3 505.04,-158.2 505.04,-155.1 505.04,-155.1 505.04,-148.9 505.04,-148.9 505.04,-145.8 508.14,-142.7 511.24,-142.7 511.24,-142.7 554.85,-142.7 554.85,-142.7 557.95,-142.7 561.05,-145.8 561.05,-148.9 561.05,-148.9 561.05,-155.1 561.05,-155.1 561.05,-158.2 557.95,-161.3 554.85,-161.3"/>
<text text-anchor="middle" x="533.04" y="-149.3" font-family="Helvetica,sans-Serif" font-size="9.00">validate.js</text>
</a>
</g>
</g>
<!-- src/data.js&#45;&gt;src/lib/validate.js -->
<g id="edge4" class="edge">
<title>src/data.js&#45;&gt;src/lib/validate.js</title>
<path fill="none" stroke="#000000" stroke-width="2" stroke-opacity="0.200000" d="M448.4,-174.07C460.78,-171.59 475.73,-168.4 489.04,-165 492.25,-164.18 495.58,-163.27 498.9,-162.33"/>
<polygon fill="#000000" fill-opacity="0.200000" stroke="#000000" stroke-width="2" stroke-opacity="0.200000" points="499.67,-164.3 504.84,-160.61 498.5,-160.26 499.67,-164.3"/>
</g>
<!-- src/lib/ajv7.bundle.js -->
<g id="node13" class="node">
<title>src/lib/ajv7.bundle.js</title>
<g id="a_node13"><a xlink:href="../src/lib/ajv7.bundle.js" xlink:title="ajv7.bundle.js">
<path fill="#ffffcc" stroke="black" d="M638.87,-161.3C638.87,-161.3 580.24,-161.3 580.24,-161.3 577.14,-161.3 574.04,-158.2 574.04,-155.1 574.04,-155.1 574.04,-148.9 574.04,-148.9 574.04,-145.8 577.14,-142.7 580.24,-142.7 580.24,-142.7 638.87,-142.7 638.87,-142.7 641.97,-142.7 645.07,-145.8 645.07,-148.9 645.07,-148.9 645.07,-155.1 645.07,-155.1 645.07,-158.2 641.97,-161.3 638.87,-161.3"/>
<text text-anchor="middle" x="609.55" y="-149.3" font-family="Helvetica,sans-Serif" font-size="9.00">ajv7.bundle.js</text>
</a>
</g>
</g>
<!-- src/lib/validate.js&#45;&gt;src/lib/ajv7.bundle.js -->
<g id="edge18" class="edge">
<title>src/lib/validate.js&#45;&gt;src/lib/ajv7.bundle.js</title>
<path fill="none" stroke="#000000" stroke-width="2" stroke-opacity="0.200000" d="M561.36,-152C563.4,-152 565.48,-152 567.57,-152"/>
<polygon fill="#000000" fill-opacity="0.200000" stroke="#000000" stroke-width="2" stroke-opacity="0.200000" points="567.87,-154.1 573.87,-152 567.87,-149.9 567.87,-154.1"/>
</g>
<!-- src/handlers/handlerNewItemList.js -->
<g id="node9" class="node">
<title>src/handlers/handlerNewItemList.js</title>
<g id="a_node9"><a xlink:href="../src/handlers/handlerNewItemList.js" xlink:title="handlerNewItemList.js">
<path fill="#ffffcc" stroke="black" d="M331.08,-104.3C331.08,-104.3 239.46,-104.3 239.46,-104.3 236.36,-104.3 233.26,-101.2 233.26,-98.1 233.26,-98.1 233.26,-91.9 233.26,-91.9 233.26,-88.8 236.36,-85.7 239.46,-85.7 239.46,-85.7 331.08,-85.7 331.08,-85.7 334.18,-85.7 337.28,-88.8 337.28,-91.9 337.28,-91.9 337.28,-98.1 337.28,-98.1 337.28,-101.2 334.18,-104.3 331.08,-104.3"/>
<text text-anchor="middle" x="285.27" y="-92.3" font-family="Helvetica,sans-Serif" font-size="9.00">handlerNewItemList.js</text>
</a>
</g>
</g>
<!-- src/handlers/handlerNewItemList.js&#45;&gt;src/components/divFormComponent.js -->
<g id="edge11" class="edge">
<title>src/handlers/handlerNewItemList.js&#45;&gt;src/components/divFormComponent.js</title>
<path fill="none" stroke="#000000" stroke-width="2" stroke-opacity="0.200000" d="M326.84,-85.61C341.67,-82.19 358.55,-78.28 373.85,-74.74"/>
<polygon fill="#000000" fill-opacity="0.200000" stroke="#000000" stroke-width="2" stroke-opacity="0.200000" points="374.48,-76.75 379.85,-73.35 373.53,-72.66 374.48,-76.75"/>
</g>
<!-- src/handlers/handlerNewItemList.js&#45;&gt;src/components/errorMessage.js -->
<g id="edge12" class="edge">
<title>src/handlers/handlerNewItemList.js&#45;&gt;src/components/errorMessage.js</title>
<path fill="none" stroke="#000000" stroke-width="2" stroke-opacity="0.200000" d="M326.84,-104.39C342.08,-107.91 359.48,-111.94 375.11,-115.55"/>
<polygon fill="#000000" fill-opacity="0.200000" stroke="#000000" stroke-width="2" stroke-opacity="0.200000" points="374.91,-117.66 381.23,-116.97 375.85,-113.57 374.91,-117.66"/>
</g>
<!-- src/handlers/handlerNewItemList.js&#45;&gt;src/components/newItemListComponent.js -->
<g id="edge13" class="edge">
<title>src/handlers/handlerNewItemList.js&#45;&gt;src/components/newItemListComponent.js</title>
<path fill="none" stroke="#000000" stroke-width="2" stroke-opacity="0.200000" d="M337.32,-95C343.31,-95 349.48,-95 355.63,-95"/>
<polygon fill="#000000" fill-opacity="0.200000" stroke="#000000" stroke-width="2" stroke-opacity="0.200000" points="355.75,-97.1 361.75,-95 355.75,-92.9 355.75,-97.1"/>
</g>
<!-- src/handlers/handlerNewItemList.js&#45;&gt;src/data.js -->
<g id="edge14" class="edge">
<title>src/handlers/handlerNewItemList.js&#45;&gt;src/data.js</title>
<path fill="none" stroke="#000000" stroke-width="2" stroke-opacity="0.200000" d="M337.5,-104.29C340.47,-106.16 343.19,-108.37 345.52,-111 361.65,-129.13 336.89,-147.34 353.52,-165 362.32,-174.33 375.61,-178.28 388.03,-179.72"/>
<polygon fill="#000000" fill-opacity="0.200000" stroke="#000000" stroke-width="2" stroke-opacity="0.200000" points="387.88,-181.81 394.04,-180.24 388.24,-177.63 387.88,-181.81"/>
</g>
<!-- src/init/index.js -->
<g id="node10" class="node">
<title>src/init/index.js</title>
<g id="a_node10"><a xlink:href="../src/init/index.js" xlink:title="index.js">
<path fill="#ffffcc" stroke="black" d="M71.8,-104.3C71.8,-104.3 30.2,-104.3 30.2,-104.3 27.1,-104.3 24,-101.2 24,-98.1 24,-98.1 24,-91.9 24,-91.9 24,-88.8 27.1,-85.7 30.2,-85.7 30.2,-85.7 71.8,-85.7 71.8,-85.7 74.9,-85.7 78,-88.8 78,-91.9 78,-91.9 78,-98.1 78,-98.1 78,-101.2 74.9,-104.3 71.8,-104.3"/>
<text text-anchor="middle" x="51" y="-92.3" font-family="Helvetica,sans-Serif" font-size="9.00">index.js</text>
</a>
</g>
</g>
<!-- src/init/index.js&#45;&gt;src/components/divFormComponent.js -->
<g id="edge15" class="edge">
<title>src/init/index.js&#45;&gt;src/components/divFormComponent.js</title>
<path fill="none" stroke="#000000" stroke-width="2" stroke-opacity="0.200000" d="M69.63,-85.58C77.01,-81.91 85.77,-77.9 94,-75 200.25,-37.61 235.9,-18.12 345.52,-44 349.39,-44.91 349.79,-46.64 353.52,-48 358.54,-49.83 363.84,-51.51 369.18,-53.03"/>
<polygon fill="#000000" fill-opacity="0.200000" stroke="#000000" stroke-width="2" stroke-opacity="0.200000" points="368.64,-55.06 374.98,-54.63 369.75,-51.01 368.64,-55.06"/>
</g>
<!-- src/listeners/listenerAddButton.js -->
<g id="node11" class="node">
<title>src/listeners/listenerAddButton.js</title>
<g id="a_node11"><a xlink:href="../src/listeners/listenerAddButton.js" xlink:title="listenerAddButton.js">
<path fill="#ffffcc" stroke="black" d="M197.33,-104.3C197.33,-104.3 113.69,-104.3 113.69,-104.3 110.59,-104.3 107.49,-101.2 107.49,-98.1 107.49,-98.1 107.49,-91.9 107.49,-91.9 107.49,-88.8 110.59,-85.7 113.69,-85.7 113.69,-85.7 197.33,-85.7 197.33,-85.7 200.43,-85.7 203.53,-88.8 203.53,-91.9 203.53,-91.9 203.53,-98.1 203.53,-98.1 203.53,-101.2 200.43,-104.3 197.33,-104.3"/>
<text text-anchor="middle" x="155.51" y="-92.3" font-family="Helvetica,sans-Serif" font-size="9.00">listenerAddButton.js</text>
</a>
</g>
</g>
<!-- src/init/index.js&#45;&gt;src/listeners/listenerAddButton.js -->
<g id="edge16" class="edge">
<title>src/init/index.js&#45;&gt;src/listeners/listenerAddButton.js</title>
<path fill="none" stroke="#000000" stroke-width="2" stroke-opacity="0.200000" d="M78.13,-95C85.22,-95 93.17,-95 101.18,-95"/>
<polygon fill="#000000" fill-opacity="0.200000" stroke="#000000" stroke-width="2" stroke-opacity="0.200000" points="101.3,-97.1 107.3,-95 101.3,-92.9 101.3,-97.1"/>
</g>
<!-- src/listeners/listenerModifuButton.js -->
<g id="node12" class="node">
<title>src/listeners/listenerModifuButton.js</title>
<g id="a_node12"><a xlink:href="../src/listeners/listenerModifuButton.js" xlink:title="listenerModifuButton.js">
<path fill="#ffffcc" stroke="black" d="M202.82,-135.3C202.82,-135.3 108.19,-135.3 108.19,-135.3 105.09,-135.3 101.99,-132.2 101.99,-129.1 101.99,-129.1 101.99,-122.9 101.99,-122.9 101.99,-119.8 105.09,-116.7 108.19,-116.7 108.19,-116.7 202.82,-116.7 202.82,-116.7 205.92,-116.7 209.02,-119.8 209.02,-122.9 209.02,-122.9 209.02,-129.1 209.02,-129.1 209.02,-132.2 205.92,-135.3 202.82,-135.3"/>
<text text-anchor="middle" x="155.51" y="-123.3" font-family="Helvetica,sans-Serif" font-size="9.00">listenerModifuButton.js</text>
</a>
</g>
</g>
<!-- src/init/index.js&#45;&gt;src/listeners/listenerModifuButton.js -->
<g id="edge17" class="edge">
<title>src/init/index.js&#45;&gt;src/listeners/listenerModifuButton.js</title>
<path fill="none" stroke="#000000" stroke-width="2" stroke-opacity="0.200000" d="M77.2,-104.39C82.71,-106.33 88.53,-108.3 94,-110 99.6,-111.74 105.54,-113.46 111.41,-115.08"/>
<polygon fill="#000000" fill-opacity="0.200000" stroke="#000000" stroke-width="2" stroke-opacity="0.200000" points="110.91,-117.12 117.25,-116.68 112.01,-113.07 110.91,-117.12"/>
</g>
<!-- src/listeners/listenerAddButton.js&#45;&gt;src/handlers/handlerNewItemList.js -->
<g id="edge19" class="edge">
<title>src/listeners/listenerAddButton.js&#45;&gt;src/handlers/handlerNewItemList.js</title>
<path fill="none" stroke="#000000" stroke-width="2" stroke-opacity="0.200000" d="M203.72,-95C211.16,-95 218.93,-95 226.57,-95"/>
<polygon fill="#000000" fill-opacity="0.200000" stroke="#000000" stroke-width="2" stroke-opacity="0.200000" points="226.96,-97.1 232.96,-95 226.96,-92.9 226.96,-97.1"/>
</g>
<!-- src/listeners/listenerModifuButton.js&#45;&gt;src/handlers/handlerModItem.js -->
<g id="edge20" class="edge">
<title>src/listeners/listenerModifuButton.js&#45;&gt;src/handlers/handlerModItem.js</title>
<path fill="none" stroke="#000000" stroke-width="2" stroke-opacity="0.200000" d="M209.21,-126C217.43,-126 225.9,-126 234.06,-126"/>
<polygon fill="#000000" fill-opacity="0.200000" stroke="#000000" stroke-width="2" stroke-opacity="0.200000" points="234.23,-128.1 240.23,-126 234.23,-123.9 234.23,-128.1"/>
</g>
</g>
</svg>
