<?xml version="1.0" encoding="UTF-8" standalone="no"?>
<!DOCTYPE svg PUBLIC "-//W3C//DTD SVG 1.1//EN"
 "http://www.w3.org/Graphics/SVG/1.1/DTD/svg11.dtd">
<!-- Generated by graphviz version 2.44.0 (20200408.0750)
 -->
<!-- Title: dependency&#45;cruiser output Pages: 1 -->
<svg width="666pt" height="231pt"
 viewBox="0.00 0.00 666.07 231.00" xmlns="http://www.w3.org/2000/svg" xmlns:xlink="http://www.w3.org/1999/xlink">
<g id="graph0" class="graph" transform="scale(1 1) rotate(0) translate(4 227)">
<title>dependency&#45;cruiser output</title>
<polygon fill="white" stroke="transparent" points="-4,4 -4,-227 662.07,-227 662.07,4 -4,4"/>
<g id="clust1" class="cluster">
<title>cluster_src</title>
<path fill="#ffffff" stroke="black" stroke-width="2" d="M20,-8C20,-8 638.07,-8 638.07,-8 644.07,-8 650.07,-14 650.07,-20 650.07,-20 650.07,-203 650.07,-203 650.07,-209 644.07,-215 638.07,-215 638.07,-215 20,-215 20,-215 14,-215 8,-209 8,-203 8,-203 8,-20 8,-20 8,-14 14,-8 20,-8"/>
<text text-anchor="middle" x="329.03" y="-202.9" font-family="Helvetica,sans-Serif" font-weight="bold" font-size="9.00">src</text>
</g>
<g id="clust2" class="cluster">
<title>cluster_src/components</title>
<path fill="#ffffff" stroke="black" stroke-width="2" d="M354.53,-16C354.53,-16 466.04,-16 466.04,-16 472.04,-16 478.04,-22 478.04,-28 478.04,-28 478.04,-150 478.04,-150 478.04,-156 472.04,-162 466.04,-162 466.04,-162 354.53,-162 354.53,-162 348.53,-162 342.53,-156 342.53,-150 342.53,-150 342.53,-28 342.53,-28 342.53,-22 348.53,-16 354.53,-16"/>
<text text-anchor="middle" x="410.29" y="-149.9" font-family="Helvetica,sans-Serif" font-weight="bold" font-size="9.00">components</text>
</g>
<g id="clust3" class="cluster">
<title>cluster_src/handlers</title>
<path fill="#ffffff" stroke="black" stroke-width="2" d="M226.02,-60C226.02,-60 322.53,-60 322.53,-60 328.53,-60 334.53,-66 334.53,-72 334.53,-72 334.53,-132 334.53,-132 334.53,-138 328.53,-144 322.53,-144 322.53,-144 226.02,-144 226.02,-144 220.02,-144 214.02,-138 214.02,-132 214.02,-132 214.02,-72 214.02,-72 214.02,-66 220.02,-60 226.02,-60"/>
<text text-anchor="middle" x="274.27" y="-131.9" font-family="Helvetica,sans-Serif" font-weight="bold" font-size="9.00">handlers</text>
</g>
<g id="clust4" class="cluster">
<title>cluster_src/init</title>
<path fill="#ffffff" stroke="black" stroke-width="2" d="M28,-54C28,-54 74,-54 74,-54 80,-54 86,-60 86,-66 86,-66 86,-95 86,-95 86,-101 80,-107 74,-107 74,-107 28,-107 28,-107 22,-107 16,-101 16,-95 16,-95 16,-66 16,-66 16,-60 22,-54 28,-54"/>
<text text-anchor="middle" x="51" y="-94.9" font-family="Helvetica,sans-Serif" font-weight="bold" font-size="9.00">init</text>
</g>
<g id="clust5" class="cluster">
<title>cluster_src/lib</title>
<path fill="#ffffff" stroke="black" stroke-width="2" d="M498.04,-135C498.04,-135 630.07,-135 630.07,-135 636.07,-135 642.07,-141 642.07,-147 642.07,-147 642.07,-176 642.07,-176 642.07,-182 636.07,-188 630.07,-188 630.07,-188 498.04,-188 498.04,-188 492.04,-188 486.04,-182 486.04,-176 486.04,-176 486.04,-147 486.04,-147 486.04,-141 492.04,-135 498.04,-135"/>
<text text-anchor="middle" x="564.06" y="-175.9" font-family="Helvetica,sans-Serif" font-weight="bold" font-size="9.00">lib</text>
</g>
<g id="clust6" class="cluster">
<title>cluster_src/listeners</title>
<path fill="#ffffff" stroke="black" stroke-width="2" d="M106,-75C106,-75 194.02,-75 194.02,-75 200.02,-75 206.02,-81 206.02,-87 206.02,-87 206.02,-116 206.02,-116 206.02,-122 200.02,-128 194.02,-128 194.02,-128 106,-128 106,-128 100,-128 94,-122 94,-116 94,-116 94,-87 94,-87 94,-81 100,-75 106,-75"/>
<text text-anchor="middle" x="150.01" y="-115.9" font-family="Helvetica,sans-Serif" font-weight="bold" font-size="9.00">listeners</text>
</g>
<!-- src/components/divFormComponent.js -->
<g id="node1" class="node">
<title>src/components/divFormComponent.js</title>
<g id="a_node1"><a xlink:href="../src/components/divFormComponent.js" xlink:title="divFormComponent.js">
<path fill="#ffffcc" stroke="black" d="M456.09,-73.3C456.09,-73.3 364.48,-73.3 364.48,-73.3 361.38,-73.3 358.28,-70.2 358.28,-67.1 358.28,-67.1 358.28,-60.9 358.28,-60.9 358.28,-57.8 361.38,-54.7 364.48,-54.7 364.48,-54.7 456.09,-54.7 456.09,-54.7 459.19,-54.7 462.29,-57.8 462.29,-60.9 462.29,-60.9 462.29,-67.1 462.29,-67.1 462.29,-70.2 459.19,-73.3 456.09,-73.3"/>
<text text-anchor="middle" x="410.29" y="-61.3" font-family="Helvetica,sans-Serif" font-size="9.00">divFormComponent.js</text>
</a>
</g>
</g>
<!-- src/handlers/handlerDoneItem.js -->
<g id="node2" class="node">
<title>src/handlers/handlerDoneItem.js</title>
<g id="a_node2"><a xlink:href="../src/handlers/handlerDoneItem.js" xlink:title="handlerDoneItem.js">
<path fill="#ffffcc" stroke="black" d="M315.09,-86.3C315.09,-86.3 233.46,-86.3 233.46,-86.3 230.36,-86.3 227.26,-83.2 227.26,-80.1 227.26,-80.1 227.26,-73.9 227.26,-73.9 227.26,-70.8 230.36,-67.7 233.46,-67.7 233.46,-67.7 315.09,-67.7 315.09,-67.7 318.19,-67.7 321.29,-70.8 321.29,-73.9 321.29,-73.9 321.29,-80.1 321.29,-80.1 321.29,-83.2 318.19,-86.3 315.09,-86.3"/>
<text text-anchor="middle" x="274.27" y="-74.3" font-family="Helvetica,sans-Serif" font-size="9.00">handlerDoneItem.js</text>
</a>
</g>
</g>
<!-- src/components/divFormComponent.js&#45;&gt;src/handlers/handlerDoneItem.js -->
<g id="edge1" class="edge">
<title>src/components/divFormComponent.js&#45;&gt;src/handlers/handlerDoneItem.js</title>
<path fill="none" stroke="#000000" stroke-width="2" stroke-opacity="0.200000" d="M358.49,-73.31C350.88,-74.16 342.96,-74.96 335.18,-75.67"/>
<polygon fill="#000000" fill-opacity="0.200000" stroke="#000000" stroke-width="2" stroke-opacity="0.200000" points="327.2,-74.23 321.39,-76.83 327.55,-78.42 327.2,-74.23"/>
<polyline fill="none" stroke="#000000" stroke-width="2" stroke-opacity="0.200000" points="327.37,-76.32 330.36,-76.07 "/>
<ellipse fill="none" stroke="#000000" stroke-width="2" stroke-opacity="0.200000" cx="332.75" cy="-75.87" rx="2.4" ry="2.4"/>
</g>
<!-- src/handlers/handlerDoneItem.js&#45;&gt;src/components/divFormComponent.js -->
<g id="edge4" class="edge">
<title>src/handlers/handlerDoneItem.js&#45;&gt;src/components/divFormComponent.js</title>
<path fill="none" stroke="#000000" stroke-width="2" stroke-opacity="0.200000" d="M321.39,-68.23C328.78,-67.36 336.53,-66.55 344.26,-65.81"/>
<polygon fill="#000000" fill-opacity="0.200000" stroke="#000000" stroke-width="2" stroke-opacity="0.200000" points="352.24,-67.21 358.03,-64.58 351.87,-63.02 352.24,-67.21"/>
<polyline fill="none" stroke="#000000" stroke-width="2" stroke-opacity="0.200000" points="352.05,-65.12 349.07,-65.38 "/>
<ellipse fill="none" stroke="#000000" stroke-width="2" stroke-opacity="0.200000" cx="346.68" cy="-65.59" rx="2.4" ry="2.4"/>
</g>
<!-- src/components/newButtonComponent.js -->
<g id="node4" class="node">
<title>src/components/newButtonComponent.js</title>
<g id="a_node4"><a xlink:href="../src/components/newButtonComponent.js" xlink:title="newButtonComponent.js">
<path fill="#ffffcc" stroke="black" d="M461.11,-42.3C461.11,-42.3 359.46,-42.3 359.46,-42.3 356.36,-42.3 353.26,-39.2 353.26,-36.1 353.26,-36.1 353.26,-29.9 353.26,-29.9 353.26,-26.8 356.36,-23.7 359.46,-23.7 359.46,-23.7 461.11,-23.7 461.11,-23.7 464.21,-23.7 467.31,-26.8 467.31,-29.9 467.31,-29.9 467.31,-36.1 467.31,-36.1 467.31,-39.2 464.21,-42.3 461.11,-42.3"/>
<text text-anchor="middle" x="410.29" y="-30.3" font-family="Helvetica,sans-Serif" font-size="9.00">newButtonComponent.js</text>
</a>
</g>
</g>
<!-- src/handlers/handlerDoneItem.js&#45;&gt;src/components/newButtonComponent.js -->
<g id="edge5" class="edge">
<title>src/handlers/handlerDoneItem.js&#45;&gt;src/components/newButtonComponent.js</title>
<path fill="none" stroke="#000000" stroke-width="2" stroke-opacity="0.200000" d="M286.02,-67.65C297.19,-60.98 315.49,-52.62 339.77,-44.21"/>
<polygon fill="#000000" fill-opacity="0.200000" stroke="#000000" stroke-width="2" stroke-opacity="0.200000" points="347.98,-43.7 353.01,-39.81 346.66,-39.71 347.98,-43.7"/>
<polyline fill="none" stroke="#000000" stroke-width="2" stroke-opacity="0.200000" points="347.32,-41.7 344.47,-42.65 "/>
<ellipse fill="none" stroke="#000000" stroke-width="2" stroke-opacity="0.200000" cx="342.19" cy="-43.41" rx="2.4" ry="2.4"/>
</g>
<!-- src/components/newItemListComponent.js -->
<g id="node5" class="node">
<title>src/components/newItemListComponent.js</title>
<g id="a_node5"><a xlink:href="../src/components/newItemListComponent.js" xlink:title="newItemListComponent.js">
<path fill="#ffffcc" stroke="black" d="M463.6,-104.3C463.6,-104.3 356.97,-104.3 356.97,-104.3 353.87,-104.3 350.77,-101.2 350.77,-98.1 350.77,-98.1 350.77,-91.9 350.77,-91.9 350.77,-88.8 353.87,-85.7 356.97,-85.7 356.97,-85.7 463.6,-85.7 463.6,-85.7 466.7,-85.7 469.8,-88.8 469.8,-91.9 469.8,-91.9 469.8,-98.1 469.8,-98.1 469.8,-101.2 466.7,-104.3 463.6,-104.3"/>
<text text-anchor="middle" x="410.29" y="-92.3" font-family="Helvetica,sans-Serif" font-size="9.00">newItemListComponent.js</text>
</a>
</g>
</g>
<!-- src/handlers/handlerDoneItem.js&#45;&gt;src/components/newItemListComponent.js -->
<g id="edge6" class="edge">
<title>src/handlers/handlerDoneItem.js&#45;&gt;src/components/newItemListComponent.js</title>
<path fill="none" stroke="#000000" stroke-width="2" stroke-opacity="0.200000" d="M321.39,-83.19C328.87,-84.2 336.74,-85.26 344.57,-86.31"/>
<polygon fill="#000000" fill-opacity="0.200000" stroke="#000000" stroke-width="2" stroke-opacity="0.200000" points="344.31,-88.39 350.54,-87.11 344.87,-84.23 344.31,-88.39"/>
</g>
<!-- src/data.js -->
<g id="node6" class="node">
<title>src/data.js</title>
<g id="a_node6"><a xlink:href="../src/data.js" xlink:title="data.js">
<path fill="#ffffcc" stroke="black" d="M431.09,-188.3C431.09,-188.3 389.49,-188.3 389.49,-188.3 386.39,-188.3 383.29,-185.2 383.29,-182.1 383.29,-182.1 383.29,-175.9 383.29,-175.9 383.29,-172.8 386.39,-169.7 389.49,-169.7 389.49,-169.7 431.09,-169.7 431.09,-169.7 434.19,-169.7 437.29,-172.8 437.29,-175.9 437.29,-175.9 437.29,-182.1 437.29,-182.1 437.29,-185.2 434.19,-188.3 431.09,-188.3"/>
<text text-anchor="middle" x="410.29" y="-176.3" font-family="Helvetica,sans-Serif" font-size="9.00">data.js</text>
</a>
</g>
</g>
<!-- src/handlers/handlerDoneItem.js&#45;&gt;src/data.js -->
<g id="edge7" class="edge">
<title>src/handlers/handlerDoneItem.js&#45;&gt;src/data.js</title>
<path fill="none" stroke="#000000" stroke-width="2" stroke-opacity="0.200000" d="M321.32,-83.27C326.33,-85.64 330.92,-88.79 334.53,-93 355.49,-117.44 320.88,-141.17 342.53,-165 351.22,-174.57 364.63,-178.52 377.16,-179.91"/>
<polygon fill="#000000" fill-opacity="0.200000" stroke="#000000" stroke-width="2" stroke-opacity="0.200000" points="377.07,-182.01 383.22,-180.4 377.41,-177.82 377.07,-182.01"/>
</g>
<!-- src/components/errorMessage.js -->
<g id="node3" class="node">
<title>src/components/errorMessage.js</title>
<g id="a_node3"><a xlink:href="../src/components/errorMessage.js" xlink:title="errorMessage.js">
<path fill="#ffffcc" stroke="black" d="M444.09,-135.3C444.09,-135.3 376.48,-135.3 376.48,-135.3 373.38,-135.3 370.28,-132.2 370.28,-129.1 370.28,-129.1 370.28,-122.9 370.28,-122.9 370.28,-119.8 373.38,-116.7 376.48,-116.7 376.48,-116.7 444.09,-116.7 444.09,-116.7 447.19,-116.7 450.29,-119.8 450.29,-122.9 450.29,-122.9 450.29,-129.1 450.29,-129.1 450.29,-132.2 447.19,-135.3 444.09,-135.3"/>
<text text-anchor="middle" x="410.29" y="-123.3" font-family="Helvetica,sans-Serif" font-size="9.00">errorMessage.js</text>
</a>
</g>
</g>
<!-- src/components/newButtonComponent.js&#45;&gt;src/handlers/handlerDoneItem.js -->
<g id="edge2" class="edge">
<title>src/components/newButtonComponent.js&#45;&gt;src/handlers/handlerDoneItem.js</title>
<path fill="none" stroke="#000000" stroke-width="2" stroke-opacity="0.200000" d="M388,-42.37C374.77,-46.03 357.49,-50.13 342.53,-55 335.64,-57.24 328.47,-59.89 321.48,-62.57"/>
<polygon fill="#000000" fill-opacity="0.200000" stroke="#000000" stroke-width="2" stroke-opacity="0.200000" points="313.23,-63.54 308.4,-67.68 314.76,-67.45 313.23,-63.54"/>
<polyline fill="none" stroke="#000000" stroke-width="2" stroke-opacity="0.200000" points="313.99,-65.49 316.79,-64.4 "/>
<ellipse fill="none" stroke="#000000" stroke-width="2" stroke-opacity="0.200000" cx="319.02" cy="-63.53" rx="2.4" ry="2.4"/>
</g>
<!-- src/lib/validate.js -->
<g id="node7" class="node">
<title>src/lib/validate.js</title>
<g id="a_node7"><a xlink:href="../src/lib/validate.js" xlink:title="validate.js">
<path fill="#ffffcc" stroke="black" d="M543.85,-161.3C543.85,-161.3 500.24,-161.3 500.24,-161.3 497.14,-161.3 494.04,-158.2 494.04,-155.1 494.04,-155.1 494.04,-148.9 494.04,-148.9 494.04,-145.8 497.14,-142.7 500.24,-142.7 500.24,-142.7 543.85,-142.7 543.85,-142.7 546.95,-142.7 550.05,-145.8 550.05,-148.9 550.05,-148.9 550.05,-155.1 550.05,-155.1 550.05,-158.2 546.95,-161.3 543.85,-161.3"/>
<text text-anchor="middle" x="522.05" y="-149.3" font-family="Helvetica,sans-Serif" font-size="9.00">validate.js</text>
</a>
</g>
</g>
<!-- src/data.js&#45;&gt;src/lib/validate.js -->
<g id="edge3" class="edge">
<title>src/data.js&#45;&gt;src/lib/validate.js</title>
<path fill="none" stroke="#000000" stroke-width="2" stroke-opacity="0.200000" d="M437.4,-174.07C449.78,-171.59 464.74,-168.4 478.04,-165 481.26,-164.18 484.59,-163.27 487.91,-162.33"/>
<polygon fill="#000000" fill-opacity="0.200000" stroke="#000000" stroke-width="2" stroke-opacity="0.200000" points="488.67,-164.3 493.85,-160.61 487.5,-160.26 488.67,-164.3"/>
</g>
<!-- src/lib/ajv7.bundle.js -->
<g id="node11" class="node">
<title>src/lib/ajv7.bundle.js</title>
<g id="a_node11"><a xlink:href="../src/lib/ajv7.bundle.js" xlink:title="ajv7.bundle.js">
<path fill="#ffffcc" stroke="black" d="M627.87,-161.3C627.87,-161.3 569.24,-161.3 569.24,-161.3 566.14,-161.3 563.04,-158.2 563.04,-155.1 563.04,-155.1 563.04,-148.9 563.04,-148.9 563.04,-145.8 566.14,-142.7 569.24,-142.7 569.24,-142.7 627.87,-142.7 627.87,-142.7 630.97,-142.7 634.07,-145.8 634.07,-148.9 634.07,-148.9 634.07,-155.1 634.07,-155.1 634.07,-158.2 630.97,-161.3 627.87,-161.3"/>
<text text-anchor="middle" x="598.56" y="-149.3" font-family="Helvetica,sans-Serif" font-size="9.00">ajv7.bundle.js</text>
</a>
</g>
</g>
<!-- src/lib/validate.js&#45;&gt;src/lib/ajv7.bundle.js -->
<g id="edge14" class="edge">
<title>src/lib/validate.js&#45;&gt;src/lib/ajv7.bundle.js</title>
<path fill="none" stroke="#000000" stroke-width="2" stroke-opacity="0.200000" d="M550.37,-152C552.4,-152 554.48,-152 556.58,-152"/>
<polygon fill="#000000" fill-opacity="0.200000" stroke="#000000" stroke-width="2" stroke-opacity="0.200000" points="556.88,-154.1 562.88,-152 556.88,-149.9 556.88,-154.1"/>
</g>
<!-- src/handlers/handlerNewItemList.js -->
<g id="node8" class="node">
<title>src/handlers/handlerNewItemList.js</title>
<g id="a_node8"><a xlink:href="../src/handlers/handlerNewItemList.js" xlink:title="handlerNewItemList.js">
<path fill="#ffffcc" stroke="black" d="M320.08,-117.3C320.08,-117.3 228.47,-117.3 228.47,-117.3 225.37,-117.3 222.27,-114.2 222.27,-111.1 222.27,-111.1 222.27,-104.9 222.27,-104.9 222.27,-101.8 225.37,-98.7 228.47,-98.7 228.47,-98.7 320.08,-98.7 320.08,-98.7 323.18,-98.7 326.28,-101.8 326.28,-104.9 326.28,-104.9 326.28,-111.1 326.28,-111.1 326.28,-114.2 323.18,-117.3 320.08,-117.3"/>
<text text-anchor="middle" x="274.27" y="-105.3" font-family="Helvetica,sans-Serif" font-size="9.00">handlerNewItemList.js</text>
</a>
</g>
</g>
<!-- src/handlers/handlerNewItemList.js&#45;&gt;src/components/divFormComponent.js -->
<g id="edge8" class="edge">
<title>src/handlers/handlerNewItemList.js&#45;&gt;src/components/divFormComponent.js</title>
<path fill="none" stroke="#000000" stroke-width="2" stroke-opacity="0.200000" d="M322.65,-98.63C326.86,-96.8 330.89,-94.61 334.53,-92 339.73,-88.26 337.27,-83.67 342.53,-80 345.61,-77.85 348.94,-75.99 352.42,-74.38"/>
<polygon fill="#000000" fill-opacity="0.200000" stroke="#000000" stroke-width="2" stroke-opacity="0.200000" points="353.26,-76.3 357.98,-72.04 351.64,-72.43 353.26,-76.3"/>
</g>
<!-- src/handlers/handlerNewItemList.js&#45;&gt;src/components/errorMessage.js -->
<g id="edge9" class="edge">
<title>src/handlers/handlerNewItemList.js&#45;&gt;src/components/errorMessage.js</title>
<path fill="none" stroke="#000000" stroke-width="2" stroke-opacity="0.200000" d="M326.32,-114.86C338.67,-116.51 351.78,-118.28 363.85,-119.9"/>
<polygon fill="#000000" fill-opacity="0.200000" stroke="#000000" stroke-width="2" stroke-opacity="0.200000" points="363.83,-122.01 370.05,-120.73 364.39,-117.85 363.83,-122.01"/>
</g>
<!-- src/handlers/handlerNewItemList.js&#45;&gt;src/components/newItemListComponent.js -->
<g id="edge10" class="edge">
<title>src/handlers/handlerNewItemList.js&#45;&gt;src/components/newItemListComponent.js</title>
<path fill="none" stroke="#000000" stroke-width="2" stroke-opacity="0.200000" d="M326.32,-103.05C332.31,-102.47 338.48,-101.87 344.63,-101.27"/>
<polygon fill="#000000" fill-opacity="0.200000" stroke="#000000" stroke-width="2" stroke-opacity="0.200000" points="344.99,-103.35 350.76,-100.68 344.58,-99.17 344.99,-103.35"/>
</g>
<!-- src/handlers/handlerNewItemList.js&#45;&gt;src/data.js -->
<g id="edge11" class="edge">
<title>src/handlers/handlerNewItemList.js&#45;&gt;src/data.js</title>
<path fill="none" stroke="#000000" stroke-width="2" stroke-opacity="0.200000" d="M283.38,-117.32C295.1,-130.15 318.05,-153.03 342.53,-165 353.21,-170.22 365.78,-173.5 377.12,-175.56"/>
<polygon fill="#000000" fill-opacity="0.200000" stroke="#000000" stroke-width="2" stroke-opacity="0.200000" points="377.01,-177.67 383.27,-176.58 377.69,-173.53 377.01,-177.67"/>
</g>
<!-- src/init/index.js -->
<g id="node9" class="node">
<title>src/init/index.js</title>
<g id="a_node9"><a xlink:href="../src/init/index.js" xlink:title="index.js">
<path fill="#ffffcc" stroke="black" d="M71.8,-80.3C71.8,-80.3 30.2,-80.3 30.2,-80.3 27.1,-80.3 24,-77.2 24,-74.1 24,-74.1 24,-67.9 24,-67.9 24,-64.8 27.1,-61.7 30.2,-61.7 30.2,-61.7 71.8,-61.7 71.8,-61.7 74.9,-61.7 78,-64.8 78,-67.9 78,-67.9 78,-74.1 78,-74.1 78,-77.2 74.9,-80.3 71.8,-80.3"/>
<text text-anchor="middle" x="51" y="-68.3" font-family="Helvetica,sans-Serif" font-size="9.00">index.js</text>
</a>
</g>
</g>
<!-- src/init/index.js&#45;&gt;src/components/divFormComponent.js -->
<g id="edge12" class="edge">
<title>src/init/index.js&#45;&gt;src/components/divFormComponent.js</title>
<path fill="none" stroke="#000000" stroke-width="2" stroke-opacity="0.200000" d="M78.05,-68.05C110.03,-64.6 165.93,-59.07 214.02,-57 267.53,-54.69 281.03,-54.5 334.53,-57 340.17,-57.26 346.04,-57.64 351.91,-58.08"/>
<polygon fill="#000000" fill-opacity="0.200000" stroke="#000000" stroke-width="2" stroke-opacity="0.200000" points="352.11,-60.2 358.26,-58.58 352.44,-56.01 352.11,-60.2"/>
</g>
<!-- src/listeners/listenerAddButton.js -->
<g id="node10" class="node">
<title>src/listeners/listenerAddButton.js</title>
<g id="a_node10"><a xlink:href="../src/listeners/listenerAddButton.js" xlink:title="listenerAddButton.js">
<path fill="#ffffcc" stroke="black" d="M191.83,-101.3C191.83,-101.3 108.19,-101.3 108.19,-101.3 105.09,-101.3 101.99,-98.2 101.99,-95.1 101.99,-95.1 101.99,-88.9 101.99,-88.9 101.99,-85.8 105.09,-82.7 108.19,-82.7 108.19,-82.7 191.83,-82.7 191.83,-82.7 194.93,-82.7 198.03,-85.8 198.03,-88.9 198.03,-88.9 198.03,-95.1 198.03,-95.1 198.03,-98.2 194.93,-101.3 191.83,-101.3"/>
<text text-anchor="middle" x="150.01" y="-89.3" font-family="Helvetica,sans-Serif" font-size="9.00">listenerAddButton.js</text>
</a>
</g>
</g>
<!-- src/init/index.js&#45;&gt;src/listeners/listenerAddButton.js -->
<g id="edge13" class="edge">
<title>src/init/index.js&#45;&gt;src/listeners/listenerAddButton.js</title>
<path fill="none" stroke="#000000" stroke-width="2" stroke-opacity="0.200000" d="M78.25,-76.68C84.92,-78.13 92.29,-79.72 99.7,-81.33"/>
<polygon fill="#000000" fill-opacity="0.200000" stroke="#000000" stroke-width="2" stroke-opacity="0.200000" points="99.6,-83.45 105.91,-82.67 100.49,-79.35 99.6,-83.45"/>
</g>
<!-- src/listeners/listenerAddButton.js&#45;&gt;src/handlers/handlerNewItemList.js -->
<g id="edge15" class="edge">
<title>src/listeners/listenerAddButton.js&#45;&gt;src/handlers/handlerNewItemList.js</title>
<path fill="none" stroke="#000000" stroke-width="2" stroke-opacity="0.200000" d="M198.28,-98.19C204.01,-98.94 209.9,-99.71 215.75,-100.47"/>
<polygon fill="#000000" fill-opacity="0.200000" stroke="#000000" stroke-width="2" stroke-opacity="0.200000" points="215.85,-102.6 222.07,-101.3 216.4,-98.44 215.85,-102.6"/>
</g>
</g>
</svg>
