<?xml version="1.0" encoding="UTF-8" standalone="no"?>
<!DOCTYPE svg PUBLIC "-//W3C//DTD SVG 1.1//EN"
 "http://www.w3.org/Graphics/SVG/1.1/DTD/svg11.dtd">
<!-- Generated by graphviz version 2.44.0 (20200408.0750)
 -->
<!-- Title: dependency&#45;cruiser output Pages: 1 -->
<svg width="502pt" height="169pt"
 viewBox="0.00 0.00 502.04 169.00" xmlns="http://www.w3.org/2000/svg" xmlns:xlink="http://www.w3.org/1999/xlink">
<g id="graph0" class="graph" transform="scale(1 1) rotate(0) translate(4 165)">
<title>dependency&#45;cruiser output</title>
<polygon fill="white" stroke="transparent" points="-4,4 -4,-165 498.04,-165 498.04,4 -4,4"/>
<g id="clust1" class="cluster">
<title>cluster_src</title>
<path fill="#ffffff" stroke="black" stroke-width="2" d="M20,-8C20,-8 474.04,-8 474.04,-8 480.04,-8 486.04,-14 486.04,-20 486.04,-20 486.04,-141 486.04,-141 486.04,-147 480.04,-153 474.04,-153 474.04,-153 20,-153 20,-153 14,-153 8,-147 8,-141 8,-141 8,-20 8,-20 8,-14 14,-8 20,-8"/>
<text text-anchor="middle" x="247.02" y="-140.9" font-family="Helvetica,sans-Serif" font-weight="bold" font-size="9.00">src</text>
</g>
<g id="clust2" class="cluster">
<title>cluster_src/components</title>
<path fill="#ffffff" stroke="black" stroke-width="2" d="M354.53,-16C354.53,-16 466.04,-16 466.04,-16 472.04,-16 478.04,-22 478.04,-28 478.04,-28 478.04,-88 478.04,-88 478.04,-94 472.04,-100 466.04,-100 466.04,-100 354.53,-100 354.53,-100 348.53,-100 342.53,-94 342.53,-88 342.53,-88 342.53,-28 342.53,-28 342.53,-22 348.53,-16 354.53,-16"/>
<text text-anchor="middle" x="410.29" y="-87.9" font-family="Helvetica,sans-Serif" font-weight="bold" font-size="9.00">components</text>
</g>
<g id="clust3" class="cluster">
<title>cluster_src/handlers</title>
<path fill="#ffffff" stroke="black" stroke-width="2" d="M226.02,-47C226.02,-47 322.53,-47 322.53,-47 328.53,-47 334.53,-53 334.53,-59 334.53,-59 334.53,-88 334.53,-88 334.53,-94 328.53,-100 322.53,-100 322.53,-100 226.02,-100 226.02,-100 220.02,-100 214.02,-94 214.02,-88 214.02,-88 214.02,-59 214.02,-59 214.02,-53 220.02,-47 226.02,-47"/>
<text text-anchor="middle" x="274.27" y="-87.9" font-family="Helvetica,sans-Serif" font-weight="bold" font-size="9.00">handlers</text>
</g>
<g id="clust4" class="cluster">
<title>cluster_src/init</title>
<path fill="#ffffff" stroke="black" stroke-width="2" d="M28,-47C28,-47 74,-47 74,-47 80,-47 86,-53 86,-59 86,-59 86,-88 86,-88 86,-94 80,-100 74,-100 74,-100 28,-100 28,-100 22,-100 16,-94 16,-88 16,-88 16,-59 16,-59 16,-53 22,-47 28,-47"/>
<text text-anchor="middle" x="51" y="-87.9" font-family="Helvetica,sans-Serif" font-weight="bold" font-size="9.00">init</text>
</g>
<g id="clust5" class="cluster">
<title>cluster_src/listeners</title>
<path fill="#ffffff" stroke="black" stroke-width="2" d="M106,-47C106,-47 194.02,-47 194.02,-47 200.02,-47 206.02,-53 206.02,-59 206.02,-59 206.02,-88 206.02,-88 206.02,-94 200.02,-100 194.02,-100 194.02,-100 106,-100 106,-100 100,-100 94,-94 94,-88 94,-88 94,-59 94,-59 94,-53 100,-47 106,-47"/>
<text text-anchor="middle" x="150.01" y="-87.9" font-family="Helvetica,sans-Serif" font-weight="bold" font-size="9.00">listeners</text>
</g>
<!-- src/components/listFormComponent.js -->
<g id="node1" class="node">
<title>src/components/listFormComponent.js</title>
<g id="a_node1"><a xlink:href="../src/components/listFormComponent.js" xlink:title="listFormComponent.js">
<path fill="#ffffcc" stroke="black" d="M456.09,-73.3C456.09,-73.3 364.49,-73.3 364.49,-73.3 361.39,-73.3 358.29,-70.2 358.29,-67.1 358.29,-67.1 358.29,-60.9 358.29,-60.9 358.29,-57.8 361.39,-54.7 364.49,-54.7 364.49,-54.7 456.09,-54.7 456.09,-54.7 459.19,-54.7 462.29,-57.8 462.29,-60.9 462.29,-60.9 462.29,-67.1 462.29,-67.1 462.29,-70.2 459.19,-73.3 456.09,-73.3"/>
<text text-anchor="middle" x="410.29" y="-61.3" font-family="Helvetica,sans-Serif" font-size="9.00">listFormComponent.js</text>
</a>
</g>
</g>
<!-- src/components/newItemListComponent.js -->
<g id="node2" class="node">
<title>src/components/newItemListComponent.js</title>
<g id="a_node2"><a xlink:href="../src/components/newItemListComponent.js" xlink:title="newItemListComponent.js">
<path fill="#ffffcc" stroke="black" d="M463.6,-42.3C463.6,-42.3 356.97,-42.3 356.97,-42.3 353.87,-42.3 350.77,-39.2 350.77,-36.1 350.77,-36.1 350.77,-29.9 350.77,-29.9 350.77,-26.8 353.87,-23.7 356.97,-23.7 356.97,-23.7 463.6,-23.7 463.6,-23.7 466.7,-23.7 469.8,-26.8 469.8,-29.9 469.8,-29.9 469.8,-36.1 469.8,-36.1 469.8,-39.2 466.7,-42.3 463.6,-42.3"/>
<text text-anchor="middle" x="410.29" y="-30.3" font-family="Helvetica,sans-Serif" font-size="9.00">newItemListComponent.js</text>
</a>
</g>
</g>
<!-- src/data.js -->
<g id="node3" class="node">
<title>src/data.js</title>
<g id="a_node3"><a xlink:href="../src/data.js" xlink:title="data.js">
<path fill="#ffffcc" stroke="black" d="M431.09,-126.3C431.09,-126.3 389.49,-126.3 389.49,-126.3 386.39,-126.3 383.29,-123.2 383.29,-120.1 383.29,-120.1 383.29,-113.9 383.29,-113.9 383.29,-110.8 386.39,-107.7 389.49,-107.7 389.49,-107.7 431.09,-107.7 431.09,-107.7 434.19,-107.7 437.29,-110.8 437.29,-113.9 437.29,-113.9 437.29,-120.1 437.29,-120.1 437.29,-123.2 434.19,-126.3 431.09,-126.3"/>
<text text-anchor="middle" x="410.29" y="-114.3" font-family="Helvetica,sans-Serif" font-size="9.00">data.js</text>
</a>
</g>
</g>
<!-- src/handlers/handlerNewItemList.js -->
<g id="node4" class="node">
<title>src/handlers/handlerNewItemList.js</title>
<g id="a_node4"><a xlink:href="../src/handlers/handlerNewItemList.js" xlink:title="handlerNewItemList.js">
<path fill="#ffffcc" stroke="black" d="M320.08,-73.3C320.08,-73.3 228.47,-73.3 228.47,-73.3 225.37,-73.3 222.27,-70.2 222.27,-67.1 222.27,-67.1 222.27,-60.9 222.27,-60.9 222.27,-57.8 225.37,-54.7 228.47,-54.7 228.47,-54.7 320.08,-54.7 320.08,-54.7 323.18,-54.7 326.28,-57.8 326.28,-60.9 326.28,-60.9 326.28,-67.1 326.28,-67.1 326.28,-70.2 323.18,-73.3 320.08,-73.3"/>
<text text-anchor="middle" x="274.27" y="-61.3" font-family="Helvetica,sans-Serif" font-size="9.00">handlerNewItemList.js</text>
</a>
</g>
</g>
<!-- src/handlers/handlerNewItemList.js&#45;&gt;src/components/listFormComponent.js -->
<g id="edge1" class="edge">
<title>src/handlers/handlerNewItemList.js&#45;&gt;src/components/listFormComponent.js</title>
<path fill="none" stroke="#000000" stroke-width="2" stroke-opacity="0.200000" d="M326.32,-64C334.77,-64 343.58,-64 352.17,-64"/>
<polygon fill="#000000" fill-opacity="0.200000" stroke="#000000" stroke-width="2" stroke-opacity="0.200000" points="352.38,-66.1 358.38,-64 352.38,-61.9 352.38,-66.1"/>
</g>
<!-- src/handlers/handlerNewItemList.js&#45;&gt;src/components/newItemListComponent.js -->
<g id="edge2" class="edge">
<title>src/handlers/handlerNewItemList.js&#45;&gt;src/components/newItemListComponent.js</title>
<path fill="none" stroke="#000000" stroke-width="2" stroke-opacity="0.200000" d="M315.85,-54.61C330.67,-51.19 347.55,-47.28 362.85,-43.74"/>
<polygon fill="#000000" fill-opacity="0.200000" stroke="#000000" stroke-width="2" stroke-opacity="0.200000" points="363.48,-45.75 368.85,-42.35 362.53,-41.66 363.48,-45.75"/>
</g>
<!-- src/handlers/handlerNewItemList.js&#45;&gt;src/data.js -->
<g id="edge3" class="edge">
<title>src/handlers/handlerNewItemList.js&#45;&gt;src/data.js</title>
<path fill="none" stroke="#000000" stroke-width="2" stroke-opacity="0.200000" d="M288.54,-73.41C301.66,-82.3 322.62,-95.37 342.53,-103 353.44,-107.19 365.87,-110.22 377.01,-112.38"/>
<polygon fill="#000000" fill-opacity="0.200000" stroke="#000000" stroke-width="2" stroke-opacity="0.200000" points="376.78,-114.47 383.06,-113.49 377.53,-110.34 376.78,-114.47"/>
</g>
<!-- src/init/index.js -->
<g id="node5" class="node">
<title>src/init/index.js</title>
<g id="a_node5"><a xlink:href="../src/init/index.js" xlink:title="index.js">
<path fill="#ffffcc" stroke="black" d="M71.8,-73.3C71.8,-73.3 30.2,-73.3 30.2,-73.3 27.1,-73.3 24,-70.2 24,-67.1 24,-67.1 24,-60.9 24,-60.9 24,-57.8 27.1,-54.7 30.2,-54.7 30.2,-54.7 71.8,-54.7 71.8,-54.7 74.9,-54.7 78,-57.8 78,-60.9 78,-60.9 78,-67.1 78,-67.1 78,-70.2 74.9,-73.3 71.8,-73.3"/>
<text text-anchor="middle" x="51" y="-61.3" font-family="Helvetica,sans-Serif" font-size="9.00">index.js</text>
</a>
</g>
</g>
<!-- src/listeners/listenerAddButton.js -->
<g id="node6" class="node">
<title>src/listeners/listenerAddButton.js</title>
<g id="a_node6"><a xlink:href="../src/listeners/listenerAddButton.js" xlink:title="listenerAddButton.js">
<path fill="#ffffcc" stroke="black" d="M191.83,-73.3C191.83,-73.3 108.19,-73.3 108.19,-73.3 105.09,-73.3 101.99,-70.2 101.99,-67.1 101.99,-67.1 101.99,-60.9 101.99,-60.9 101.99,-57.8 105.09,-54.7 108.19,-54.7 108.19,-54.7 191.83,-54.7 191.83,-54.7 194.93,-54.7 198.03,-57.8 198.03,-60.9 198.03,-60.9 198.03,-67.1 198.03,-67.1 198.03,-70.2 194.93,-73.3 191.83,-73.3"/>
<text text-anchor="middle" x="150.01" y="-61.3" font-family="Helvetica,sans-Serif" font-size="9.00">listenerAddButton.js</text>
</a>
</g>
</g>
<!-- src/init/index.js&#45;&gt;src/listeners/listenerAddButton.js -->
<g id="edge4" class="edge">
<title>src/init/index.js&#45;&gt;src/listeners/listenerAddButton.js</title>
<path fill="none" stroke="#000000" stroke-width="2" stroke-opacity="0.200000" d="M78.25,-64C83.72,-64 89.68,-64 95.73,-64"/>
<polygon fill="#000000" fill-opacity="0.200000" stroke="#000000" stroke-width="2" stroke-opacity="0.200000" points="95.8,-66.1 101.8,-64 95.8,-61.9 95.8,-66.1"/>
</g>
<!-- src/listeners/listenerAddButton.js&#45;&gt;src/handlers/handlerNewItemList.js -->
<g id="edge5" class="edge">
<title>src/listeners/listenerAddButton.js&#45;&gt;src/handlers/handlerNewItemList.js</title>
<path fill="none" stroke="#000000" stroke-width="2" stroke-opacity="0.200000" d="M198.28,-64C204.01,-64 209.9,-64 215.75,-64"/>
<polygon fill="#000000" fill-opacity="0.200000" stroke="#000000" stroke-width="2" stroke-opacity="0.200000" points="216.07,-66.1 222.07,-64 216.07,-61.9 216.07,-66.1"/>
</g>
</g>
</svg>
